<svg width="98" height="138" xmlns="http://www.w3.org/2000/svg" xmlns:xlink="http://www.w3.org/1999/xlink" xml:space="preserve" overflow="hidden"><defs><clipPath id="clip0"><rect x="591" y="417" width="98" height="138"/></clipPath></defs><g clip-path="url(#clip0)" transform="translate(-591 -417)"><path d="M325.245 427.954C325.245 450.975 306.947 469.274 283.926 469.274 260.905 469.274 242.606 450.975 242.606 427.954 242.606 404.933 283.926 345.315 283.926 345.315 283.926 345.315 325.245 405.524 325.245 427.954Z" fill="#8EAFC5" transform="matrix(1 0 0 1.00594 355.99 75.3661)"/><path d="M413.788 404.343C413.788 420.871 400.801 433.857 384.273 433.857 367.746 433.857 354.759 420.871 354.759 404.343 354.759 387.815 384.273 345.315 384.273 345.315 384.273 345.315 413.788 388.405 413.788 404.343Z" fill="#8EAFC5" transform="matrix(1 0 0 1.00594 355.99 75.3661)"/><path d="M213.092 404.343C213.092 420.871 200.106 433.857 183.578 433.857 167.05 433.857 154.064 420.871 154.064 404.343 154.064 387.815 183.578 345.315 183.578 345.315 183.578 345.315 213.092 388.405 213.092 404.343Z" fill="#8EAFC5" transform="matrix(1 0 0 1.00594 355.99 75.3661)"/><path d="M484.621 265.627C484.621 249.099 477.538 233.752 465.142 223.127 452.746 212.501 436.218 207.779 419.69 210.731L419.69 210.14C419.69 187.71 409.065 165.869 390.176 152.883 371.878 139.307 348.266 135.765 326.426 142.848 308.127 108.612 268.578 90.9034 230.8 100.348 193.022 109.202 165.869 142.848 165.279 181.807 139.307 177.085 112.744 187.119 96.8062 207.779 80.2783 228.439 76.7366 256.182 87.3617 280.384 97.9868 304.585 121.008 320.523 147.57 322.294L430.906 322.294C461.6 320.523 484.621 295.731 484.621 265.627Z" fill="#8EAFC5" transform="matrix(1 0 0 1.00594 355.99 75.3661)"/></g></svg>