<svg width="59" height="58" xmlns="http://www.w3.org/2000/svg" xmlns:xlink="http://www.w3.org/1999/xlink" xml:space="preserve" overflow="hidden"><defs><clipPath id="clip0"><rect x="88" y="193" width="59" height="58"/></clipPath></defs><g clip-path="url(#clip0)" transform="translate(-88 -193)"><path d="M137.509 180.933C137.509 190.666 129.773 198.402 120.04 198.402 110.307 198.402 102.57 190.666 102.57 180.933 102.57 171.2 120.04 145.994 120.04 145.994 120.04 145.994 137.509 171.45 137.509 180.933Z" fill="#8EAFC5" transform="matrix(1.00524 0 0 1 -3.51045 49.4147)"/><path d="M174.944 170.951C174.944 177.938 169.453 183.429 162.465 183.429 155.478 183.429 149.987 177.938 149.987 170.951 149.987 163.963 162.465 145.994 162.465 145.994 162.465 145.994 174.944 164.212 174.944 170.951Z" fill="#8EAFC5" transform="matrix(1.00524 0 0 1 -3.51045 49.4147)"/><path d="M90.0922 170.951C90.0922 177.938 84.6018 183.429 77.614 183.429 70.6263 183.429 65.1359 177.938 65.1359 170.951 65.1359 163.963 77.614 145.994 77.614 145.994 77.614 145.994 90.0922 164.212 90.0922 170.951Z" fill="#8EAFC5" transform="matrix(1.00524 0 0 1 -3.51045 49.4147)"/><path d="M204.891 112.303C204.891 105.316 201.896 98.8269 196.656 94.3347 191.415 89.8426 184.427 87.8461 177.439 89.0939L177.439 88.8444C177.439 79.361 172.947 70.1272 164.961 64.6368 157.225 58.8968 147.242 57.3995 138.008 60.3942 130.272 45.9196 113.551 38.4327 97.5791 42.4257 81.607 46.1691 70.1272 60.3942 69.8776 76.8653 58.8968 74.8689 47.6665 79.1114 40.9283 87.8461 33.9405 96.5808 32.4432 108.31 36.9353 118.542 41.4274 128.774 51.1604 135.513 62.3907 136.261L182.181 136.261C195.158 135.513 204.891 125.031 204.891 112.303Z" fill="#8EAFC5" transform="matrix(1.00524 0 0 1 -3.51045 49.4147)"/></g></svg>