<svg width="2475" height="4400" xmlns="http://www.w3.org/2000/svg" xmlns:xlink="http://www.w3.org/1999/xlink" xml:space="preserve" overflow="hidden"><defs><clipPath id="clip0"><rect x="0" y="0" width="2475" height="4400"/></clipPath><clipPath id="clip1"><rect x="606" y="611" width="149" height="211"/></clipPath><clipPath id="clip2"><rect x="606" y="611" width="149" height="211"/></clipPath><clipPath id="clip3"><rect x="248" y="92" width="863" height="868"/></clipPath><clipPath id="clip4"><rect x="1897" y="113" width="151" height="211"/></clipPath><clipPath id="clip5"><rect x="1897" y="113" width="151" height="211"/></clipPath><clipPath id="clip6"><rect x="1540" y="-407" width="863" height="868"/></clipPath><clipPath id="clip7"><rect x="275" y="1228" width="149" height="210"/></clipPath><clipPath id="clip8"><rect x="274" y="1228" width="150" height="210"/></clipPath><clipPath id="clip9"><rect x="-83" y="711" width="863" height="864"/></clipPath><clipPath id="clip10"><rect x="1415" y="1124" width="151" height="211"/></clipPath><clipPath id="clip11"><rect x="1415" y="1124" width="151" height="211"/></clipPath><clipPath id="clip12"><rect x="1058" y="604" width="863" height="868"/></clipPath><clipPath id="clip13"><rect x="930" y="1955" width="152" height="210"/></clipPath><clipPath id="clip14"><rect x="930" y="1955" width="152" height="210"/></clipPath><clipPath id="clip15"><rect x="571" y="1438" width="868" height="864"/></clipPath><clipPath id="clip16"><rect x="2315" y="2513" width="151" height="211"/></clipPath><clipPath id="clip17"><rect x="2315" y="2513" width="151" height="211"/></clipPath><clipPath id="clip18"><rect x="1955" y="1994" width="868" height="868"/></clipPath><clipPath id="clip19"><rect x="691" y="3578" width="151" height="211"/></clipPath><clipPath id="clip20"><rect x="691" y="3578" width="151" height="211"/></clipPath><clipPath id="clip21"><rect x="332" y="3058" width="868" height="868"/></clipPath><clipPath id="clip22"><rect x="1633" y="3788" width="151" height="210"/></clipPath><clipPath id="clip23"><rect x="1633" y="3788" width="151" height="210"/></clipPath><clipPath id="clip24"><rect x="1273" y="3270" width="868" height="864"/></clipPath></defs><g clip-path="url(#clip0)"><g clip-path="url(#clip1)"><g clip-path="url(#clip2)"><g clip-path="url(#clip3)"><path d="M494.505 650.664C494.505 685.666 466.684 713.487 431.682 713.487 396.681 713.487 368.859 685.666 368.859 650.664 368.859 615.663 431.682 525.019 431.682 525.019 431.682 525.019 494.505 616.561 494.505 650.664Z" fill="#8EAFC5" transform="matrix(1 0 0 1.00682 248.69 92.1221)"/><path d="M629.125 614.766C629.125 639.895 609.381 659.639 584.252 659.639 559.123 659.639 539.378 639.895 539.378 614.766 539.378 589.637 584.252 525.019 584.252 525.019 584.252 525.019 629.125 590.534 629.125 614.766Z" fill="#8EAFC5" transform="matrix(1 0 0 1.00682 248.69 92.1221)"/><path d="M323.986 614.766C323.986 639.895 304.242 659.639 279.113 659.639 253.984 659.639 234.239 639.895 234.239 614.766 234.239 589.637 279.113 525.019 279.113 525.019 279.113 525.019 323.986 590.534 323.986 614.766Z" fill="#8EAFC5" transform="matrix(1 0 0 1.00682 248.69 92.1221)"/><path d="M736.821 403.861C736.821 378.732 726.052 355.397 707.205 339.243 688.358 323.089 663.229 315.909 638.1 320.396L638.1 319.499C638.1 285.395 621.946 252.189 593.227 232.444 565.405 211.803 529.506 206.418 496.3 217.187 468.478 165.134 408.348 138.21 350.91 152.57 293.472 166.032 252.189 217.187 251.291 276.42 211.803 269.24 171.416 284.497 147.185 315.909 122.056 347.32 116.671 389.501 132.825 426.297 148.98 463.094 183.981 487.325 224.367 490.018L655.152 490.018C701.82 487.325 736.821 449.632 736.821 403.861Z" fill="#8EAFC5" transform="matrix(1 0 0 1.00682 248.69 92.1221)"/></g></g></g><g clip-path="url(#clip4)"><g clip-path="url(#clip5)"><g clip-path="url(#clip6)"><path d="M494.506 650.666C494.506 685.667 466.685 713.489 431.683 713.489 396.682 713.489 368.86 685.667 368.86 650.666 368.86 615.665 431.683 525.02 431.683 525.02 431.683 525.02 494.506 616.562 494.506 650.666Z" fill="#8EAFC5" transform="matrix(1 0 0 1.00682 1540.69 -406.878)"/><path d="M629.127 614.767C629.127 639.896 609.382 659.641 584.253 659.641 559.124 659.641 539.38 639.896 539.38 614.767 539.38 589.638 584.253 525.02 584.253 525.02 584.253 525.02 629.127 590.536 629.127 614.767Z" fill="#8EAFC5" transform="matrix(1 0 0 1.00682 1540.69 -406.878)"/><path d="M323.987 614.767C323.987 639.896 304.242 659.641 279.113 659.641 253.984 659.641 234.24 639.896 234.24 614.767 234.24 589.638 279.113 525.02 279.113 525.02 279.113 525.02 323.987 590.536 323.987 614.767Z" fill="#8EAFC5" transform="matrix(1 0 0 1.00682 1540.69 -406.878)"/><path d="M736.823 403.862C736.823 378.733 726.054 355.398 707.207 339.244 688.36 323.089 663.231 315.91 638.102 320.397L638.102 319.499C638.102 285.396 621.947 252.189 593.228 232.445 565.406 211.803 529.508 206.418 496.301 217.188 468.48 165.135 408.349 138.21 350.911 152.57 293.473 166.032 252.189 217.188 251.292 276.421 211.803 269.241 171.417 284.498 147.185 315.91 122.056 347.321 116.671 389.502 132.826 426.298 148.98 463.095 183.981 487.326 224.368 490.019L655.153 490.019C701.822 487.326 736.823 449.633 736.823 403.862Z" fill="#8EAFC5" transform="matrix(1 0 0 1.00682 1540.69 -406.878)"/></g></g></g><g clip-path="url(#clip7)"><g clip-path="url(#clip8)"><g clip-path="url(#clip9)"><path d="M494.505 650.664C494.505 685.666 466.684 713.487 431.682 713.487 396.681 713.487 368.859 685.666 368.859 650.664 368.859 615.663 431.682 525.019 431.682 525.019 431.682 525.019 494.505 616.561 494.505 650.664Z" fill="#8EAFC5" transform="matrix(1 0 0 1.00203 -82.3101 711.598)"/><path d="M629.125 614.766C629.125 639.895 609.381 659.639 584.252 659.639 559.123 659.639 539.378 639.895 539.378 614.766 539.378 589.637 584.252 525.019 584.252 525.019 584.252 525.019 629.125 590.534 629.125 614.766Z" fill="#8EAFC5" transform="matrix(1 0 0 1.00203 -82.3101 711.598)"/><path d="M323.986 614.766C323.986 639.895 304.242 659.639 279.113 659.639 253.984 659.639 234.239 639.895 234.239 614.766 234.239 589.637 279.113 525.019 279.113 525.019 279.113 525.019 323.986 590.534 323.986 614.766Z" fill="#8EAFC5" transform="matrix(1 0 0 1.00203 -82.3101 711.598)"/><path d="M736.821 403.861C736.821 378.732 726.052 355.397 707.205 339.243 688.358 323.089 663.229 315.909 638.1 320.396L638.1 319.499C638.1 285.395 621.946 252.189 593.227 232.444 565.405 211.803 529.506 206.418 496.3 217.187 468.478 165.134 408.348 138.21 350.91 152.57 293.472 166.032 252.189 217.187 251.291 276.42 211.803 269.24 171.416 284.497 147.185 315.909 122.056 347.32 116.671 389.501 132.825 426.297 148.98 463.094 183.981 487.325 224.367 490.018L655.152 490.018C701.82 487.325 736.821 449.632 736.821 403.861Z" fill="#8EAFC5" transform="matrix(1 0 0 1.00203 -82.3101 711.598)"/></g></g></g><g clip-path="url(#clip10)"><g clip-path="url(#clip11)"><g clip-path="url(#clip12)"><path d="M494.506 650.666C494.506 685.667 466.685 713.489 431.683 713.489 396.682 713.489 368.86 685.667 368.86 650.666 368.86 615.665 431.683 525.02 431.683 525.02 431.683 525.02 494.506 616.562 494.506 650.666Z" fill="#8EAFC5" transform="matrix(1 0 0 1.00682 1058.69 604.122)"/><path d="M629.127 614.767C629.127 639.896 609.382 659.641 584.253 659.641 559.124 659.641 539.38 639.896 539.38 614.767 539.38 589.638 584.253 525.02 584.253 525.02 584.253 525.02 629.127 590.536 629.127 614.767Z" fill="#8EAFC5" transform="matrix(1 0 0 1.00682 1058.69 604.122)"/><path d="M323.987 614.767C323.987 639.896 304.242 659.641 279.113 659.641 253.984 659.641 234.24 639.896 234.24 614.767 234.24 589.638 279.113 525.02 279.113 525.02 279.113 525.02 323.987 590.536 323.987 614.767Z" fill="#8EAFC5" transform="matrix(1 0 0 1.00682 1058.69 604.122)"/><path d="M736.823 403.862C736.823 378.733 726.054 355.398 707.207 339.244 688.36 323.089 663.231 315.91 638.102 320.397L638.102 319.499C638.102 285.396 621.947 252.189 593.228 232.445 565.406 211.803 529.508 206.418 496.301 217.188 468.48 165.135 408.349 138.21 350.911 152.57 293.473 166.032 252.189 217.188 251.292 276.421 211.803 269.241 171.417 284.498 147.185 315.91 122.056 347.321 116.671 389.502 132.826 426.298 148.98 463.095 183.981 487.326 224.368 490.019L655.153 490.019C701.822 487.326 736.823 449.633 736.823 403.862Z" fill="#8EAFC5" transform="matrix(1 0 0 1.00682 1058.69 604.122)"/></g></g></g><g clip-path="url(#clip13)"><g clip-path="url(#clip14)"><g clip-path="url(#clip15)"><path d="M495.507 651.983C495.507 687.055 467.629 714.933 432.557 714.933 397.485 714.933 369.607 687.055 369.607 651.983 369.607 616.911 432.557 526.083 432.557 526.083 432.557 526.083 495.507 617.81 495.507 651.983Z" fill="#8EAFC5" transform="matrix(1.00468 0 0 1 571.291 1438.6)"/><path d="M630.4 616.011C630.4 641.191 610.616 660.976 585.436 660.976 560.256 660.976 540.471 641.191 540.471 616.011 540.471 590.831 585.436 526.083 585.436 526.083 585.436 526.083 630.4 591.731 630.4 616.011Z" fill="#8EAFC5" transform="matrix(1.00468 0 0 1 571.291 1438.6)"/><path d="M324.643 616.011C324.643 641.191 304.858 660.976 279.678 660.976 254.498 660.976 234.714 641.191 234.714 616.011 234.714 590.831 279.678 526.083 279.678 526.083 279.678 526.083 324.643 591.731 324.643 616.011Z" fill="#8EAFC5" transform="matrix(1.00468 0 0 1 571.291 1438.6)"/><path d="M738.314 404.679C738.314 379.499 727.523 356.118 708.638 339.93 689.753 323.743 664.573 316.549 639.393 321.045L639.393 320.146C639.393 285.973 623.206 252.7 594.429 232.915 566.551 212.232 530.579 206.836 497.306 217.627 469.428 165.469 409.175 138.49 351.621 152.879 294.067 166.368 252.7 217.627 251.8 276.98 212.232 269.786 171.764 285.074 147.483 316.549 122.303 348.024 116.907 390.29 133.094 427.161 149.282 464.032 184.354 488.313 224.822 491.011L656.479 491.011C703.242 488.313 738.314 450.543 738.314 404.679Z" fill="#8EAFC5" transform="matrix(1.00468 0 0 1 571.291 1438.6)"/></g></g></g><g clip-path="url(#clip16)"><g clip-path="url(#clip17)"><g clip-path="url(#clip18)"><path d="M497.824 655.032C497.824 690.268 469.816 718.276 434.58 718.276 399.343 718.276 371.335 690.268 371.335 655.032 371.335 619.795 434.58 528.543 434.58 528.543 434.58 528.543 497.824 620.699 497.824 655.032Z" fill="#8EAFC5" transform="matrix(1 0 0 1.00011 1955.29 1994.12)"/><path d="M633.348 618.892C633.348 644.19 613.471 664.066 588.173 664.066 562.875 664.066 542.999 644.19 542.999 618.892 542.999 593.594 588.173 528.543 588.173 528.543 588.173 528.543 633.348 594.498 633.348 618.892Z" fill="#8EAFC5" transform="matrix(1 0 0 1.00011 1955.29 1994.12)"/><path d="M326.161 618.892C326.161 644.19 306.284 664.066 280.986 664.066 255.688 664.066 235.811 644.19 235.811 618.892 235.811 593.594 280.986 528.543 280.986 528.543 280.986 528.543 326.161 594.498 326.161 618.892Z" fill="#8EAFC5" transform="matrix(1 0 0 1.00011 1955.29 1994.12)"/><path d="M741.767 406.571C741.767 381.274 730.925 357.783 711.952 341.52 692.978 325.257 667.68 318.029 642.383 322.547L642.383 321.643C642.383 287.31 626.12 253.881 597.208 234.004 569.2 213.224 533.06 207.803 499.631 218.645 471.623 166.242 411.089 139.138 353.265 153.594 295.442 167.146 253.881 218.645 252.978 278.275 213.224 271.048 172.567 286.407 148.173 318.029 122.875 349.651 117.454 392.115 133.717 429.159 149.98 466.202 185.216 490.596 225.873 493.306L659.549 493.306C706.531 490.596 741.767 452.649 741.767 406.571Z" fill="#8EAFC5" transform="matrix(1 0 0 1.00011 1955.29 1994.12)"/></g></g></g><g clip-path="url(#clip19)"><g clip-path="url(#clip20)"><g clip-path="url(#clip21)"><path d="M497.824 655.032C497.824 690.268 469.816 718.276 434.58 718.276 399.343 718.276 371.335 690.268 371.335 655.032 371.335 619.795 434.58 528.543 434.58 528.543 434.58 528.543 497.824 620.699 497.824 655.032Z" fill="#8EAFC5" transform="matrix(1 0 0 1.00011 332.292 3058.12)"/><path d="M633.348 618.892C633.348 644.19 613.471 664.066 588.173 664.066 562.875 664.066 542.999 644.19 542.999 618.892 542.999 593.594 588.173 528.543 588.173 528.543 588.173 528.543 633.348 594.498 633.348 618.892Z" fill="#8EAFC5" transform="matrix(1 0 0 1.00011 332.292 3058.12)"/><path d="M326.161 618.892C326.161 644.19 306.284 664.066 280.986 664.066 255.688 664.066 235.811 644.19 235.811 618.892 235.811 593.594 280.986 528.543 280.986 528.543 280.986 528.543 326.161 594.498 326.161 618.892Z" fill="#8EAFC5" transform="matrix(1 0 0 1.00011 332.292 3058.12)"/><path d="M741.767 406.571C741.767 381.274 730.925 357.783 711.952 341.52 692.978 325.257 667.68 318.029 642.383 322.547L642.383 321.643C642.383 287.31 626.12 253.881 597.208 234.004 569.2 213.224 533.06 207.803 499.631 218.645 471.623 166.242 411.089 139.138 353.265 153.594 295.442 167.146 253.881 218.645 252.978 278.275 213.224 271.048 172.567 286.407 148.173 318.029 122.875 349.651 117.454 392.115 133.717 429.159 149.98 466.202 185.216 490.596 225.873 493.306L659.549 493.306C706.531 490.596 741.767 452.649 741.767 406.571Z" fill="#8EAFC5" transform="matrix(1 0 0 1.00011 332.292 3058.12)"/></g></g></g><g clip-path="url(#clip22)"><g clip-path="url(#clip23)"><g clip-path="url(#clip24)"><path d="M495.507 651.983C495.507 687.055 467.629 714.933 432.557 714.933 397.485 714.933 369.607 687.055 369.607 651.983 369.607 616.911 432.557 526.083 432.557 526.083 432.557 526.083 495.507 617.81 495.507 651.983Z" fill="#8EAFC5" transform="matrix(1.00468 0 0 1 1273.29 3270.6)"/><path d="M630.4 616.011C630.4 641.191 610.616 660.976 585.436 660.976 560.256 660.976 540.471 641.191 540.471 616.011 540.471 590.831 585.436 526.083 585.436 526.083 585.436 526.083 630.4 591.731 630.4 616.011Z" fill="#8EAFC5" transform="matrix(1.00468 0 0 1 1273.29 3270.6)"/><path d="M324.643 616.011C324.643 641.191 304.858 660.976 279.678 660.976 254.498 660.976 234.714 641.191 234.714 616.011 234.714 590.831 279.678 526.083 279.678 526.083 279.678 526.083 324.643 591.731 324.643 616.011Z" fill="#8EAFC5" transform="matrix(1.00468 0 0 1 1273.29 3270.6)"/><path d="M738.314 404.679C738.314 379.499 727.523 356.118 708.638 339.93 689.753 323.743 664.573 316.549 639.393 321.045L639.393 320.146C639.393 285.973 623.206 252.7 594.429 232.915 566.551 212.232 530.579 206.836 497.306 217.627 469.428 165.469 409.175 138.49 351.621 152.879 294.067 166.368 252.7 217.627 251.8 276.98 212.232 269.786 171.764 285.074 147.483 316.549 122.303 348.024 116.907 390.29 133.094 427.161 149.282 464.032 184.354 488.313 224.822 491.011L656.479 491.011C703.242 488.313 738.314 450.543 738.314 404.679Z" fill="#8EAFC5" transform="matrix(1.00468 0 0 1 1273.29 3270.6)"/></g></g></g></g></svg>