<svg width="2475" height="1622" xmlns="http://www.w3.org/2000/svg" xmlns:xlink="http://www.w3.org/1999/xlink" xml:space="preserve" overflow="hidden"><defs><clipPath id="clip0"><rect x="0" y="0" width="2475" height="1622"/></clipPath><clipPath id="clip1"><rect x="215" y="1073" width="151" height="211"/></clipPath><clipPath id="clip2"><rect x="215" y="1073" width="151" height="211"/></clipPath><clipPath id="clip3"><rect x="-142" y="554" width="863" height="868"/></clipPath><clipPath id="clip4"><rect x="954" y="103" width="152" height="210"/></clipPath><clipPath id="clip5"><rect x="954" y="103" width="152" height="210"/></clipPath><clipPath id="clip6"><rect x="595" y="-415" width="868" height="864"/></clipPath><clipPath id="clip7"><rect x="1822" y="1358" width="152" height="210"/></clipPath><clipPath id="clip8"><rect x="1822" y="1358" width="152" height="210"/></clipPath><clipPath id="clip9"><rect x="1463" y="840" width="868" height="864"/></clipPath></defs><g clip-path="url(#clip0)"><g clip-path="url(#clip1)"><g clip-path="url(#clip2)"><g clip-path="url(#clip3)"><path d="M494.506 650.666C494.506 685.667 466.685 713.489 431.683 713.489 396.682 713.489 368.86 685.667 368.86 650.666 368.86 615.665 431.683 525.02 431.683 525.02 431.683 525.02 494.506 616.562 494.506 650.666Z" fill="#8EAFC5" transform="matrix(1 0 0 1.00682 -141.311 554.122)"/><path d="M629.127 614.767C629.127 639.896 609.382 659.641 584.253 659.641 559.124 659.641 539.38 639.896 539.38 614.767 539.38 589.638 584.253 525.02 584.253 525.02 584.253 525.02 629.127 590.536 629.127 614.767Z" fill="#8EAFC5" transform="matrix(1 0 0 1.00682 -141.311 554.122)"/><path d="M323.987 614.767C323.987 639.896 304.242 659.641 279.113 659.641 253.984 659.641 234.24 639.896 234.24 614.767 234.24 589.638 279.113 525.02 279.113 525.02 279.113 525.02 323.987 590.536 323.987 614.767Z" fill="#8EAFC5" transform="matrix(1 0 0 1.00682 -141.311 554.122)"/><path d="M736.823 403.862C736.823 378.733 726.054 355.398 707.207 339.244 688.36 323.089 663.231 315.91 638.102 320.397L638.102 319.499C638.102 285.396 621.947 252.189 593.228 232.445 565.406 211.803 529.508 206.418 496.301 217.188 468.48 165.135 408.349 138.21 350.911 152.57 293.473 166.032 252.189 217.188 251.292 276.421 211.803 269.241 171.417 284.498 147.185 315.91 122.056 347.321 116.671 389.502 132.826 426.298 148.98 463.095 183.981 487.326 224.368 490.019L655.153 490.019C701.822 487.326 736.823 449.633 736.823 403.862Z" fill="#8EAFC5" transform="matrix(1 0 0 1.00682 -141.311 554.122)"/></g></g></g><g clip-path="url(#clip4)"><g clip-path="url(#clip5)"><g clip-path="url(#clip6)"><path d="M495.507 651.983C495.507 687.055 467.629 714.933 432.557 714.933 397.485 714.933 369.607 687.055 369.607 651.983 369.607 616.911 432.557 526.083 432.557 526.083 432.557 526.083 495.507 617.81 495.507 651.983Z" fill="#8EAFC5" transform="matrix(1.00468 0 0 1 595.291 -414.402)"/><path d="M630.4 616.011C630.4 641.191 610.616 660.976 585.436 660.976 560.256 660.976 540.471 641.191 540.471 616.011 540.471 590.831 585.436 526.083 585.436 526.083 585.436 526.083 630.4 591.731 630.4 616.011Z" fill="#8EAFC5" transform="matrix(1.00468 0 0 1 595.291 -414.402)"/><path d="M324.643 616.011C324.643 641.191 304.858 660.976 279.678 660.976 254.498 660.976 234.714 641.191 234.714 616.011 234.714 590.831 279.678 526.083 279.678 526.083 279.678 526.083 324.643 591.731 324.643 616.011Z" fill="#8EAFC5" transform="matrix(1.00468 0 0 1 595.291 -414.402)"/><path d="M738.314 404.679C738.314 379.499 727.523 356.118 708.638 339.93 689.753 323.743 664.573 316.549 639.393 321.045L639.393 320.146C639.393 285.973 623.206 252.7 594.429 232.915 566.551 212.232 530.579 206.836 497.306 217.627 469.428 165.469 409.175 138.49 351.621 152.879 294.067 166.368 252.7 217.627 251.8 276.98 212.232 269.786 171.764 285.074 147.483 316.549 122.303 348.024 116.907 390.29 133.094 427.161 149.282 464.032 184.354 488.313 224.822 491.011L656.479 491.011C703.242 488.313 738.314 450.543 738.314 404.679Z" fill="#8EAFC5" transform="matrix(1.00468 0 0 1 595.291 -414.402)"/></g></g></g><g clip-path="url(#clip7)"><g clip-path="url(#clip8)"><g clip-path="url(#clip9)"><path d="M495.507 651.983C495.507 687.055 467.629 714.933 432.557 714.933 397.485 714.933 369.607 687.055 369.607 651.983 369.607 616.911 432.557 526.083 432.557 526.083 432.557 526.083 495.507 617.81 495.507 651.983Z" fill="#8EAFC5" transform="matrix(1.00468 0 0 1 1463.29 840.598)"/><path d="M630.4 616.011C630.4 641.191 610.616 660.976 585.436 660.976 560.256 660.976 540.471 641.191 540.471 616.011 540.471 590.831 585.436 526.083 585.436 526.083 585.436 526.083 630.4 591.731 630.4 616.011Z" fill="#8EAFC5" transform="matrix(1.00468 0 0 1 1463.29 840.598)"/><path d="M324.643 616.011C324.643 641.191 304.858 660.976 279.678 660.976 254.498 660.976 234.714 641.191 234.714 616.011 234.714 590.831 279.678 526.083 279.678 526.083 279.678 526.083 324.643 591.731 324.643 616.011Z" fill="#8EAFC5" transform="matrix(1.00468 0 0 1 1463.29 840.598)"/><path d="M738.314 404.679C738.314 379.499 727.523 356.118 708.638 339.93 689.753 323.743 664.573 316.549 639.393 321.045L639.393 320.146C639.393 285.973 623.206 252.7 594.429 232.915 566.551 212.232 530.579 206.836 497.306 217.627 469.428 165.469 409.175 138.49 351.621 152.879 294.067 166.368 252.7 217.627 251.8 276.98 212.232 269.786 171.764 285.074 147.483 316.549 122.303 348.024 116.907 390.29 133.094 427.161 149.282 464.032 184.354 488.313 224.822 491.011L656.479 491.011C703.242 488.313 738.314 450.543 738.314 404.679Z" fill="#8EAFC5" transform="matrix(1.00468 0 0 1 1463.29 840.598)"/></g></g></g></g></svg>