<svg width="273" height="210" xmlns="http://www.w3.org/2000/svg" xmlns:xlink="http://www.w3.org/1999/xlink" xml:space="preserve" overflow="hidden"><defs><clipPath id="clip0"><rect x="129" y="129" width="273" height="210"/></clipPath><clipPath id="clip1"><rect x="128" y="129" width="274" height="74"/></clipPath><clipPath id="clip2"><rect x="128" y="129" width="274" height="74"/></clipPath><clipPath id="clip3"><rect x="128" y="197" width="274" height="75"/></clipPath><clipPath id="clip4"><rect x="129" y="197" width="273" height="73.9999"/></clipPath><clipPath id="clip5"><rect x="-546.841" y="20.5626" width="1127.68" height="427.893"/></clipPath><clipPath id="clip6"><rect x="128" y="265" width="274" height="75"/></clipPath><clipPath id="clip7"><rect x="128" y="265" width="274" height="75"/></clipPath></defs><g clip-path="url(#clip0)" transform="translate(-129 -129)"><g clip-path="url(#clip1)"><g clip-path="url(#clip2)"><path d="M242.275 318.783C242.275 335.932 228.645 349.562 211.496 349.562 194.348 349.562 180.717 335.932 180.717 318.783 180.717 301.635 211.496 257.225 211.496 257.225 211.496 257.225 242.275 302.075 242.275 318.783Z" fill="#1B1C1E" transform="matrix(6.12323e-17 1 -2.67151 1.63583e-16 1077.84 -46.0586)"/><path d="M308.23 301.195C308.23 313.507 298.557 323.18 286.245 323.18 273.934 323.18 264.26 313.507 264.26 301.195 264.26 288.884 286.245 257.225 286.245 257.225 286.245 257.225 308.23 289.323 308.23 301.195Z" fill="#1B1C1E" transform="matrix(6.12323e-17 1 -2.67151 1.63583e-16 1077.84 -46.0586)"/><path d="M158.732 301.195C158.732 313.507 149.059 323.18 136.747 323.18 124.435 323.18 114.762 313.507 114.762 301.195 114.762 288.884 136.747 257.225 136.747 257.225 136.747 257.225 158.732 289.323 158.732 301.195Z" fill="#1B1C1E" transform="matrix(6.12323e-17 1 -2.67151 1.63583e-16 1077.84 -46.0586)"/><path d="M360.995 197.865C360.995 185.554 355.718 174.122 346.484 166.207 337.251 158.292 324.939 154.775 312.627 156.973L312.627 156.534C312.627 139.825 304.713 123.556 290.642 113.883 277.012 103.769 259.424 101.131 243.155 106.408 229.524 80.905 200.064 67.714 171.923 74.7492 143.782 81.3447 123.556 106.408 123.116 135.428 103.769 131.91 83.9829 139.385 72.111 154.775 59.7993 170.164 57.1611 190.83 65.0758 208.858 72.9904 226.886 90.1387 238.758 109.925 240.077L320.982 240.077C343.846 238.758 360.995 220.29 360.995 197.865Z" fill="#1B1C1E" transform="matrix(6.12323e-17 1 -2.67151 1.63583e-16 1077.84 -46.0586)"/></g></g><g clip-path="url(#clip3)"><g clip-path="url(#clip4)"><g clip-path="url(#clip5)"><path d="M245.593 323.149C245.593 340.532 231.776 354.349 214.392 354.349 197.009 354.349 183.192 340.532 183.192 323.149 183.192 305.766 214.392 260.748 214.392 260.748 214.392 260.748 245.593 306.211 245.593 323.149Z" fill="#1B1C1E" transform="matrix(-1.83697e-16 -1 2.63542 -4.84119e-16 -546.841 448.456)"/><path d="M312.451 305.32C312.451 317.8 302.646 327.606 290.165 327.606 277.685 327.606 267.879 317.8 267.879 305.32 267.879 292.84 290.165 260.748 290.165 260.748 290.165 260.748 312.451 293.285 312.451 305.32Z" fill="#1B1C1E" transform="matrix(-1.83697e-16 -1 2.63542 -4.84119e-16 -546.841 448.456)"/><path d="M160.906 305.32C160.906 317.8 151.1 327.606 138.62 327.606 126.139 327.606 116.334 317.8 116.334 305.32 116.334 292.84 138.62 260.748 138.62 260.748 138.62 260.748 160.906 293.285 160.906 305.32Z" fill="#1B1C1E" transform="matrix(-1.83697e-16 -1 2.63542 -4.84119e-16 -546.841 448.456)"/><path d="M365.938 200.575C365.938 188.095 360.589 176.506 351.229 168.483 341.869 160.46 329.389 156.894 316.909 159.123L316.909 158.677C316.909 141.74 308.886 125.248 294.622 115.442 280.805 105.19 262.976 102.516 246.484 107.865 232.667 82.0129 202.804 68.6412 174.277 75.7728 145.751 82.4586 125.248 107.865 124.802 137.282 105.19 133.717 85.133 141.294 73.0985 156.894 60.6182 172.495 57.9439 193.444 65.9669 211.718 73.9899 229.993 91.3731 242.027 111.431 243.364L325.377 243.364C348.555 242.027 365.938 223.307 365.938 200.575Z" fill="#1B1C1E" transform="matrix(-1.83697e-16 -1 2.63542 -4.84119e-16 -546.841 448.456)"/></g></g></g><g clip-path="url(#clip6)"><g clip-path="url(#clip7)"><path d="M245.593 323.149C245.593 340.532 231.776 354.349 214.392 354.349 197.009 354.349 183.192 340.532 183.192 323.149 183.192 305.766 214.392 260.748 214.392 260.748 214.392 260.748 245.593 306.211 245.593 323.149Z" fill="#1B1C1E" transform="matrix(6.12323e-17 1 -2.63542 1.61373e-16 1077.84 87.5442)"/><path d="M312.451 305.32C312.451 317.8 302.646 327.606 290.165 327.606 277.685 327.606 267.879 317.8 267.879 305.32 267.879 292.84 290.165 260.748 290.165 260.748 290.165 260.748 312.451 293.285 312.451 305.32Z" fill="#1B1C1E" transform="matrix(6.12323e-17 1 -2.63542 1.61373e-16 1077.84 87.5442)"/><path d="M160.906 305.32C160.906 317.8 151.1 327.606 138.62 327.606 126.139 327.606 116.334 317.8 116.334 305.32 116.334 292.84 138.62 260.748 138.62 260.748 138.62 260.748 160.906 293.285 160.906 305.32Z" fill="#1B1C1E" transform="matrix(6.12323e-17 1 -2.63542 1.61373e-16 1077.84 87.5442)"/><path d="M365.938 200.575C365.938 188.095 360.589 176.506 351.229 168.483 341.869 160.46 329.389 156.894 316.909 159.123L316.909 158.677C316.909 141.74 308.886 125.248 294.622 115.442 280.805 105.19 262.976 102.516 246.484 107.865 232.667 82.0129 202.804 68.6412 174.277 75.7728 145.751 82.4586 125.248 107.865 124.802 137.282 105.19 133.717 85.133 141.294 73.0985 156.894 60.6182 172.495 57.9439 193.444 65.9669 211.718 73.9899 229.993 91.3731 242.027 111.431 243.364L325.377 243.364C348.555 242.027 365.938 223.307 365.938 200.575Z" fill="#1B1C1E" transform="matrix(6.12323e-17 1 -2.63542 1.61373e-16 1077.84 87.5442)"/></g></g></g></svg>