<svg width="427" height="428" xmlns="http://www.w3.org/2000/svg" xmlns:xlink="http://www.w3.org/1999/xlink" xml:space="preserve" overflow="hidden"><defs><clipPath id="clip0"><rect x="438" y="43" width="427" height="428"/></clipPath></defs><g clip-path="url(#clip0)" transform="translate(-438 -43)"><path d="M347.827 213.055C346.493 213.055 344.714 213.055 343.379 213.055 343.379 213.055 343.379 213.055 343.379 213.055 343.379 191.26 332.704 171.245 315.357 158.791 297.566 146.336 274.881 143.223 254.421 150.34 237.519 117.425 200.156 100.523 164.573 108.974 128.99 117.425 103.192 149.45 103.192 186.368 103.192 186.368 103.192 186.812 103.192 187.257 78.7281 183.254 54.2646 193.484 39.1417 213.055 24.4635 233.071 21.7948 259.314 32.025 281.553 42.7 303.793 64.9396 318.471 89.4031 319.805L89.4031 320.25 347.382 320.25C376.739 320.25 400.757 296.231 400.757 266.875 400.757 237.519 377.183 213.055 347.827 213.055Z" stroke="#D5D9D4" stroke-width="4.44792" fill="#D5D9D4" transform="matrix(1 0 0 1.00234 438 43)"/></g></svg>