<svg width="1961" height="1962" xmlns="http://www.w3.org/2000/svg" xmlns:xlink="http://www.w3.org/1999/xlink" xml:space="preserve" overflow="hidden"><defs><clipPath id="clip0"><rect x="1268" y="136" width="1961" height="1962"/></clipPath><clipPath id="clip1"><rect x="1505" y="148" width="1471" height="1471"/></clipPath><clipPath id="clip2"><rect x="1505" y="148" width="1471" height="1471"/></clipPath><clipPath id="clip3"><rect x="1505" y="148" width="1471" height="1471"/></clipPath></defs><g clip-path="url(#clip0)" transform="translate(-1268 -136)"><path d="M1125.53 1480.96C1125.53 1560.63 1062.21 1623.95 982.543 1623.95 902.877 1623.95 839.553 1560.63 839.553 1480.96 839.553 1401.3 982.543 1194.98 982.543 1194.98 982.543 1194.98 1125.53 1403.34 1125.53 1480.96Z" fill="#8EAFC5" transform="matrix(1 0 0 1.00051 1268 136)"/><path d="M1431.94 1399.26C1431.94 1456.45 1387 1501.39 1329.8 1501.39 1272.61 1501.39 1227.67 1456.45 1227.67 1399.26 1227.67 1342.06 1329.8 1194.98 1329.8 1194.98 1329.8 1194.98 1431.94 1344.1 1431.94 1399.26Z" fill="#8EAFC5" transform="matrix(1 0 0 1.00051 1268 136)"/><path d="M737.418 1399.26C737.418 1456.45 692.478 1501.39 635.282 1501.39 578.086 1501.39 533.147 1456.45 533.147 1399.26 533.147 1342.06 635.282 1194.98 635.282 1194.98 635.282 1194.98 737.418 1344.1 737.418 1399.26Z" fill="#8EAFC5" transform="matrix(1 0 0 1.00051 1268 136)"/><path d="M1677.06 919.219C1677.06 862.023 1652.55 808.912 1609.65 772.144 1566.76 735.375 1509.56 719.033 1452.37 729.247L1452.37 727.204C1452.37 649.581 1415.6 574.001 1350.23 529.061 1286.91 482.079 1205.2 469.823 1129.62 494.335 1066.29 375.858 929.432 314.577 798.699 347.26 667.966 377.901 574.001 494.335 571.958 629.154 482.079 612.812 390.157 647.538 335.004 719.033 277.808 790.528 265.552 886.535 302.321 970.286 339.09 1054.04 418.755 1109.19 510.677 1115.32L1491.18 1115.32C1597.4 1109.19 1677.06 1023.4 1677.06 919.219Z" fill="#8EAFC5" transform="matrix(1 0 0 1.00051 1268 136)"/><g clip-path="url(#clip1)"><g clip-path="url(#clip2)"><g clip-path="url(#clip3)"><path d="M2702.62 881.97C2698.03 881.97 2691.91 881.97 2687.32 881.97 2687.32 881.97 2687.32 881.97 2687.32 881.97 2687.32 806.989 2650.6 738.13 2590.92 695.284 2529.71 652.438 2451.67 641.727 2381.28 666.21 2323.13 552.975 2194.59 494.827 2072.18 523.901 1949.76 552.975 1861.01 663.15 1861.01 790.157 1861.01 790.157 1861.01 791.687 1861.01 793.218 1776.85 779.446 1692.69 814.641 1640.66 881.97 1590.16 950.829 1580.98 1041.11 1616.18 1117.62 1652.9 1194.13 1729.41 1244.63 1813.57 1249.22L1813.57 1250.75 2701.09 1250.75C2802.09 1250.75 2884.72 1168.12 2884.72 1067.12 2884.72 966.131 2803.62 881.97 2702.62 881.97Z" stroke="#D5D9D4" stroke-width="15.3021" fill="#D5D9D4"/></g></g></g></g></svg>