<svg width="1134" height="425" xmlns="http://www.w3.org/2000/svg" xmlns:xlink="http://www.w3.org/1999/xlink" xml:space="preserve" overflow="hidden"><defs><clipPath id="clip0"><rect x="1633" y="87" width="1134" height="425"/></clipPath><clipPath id="clip1"><rect x="1908" y="162" width="144" height="199"/></clipPath><clipPath id="clip2"><rect x="1908" y="162" width="144" height="199"/></clipPath><clipPath id="clip3"><rect x="1568" y="-328" width="822" height="819"/></clipPath><clipPath id="clip4"><rect x="2131" y="163" width="144" height="199"/></clipPath><clipPath id="clip5"><rect x="2131" y="163" width="144" height="199"/></clipPath><clipPath id="clip6"><rect x="1789" y="-327" width="827" height="819"/></clipPath></defs><g clip-path="url(#clip0)" transform="translate(-1633 -87)"><text fill="#D5D9D4" font-family="Inter Extra Bold,Inter Extra Bold_MSFontService,sans-serif" font-weight="800" font-size="202" transform="matrix(1 0 0 1 1754.56 342)">П</text><text fill="#D5D9D4" font-family="Inter Extra Bold,Inter Extra Bold_MSFontService,sans-serif" font-weight="800" font-size="202" transform="matrix(1 0 0 1 2042.16 342)">г</text><text fill="#D5D9D4" font-family="Inter Extra Bold,Inter Extra Bold_MSFontService,sans-serif" font-weight="800" font-size="202" transform="matrix(1 0 0 1 2267.32 342)">дка</text><g clip-path="url(#clip1)"><g clip-path="url(#clip2)"><g clip-path="url(#clip3)"><path d="M469.428 617.668C469.428 650.894 443.017 677.305 409.791 677.305 376.565 677.305 350.154 650.894 350.154 617.668 350.154 584.442 409.791 498.394 409.791 498.394 409.791 498.394 469.428 585.294 469.428 617.668Z" fill="#8EAFC5" transform="matrix(1.00393 0 0 1 1568.47 -327.171)"/><path d="M597.221 583.59C597.221 607.445 578.478 626.188 554.623 626.188 530.768 626.188 512.025 607.445 512.025 583.59 512.025 559.735 554.623 498.394 554.623 498.394 554.623 498.394 597.221 560.587 597.221 583.59Z" fill="#8EAFC5" transform="matrix(1.00393 0 0 1 1568.47 -327.171)"/><path d="M307.556 583.59C307.556 607.445 288.813 626.188 264.958 626.188 241.104 626.188 222.36 607.445 222.36 583.59 222.36 559.735 264.958 498.394 264.958 498.394 264.958 498.394 307.556 560.587 307.556 583.59Z" fill="#8EAFC5" transform="matrix(1.00393 0 0 1 1568.47 -327.171)"/><path d="M699.456 383.38C699.456 359.525 689.232 337.375 671.341 322.039 653.45 306.704 629.595 299.888 605.741 304.148L605.741 303.296C605.741 270.922 590.405 239.4 563.143 220.657 536.732 201.062 502.654 195.95 471.132 206.173 444.721 156.76 387.64 131.201 333.115 144.833 278.59 157.612 239.4 206.173 238.548 262.402 201.062 255.587 162.724 270.07 139.721 299.888 115.866 329.707 110.754 369.749 126.089 404.679 141.425 439.609 174.651 462.612 212.989 465.168L621.928 465.168C666.229 462.612 699.456 426.83 699.456 383.38Z" fill="#8EAFC5" transform="matrix(1.00393 0 0 1 1568.47 -327.171)"/></g></g></g><g clip-path="url(#clip4)"><g clip-path="url(#clip5)"><g clip-path="url(#clip6)"><path d="M469.428 617.668C469.428 650.894 443.017 677.305 409.791 677.305 376.565 677.305 350.154 650.894 350.154 617.668 350.154 584.442 409.791 498.394 409.791 498.394 409.791 498.394 469.428 585.294 469.428 617.668Z" fill="#8EAFC5" transform="matrix(1.011 0 0 1 1789.08 -326.17)"/><path d="M597.221 583.59C597.221 607.445 578.478 626.188 554.623 626.188 530.768 626.188 512.025 607.445 512.025 583.59 512.025 559.735 554.623 498.394 554.623 498.394 554.623 498.394 597.221 560.587 597.221 583.59Z" fill="#8EAFC5" transform="matrix(1.011 0 0 1 1789.08 -326.17)"/><path d="M307.556 583.59C307.556 607.445 288.813 626.188 264.958 626.188 241.104 626.188 222.36 607.445 222.36 583.59 222.36 559.735 264.958 498.394 264.958 498.394 264.958 498.394 307.556 560.587 307.556 583.59Z" fill="#8EAFC5" transform="matrix(1.011 0 0 1 1789.08 -326.17)"/><path d="M699.456 383.38C699.456 359.525 689.232 337.375 671.341 322.039 653.45 306.704 629.595 299.888 605.741 304.148L605.741 303.296C605.741 270.922 590.405 239.4 563.143 220.657 536.732 201.062 502.654 195.95 471.132 206.173 444.721 156.76 387.64 131.201 333.115 144.833 278.59 157.612 239.4 206.173 238.548 262.402 201.062 255.587 162.724 270.07 139.721 299.888 115.866 329.707 110.754 369.749 126.089 404.679 141.425 439.609 174.651 462.612 212.989 465.168L621.928 465.168C666.229 462.612 699.456 426.83 699.456 383.38Z" fill="#8EAFC5" transform="matrix(1.011 0 0 1 1789.08 -326.17)"/></g></g></g></g></svg>