<svg width="4155" height="2384" xmlns="http://www.w3.org/2000/svg" xmlns:xlink="http://www.w3.org/1999/xlink" xml:space="preserve" overflow="hidden"><defs><clipPath id="clip0"><rect x="43" y="91" width="4155" height="2384"/></clipPath><clipPath id="clip1"><rect x="42" y="1133" width="253" height="252"/></clipPath><clipPath id="clip2"><rect x="42" y="1133" width="253" height="252"/></clipPath><clipPath id="clip3"><rect x="42" y="1133" width="253" height="252"/></clipPath><clipPath id="clip4"><rect x="1180" y="216" width="252" height="252"/></clipPath><clipPath id="clip5"><rect x="1180" y="216" width="252" height="252"/></clipPath><clipPath id="clip6"><rect x="1180" y="216" width="252" height="252"/></clipPath><clipPath id="clip7"><rect x="679" y="1785" width="253" height="252"/></clipPath><clipPath id="clip8"><rect x="679" y="1785" width="253" height="252"/></clipPath><clipPath id="clip9"><rect x="679" y="1785" width="253" height="252"/></clipPath><clipPath id="clip10"><rect x="1553" y="1119" width="251" height="252"/></clipPath><clipPath id="clip11"><rect x="1553" y="1119" width="251" height="252"/></clipPath><clipPath id="clip12"><rect x="1553" y="1119" width="251" height="252"/></clipPath><clipPath id="clip13"><rect x="2399" y="91" width="252" height="253"/></clipPath><clipPath id="clip14"><rect x="2399" y="91" width="252" height="253"/></clipPath><clipPath id="clip15"><rect x="2399" y="91" width="252" height="253"/></clipPath><clipPath id="clip16"><rect x="1889" y="2224" width="252" height="251"/></clipPath><clipPath id="clip17"><rect x="1889" y="2224" width="252" height="251"/></clipPath><clipPath id="clip18"><rect x="1889" y="2224" width="252" height="251"/></clipPath><clipPath id="clip19"><rect x="2937" y="999" width="251" height="252"/></clipPath><clipPath id="clip20"><rect x="2937" y="999" width="251" height="252"/></clipPath><clipPath id="clip21"><rect x="2937" y="999" width="251" height="252"/></clipPath><clipPath id="clip22"><rect x="3945" y="425" width="253" height="252"/></clipPath><clipPath id="clip23"><rect x="3945" y="425" width="253" height="252"/></clipPath><clipPath id="clip24"><rect x="3945" y="425" width="253" height="252"/></clipPath><clipPath id="clip25"><rect x="3556" y="1942" width="253" height="253"/></clipPath><clipPath id="clip26"><rect x="3556" y="1942" width="253" height="253"/></clipPath><clipPath id="clip27"><rect x="3556" y="1942" width="253" height="253"/></clipPath></defs><g clip-path="url(#clip0)" transform="translate(-43 -91)"><g clip-path="url(#clip1)"><g clip-path="url(#clip2)"><g clip-path="url(#clip3)"><path d="M244.337 1296.54 232.525 1289.71 241.712 1287.35C244.6 1286.56 246.175 1283.68 245.387 1281.05 244.6 1278.43 241.712 1276.59 239.087 1277.38L219.662 1282.62 212.05 1278.16 235.675 1271.86C238.562 1271.07 240.137 1268.19 239.35 1265.56 238.562 1262.94 235.675 1261.1 233.05 1261.89L199.187 1270.81 189.212 1265.04C189.737 1263.2 190 1261.36 190 1259.53 190 1257.69 189.737 1255.59 189.212 1254.01L199.187 1248.24 233.05 1257.16C233.575 1257.16 233.837 1257.43 234.362 1257.43 236.725 1257.43 238.825 1255.85 239.35 1253.49 240.137 1250.6 238.562 1247.71 235.675 1247.19L212.05 1240.89 219.662 1236.43 239.087 1241.68C239.612 1241.68 239.875 1241.94 240.4 1241.94 242.762 1241.94 244.862 1240.36 245.387 1238 246.175 1235.11 244.6 1232.22 241.712 1231.7L232.525 1229.34 244.337 1222.51C246.962 1220.94 247.75 1217.79 246.175 1215.43 244.6 1212.8 241.45 1212.01 239.087 1213.59L227.275 1220.41 229.637 1211.22C230.425 1208.34 228.85 1205.45 225.962 1204.93 223.075 1204.14 220.187 1205.71 219.662 1208.6L214.412 1228.03 206.8 1232.49 213.1 1208.86C213.887 1205.97 212.312 1203.09 209.425 1202.56 206.537 1201.78 203.65 1203.35 203.125 1206.24L194.2 1240.1 184.225 1245.88C181.6 1243.25 178.187 1241.15 174.512 1240.36L174.512 1228.81 199.187 1204.14C201.287 1202.04 201.287 1198.89 199.187 1196.79 197.087 1194.69 193.937 1194.69 191.837 1196.79L174.25 1212.28 174.25 1203.61 188.425 1189.44C190.525 1187.34 190.525 1184.19 188.425 1182.09 186.325 1179.99 183.175 1179.99 181.075 1182.09L174.25 1188.65 174.25 1175C174.25 1172.11 171.887 1169.75 169 1169.75 166.112 1169.75 163.75 1172.11 163.75 1175L163.75 1188.65 156.925 1181.82C154.825 1179.72 151.675 1179.72 149.575 1181.82 147.475 1183.93 147.475 1187.07 149.575 1189.18L163.75 1203.35 163.75 1212.01 146.425 1194.69C144.325 1192.59 141.175 1192.59 139.075 1194.69 136.975 1196.79 136.975 1199.94 139.075 1202.04L163.75 1226.71 163.75 1238.26C160.075 1239.31 156.662 1241.15 154.037 1243.78L144.062 1238 134.875 1204.66C134.087 1201.78 131.2 1200.2 128.575 1200.99 125.687 1201.78 124.112 1204.66 124.9 1207.29L131.2 1230.91 123.587 1226.45 118.337 1207.03C117.55 1204.14 114.662 1202.56 112.037 1203.35 109.15 1204.14 107.575 1207.03 108.362 1209.65L110.725 1218.84 98.9125 1212.01C96.2875 1210.44 93.1375 1211.49 91.825 1213.85 90.25 1216.47 91.3 1219.62 93.6625 1220.94L105.475 1227.76 96.2875 1230.12C93.4 1230.91 91.825 1233.8 92.6125 1236.43 93.1375 1238.79 95.2375 1240.36 97.6 1240.36 98.125 1240.36 98.3875 1240.36 98.9125 1240.1L118.337 1234.85 125.95 1239.31 102.325 1245.61C99.4375 1246.4 97.8625 1249.29 98.65 1251.91 99.175 1254.28 101.275 1255.85 103.637 1255.85 104.162 1255.85 104.425 1255.85 104.95 1255.59L138.812 1246.66 148.787 1252.44C148.262 1255.06 148 1257.16 148 1259 148 1260.84 148.262 1262.94 148.787 1264.51L138.812 1270.29 104.95 1261.36C102.062 1260.57 99.175 1262.15 98.65 1265.04 98.125 1267.93 99.4375 1270.81 102.325 1271.34L125.95 1277.64 118.337 1282.1 98.9125 1276.85C96.025 1276.06 93.1375 1277.64 92.6125 1280.53 92.0875 1283.41 93.4 1286.3 96.2875 1286.82L105.475 1289.19 93.6625 1296.01C91.0375 1297.59 90.25 1300.74 91.825 1303.1 92.875 1304.68 94.45 1305.72 96.2875 1305.72 97.075 1305.72 98.125 1305.46 98.9125 1304.94L110.725 1298.11 108.362 1307.3C107.575 1310.19 109.15 1313.07 112.037 1313.6 112.562 1313.6 112.825 1313.86 113.35 1313.86 115.712 1313.86 117.812 1312.29 118.337 1309.93L123.587 1290.5 131.2 1286.04 124.9 1309.66C124.112 1312.55 125.687 1315.44 128.575 1315.96 129.1 1315.96 129.362 1316.22 129.887 1316.22 132.25 1316.22 134.35 1314.65 134.875 1312.29L143.8 1278.43 153.775 1272.65C156.4 1275.28 159.812 1277.38 163.487 1278.16L163.487 1289.71 138.812 1314.39C136.712 1316.49 136.712 1319.64 138.812 1321.74 140.912 1323.84 144.062 1323.84 146.162 1321.74L163.487 1304.41 163.487 1313.07 149.312 1327.25C147.212 1329.35 147.212 1332.5 149.312 1334.6 151.412 1336.7 154.562 1336.7 156.662 1334.6L163.487 1327.78 163.487 1343C163.487 1345.89 165.85 1348.25 168.737 1348.25 171.625 1348.25 173.987 1345.89 173.987 1343L173.987 1329.35 180.812 1336.18C182.125 1337.22 183.437 1337.75 184.75 1337.75 186.062 1337.75 187.375 1337.22 188.425 1336.18 190.525 1334.07 190.525 1330.93 188.425 1328.82L174.25 1314.65 174.25 1305.99 191.575 1323.31C192.625 1324.1 193.937 1324.62 195.25 1324.62 196.562 1324.62 197.875 1324.1 198.925 1323.05 201.025 1320.95 201.025 1317.8 198.925 1315.7L174.25 1291.03 174.25 1279.47C177.925 1278.43 181.337 1276.59 183.962 1273.96L193.937 1279.74 203.125 1313.34C203.65 1315.7 205.75 1317.28 208.112 1317.28 208.637 1317.28 208.9 1317.28 209.425 1317.01 212.312 1316.22 213.887 1313.34 213.1 1310.71L206.8 1287.09 214.412 1291.55 219.662 1310.97C220.187 1313.34 222.287 1314.91 224.65 1314.91 225.175 1314.91 225.437 1314.91 225.962 1314.65 228.85 1313.86 230.425 1310.97 229.637 1308.35L227.275 1299.16 239.087 1305.99C239.875 1306.51 240.925 1306.78 241.712 1306.78 243.55 1306.78 245.387 1305.72 246.175 1304.15 247.75 1301 246.962 1297.85 244.337 1296.54Z" fill="#8EAFC5"/></g></g></g><g clip-path="url(#clip4)"><g clip-path="url(#clip5)"><g clip-path="url(#clip6)"><path d="M1380.54 379.888 1368.77 373.09 1377.92 370.737C1380.8 369.953 1382.37 367.077 1381.58 364.462 1380.8 361.848 1377.92 360.018 1375.31 360.802L1355.96 366.031 1348.38 361.586 1371.91 355.311C1374.79 354.527 1376.36 351.651 1375.57 349.036 1374.79 346.422 1371.91 344.592 1369.3 345.376L1335.57 354.266 1325.63 348.513C1326.16 346.683 1326.42 344.853 1326.42 343.023 1326.42 341.193 1326.16 339.101 1325.63 337.532L1335.57 331.78 1369.3 340.67C1369.82 340.67 1370.08 340.931 1370.6 340.931 1372.96 340.931 1375.05 339.362 1375.57 337.009 1376.36 334.133 1374.79 331.257 1371.91 330.734L1348.38 324.459 1355.96 320.014 1375.31 325.244C1375.83 325.244 1376.09 325.505 1376.62 325.505 1378.97 325.505 1381.06 323.936 1381.58 321.583 1382.37 318.707 1380.8 315.831 1377.92 315.308L1368.77 312.955 1380.54 306.157C1383.15 304.588 1383.94 301.451 1382.37 299.098 1380.8 296.483 1377.66 295.699 1375.31 297.268L1363.54 304.065 1365.9 294.914C1366.68 292.038 1365.11 289.162 1362.24 288.639 1359.36 287.855 1356.48 289.424 1355.96 292.3L1350.73 311.648 1343.15 316.093 1349.43 292.561C1350.21 289.685 1348.64 286.809 1345.76 286.286 1342.89 285.502 1340.01 287.071 1339.49 289.947L1330.6 323.675 1320.66 329.427C1318.05 326.812 1314.65 324.721 1310.99 323.936L1310.99 312.432 1335.57 287.855C1337.66 285.763 1337.66 282.626 1335.57 280.534 1333.48 278.443 1330.34 278.443 1328.25 280.534L1310.73 295.96 1310.73 287.332 1324.85 273.213C1326.94 271.122 1326.94 267.984 1324.85 265.893 1322.76 263.801 1319.62 263.801 1317.53 265.893L1310.73 272.429 1310.73 258.833C1310.73 255.957 1308.38 253.604 1305.5 253.604 1302.62 253.604 1300.27 255.957 1300.27 258.833L1300.27 272.429 1293.47 265.631C1291.38 263.539 1288.24 263.539 1286.15 265.631 1284.06 267.723 1284.06 270.86 1286.15 272.952L1300.27 287.071 1300.27 295.699 1283.01 278.443C1280.92 276.351 1277.79 276.351 1275.69 278.443 1273.6 280.534 1273.6 283.672 1275.69 285.763L1300.27 310.341 1300.27 321.845C1296.61 322.891 1293.21 324.721 1290.6 327.335L1280.66 321.583 1271.51 288.378C1270.73 285.502 1267.85 283.933 1265.24 284.718 1262.36 285.502 1260.79 288.378 1261.58 290.993L1267.85 314.524 1260.27 310.079 1255.04 290.731C1254.25 287.855 1251.38 286.286 1248.76 287.071 1245.89 287.855 1244.32 290.731 1245.1 293.346L1247.46 302.497 1235.69 295.699C1233.08 294.13 1229.94 295.176 1228.63 297.529 1227.06 300.144 1228.11 303.281 1230.46 304.588L1242.23 311.386 1233.08 313.739C1230.2 314.524 1228.63 317.4 1229.42 320.014 1229.94 322.368 1232.03 323.936 1234.38 323.936 1234.91 323.936 1235.17 323.936 1235.69 323.675L1255.04 318.446 1262.62 322.891 1239.09 329.165C1236.21 329.95 1234.64 332.826 1235.43 335.44 1235.95 337.794 1238.04 339.362 1240.4 339.362 1240.92 339.362 1241.18 339.362 1241.7 339.101L1275.43 330.211 1285.37 335.963C1284.84 338.578 1284.58 340.67 1284.58 342.5 1284.58 344.33 1284.84 346.422 1285.37 347.99L1275.43 353.743 1241.7 344.853C1238.83 344.069 1235.95 345.637 1235.43 348.513 1234.91 351.389 1236.21 354.266 1239.09 354.788L1262.62 361.063 1255.04 365.508 1235.69 360.279C1232.81 359.495 1229.94 361.063 1229.42 363.939 1228.89 366.815 1230.2 369.692 1233.08 370.214L1242.23 372.568 1230.46 379.365C1227.85 380.934 1227.06 384.072 1228.63 386.425 1229.68 387.994 1231.25 389.039 1233.08 389.039 1233.86 389.039 1234.91 388.778 1235.69 388.255L1247.46 381.457 1245.1 390.608C1244.32 393.484 1245.89 396.36 1248.76 396.883 1249.29 396.883 1249.55 397.145 1250.07 397.145 1252.42 397.145 1254.52 395.576 1255.04 393.223L1260.27 373.875 1267.85 369.43 1261.58 392.961C1260.79 395.837 1262.36 398.713 1265.24 399.236 1265.76 399.236 1266.02 399.498 1266.54 399.498 1268.9 399.498 1270.99 397.929 1271.51 395.576L1280.4 361.848 1290.34 356.096C1292.95 358.71 1296.35 360.802 1300.01 361.586L1300.01 373.09 1275.43 397.668C1273.34 399.759 1273.34 402.897 1275.43 404.988 1277.52 407.08 1280.66 407.08 1282.75 404.988L1300.01 387.732 1300.01 396.36 1285.89 410.479C1283.8 412.571 1283.8 415.708 1285.89 417.8 1287.98 419.892 1291.12 419.892 1293.21 417.8L1300.01 411.002 1300.01 426.167C1300.01 429.043 1302.36 431.396 1305.24 431.396 1308.11 431.396 1310.47 429.043 1310.47 426.167L1310.47 412.571 1317.27 419.369C1318.57 420.414 1319.88 420.937 1321.19 420.937 1322.49 420.937 1323.8 420.414 1324.85 419.369 1326.94 417.277 1326.94 414.139 1324.85 412.048L1310.73 397.929 1310.73 389.301 1327.99 406.557C1329.03 407.342 1330.34 407.864 1331.65 407.864 1332.95 407.864 1334.26 407.342 1335.31 406.296 1337.4 404.204 1337.4 401.067 1335.31 398.975L1310.73 374.398 1310.73 362.894C1314.39 361.848 1317.79 360.018 1320.4 357.403L1330.34 363.155 1339.49 396.622C1340.01 398.975 1342.1 400.544 1344.46 400.544 1344.98 400.544 1345.24 400.544 1345.76 400.282 1348.64 399.498 1350.21 396.622 1349.43 394.007L1343.15 370.476 1350.73 374.921 1355.96 394.269C1356.48 396.622 1358.58 398.19 1360.93 398.19 1361.45 398.19 1361.71 398.19 1362.24 397.929 1365.11 397.145 1366.68 394.269 1365.9 391.654L1363.54 382.503 1375.31 389.301C1376.09 389.824 1377.14 390.085 1377.92 390.085 1379.75 390.085 1381.58 389.039 1382.37 387.471 1383.94 384.333 1383.15 381.196 1380.54 379.888Z" fill="#8EAFC5"/></g></g></g><g clip-path="url(#clip7)"><g clip-path="url(#clip8)"><g clip-path="url(#clip9)"><path d="M200.538 162.888 188.773 156.091 197.924 153.737C200.8 152.953 202.369 150.077 201.584 147.462 200.8 144.848 197.924 143.018 195.309 143.802L175.961 149.031 168.379 144.586 191.91 138.311C194.786 137.527 196.355 134.651 195.571 132.036 194.786 129.422 191.91 127.592 189.296 128.376L155.568 137.266 145.632 131.514C146.155 129.683 146.417 127.853 146.417 126.023 146.417 124.193 146.155 122.101 145.632 120.532L155.568 114.78 189.296 123.67C189.819 123.67 190.08 123.931 190.603 123.931 192.956 123.931 195.048 122.362 195.571 120.009 196.355 117.133 194.786 114.257 191.91 113.734L168.379 107.459 175.961 103.015 195.309 108.244C195.832 108.244 196.094 108.505 196.617 108.505 198.97 108.505 201.061 106.936 201.584 104.583 202.369 101.707 200.8 98.8312 197.924 98.3083L188.773 95.9552 200.538 89.1573C203.153 87.5885 203.937 84.451 202.369 82.0979 200.8 79.4833 197.662 78.6989 195.309 80.2677L183.544 87.0656 185.897 77.9146C186.681 75.0385 185.112 72.1625 182.236 71.6396 179.36 70.8552 176.484 72.4239 175.961 75.3L170.732 94.6479 163.15 99.0927 169.425 75.5614C170.209 72.6854 168.641 69.8094 165.765 69.2864 162.888 68.5021 160.012 70.0708 159.49 72.9469L150.6 106.675 140.665 112.427C138.05 109.812 134.651 107.721 130.991 106.936L130.991 95.4323 155.568 70.8552C157.659 68.7635 157.659 65.626 155.568 63.5344 153.476 61.4427 150.339 61.4427 148.247 63.5344L130.729 78.9604 130.729 70.3323 144.848 56.2135C146.94 54.1219 146.94 50.9844 144.848 48.8927 142.756 46.801 139.619 46.801 137.527 48.8927L130.729 55.4292 130.729 41.8333C130.729 38.9573 128.376 36.6042 125.5 36.6042 122.624 36.6042 120.271 38.9573 120.271 41.8333L120.271 55.4292 113.473 48.6312C111.381 46.5396 108.244 46.5396 106.152 48.6312 104.06 50.7229 104.06 53.8604 106.152 55.9521L120.271 70.0708 120.271 78.6989 103.015 61.4427C100.923 59.351 97.7854 59.351 95.6937 61.4427 93.6021 63.5344 93.6021 66.6719 95.6937 68.7635L120.271 93.3406 120.271 104.845C116.61 105.891 113.211 107.721 110.597 110.335L100.661 104.583 91.5104 71.3781C90.726 68.5021 87.85 66.9333 85.2354 67.7177 82.3594 68.5021 80.7906 71.3781 81.575 73.9927L87.85 97.5239 80.2677 93.0791 75.0385 73.7312C74.2541 70.8552 71.3781 69.2864 68.7635 70.0708 65.8875 70.8552 64.3187 73.7312 65.1031 76.3458L67.4562 85.4968 55.6906 78.6989C53.076 77.1302 49.9385 78.176 48.6312 80.5291 47.0625 83.1437 48.1083 86.2812 50.4614 87.5885L62.2271 94.3864 53.076 96.7396C50.2 97.5239 48.6312 100.4 49.4156 103.015 49.9385 105.368 52.0302 106.936 54.3833 106.936 54.9062 106.936 55.1677 106.936 55.6906 106.675L75.0385 101.446 82.6208 105.891 59.0896 112.166C56.2135 112.95 54.6448 115.826 55.4292 118.441 55.9521 120.794 58.0437 122.362 60.3969 122.362 60.9198 122.362 61.1812 122.362 61.7041 122.101L95.4323 113.211 105.368 118.964C104.845 121.578 104.583 123.67 104.583 125.5 104.583 127.33 104.845 129.422 105.368 130.991L95.4323 136.743 61.7041 127.853C58.8281 127.069 55.9521 128.637 55.4292 131.514 54.9062 134.39 56.2135 137.266 59.0896 137.788L82.6208 144.063 75.0385 148.508 55.6906 143.279C52.8146 142.495 49.9385 144.063 49.4156 146.94 48.8927 149.816 50.2 152.692 53.076 153.215L62.2271 155.568 50.4614 162.366C47.8469 163.934 47.0625 167.072 48.6312 169.425 49.6771 170.994 51.2458 172.04 53.076 172.04 53.8604 172.04 54.9062 171.778 55.6906 171.255L67.4562 164.457 65.1031 173.608C64.3187 176.484 65.8875 179.36 68.7635 179.883 69.2864 179.883 69.5479 180.145 70.0708 180.145 72.4239 180.145 74.5156 178.576 75.0385 176.223L80.2677 156.875 87.85 152.43 81.575 175.961C80.7906 178.837 82.3594 181.713 85.2354 182.236 85.7583 182.236 86.0198 182.498 86.5427 182.498 88.8958 182.498 90.9875 180.929 91.5104 178.576L100.4 144.848 110.335 139.096C112.95 141.71 116.349 143.802 120.009 144.586L120.009 156.091 95.4323 180.668C93.3406 182.759 93.3406 185.897 95.4323 187.988 97.5239 190.08 100.661 190.08 102.753 187.988L120.009 170.732 120.009 179.36 105.891 193.479C103.799 195.571 103.799 198.708 105.891 200.8 107.982 202.892 111.12 202.892 113.211 200.8L120.009 194.002 120.009 209.167C120.009 212.043 122.362 214.396 125.239 214.396 128.115 214.396 130.468 212.043 130.468 209.167L130.468 195.571 137.266 202.369C138.573 203.415 139.88 203.937 141.187 203.937 142.495 203.937 143.802 203.415 144.848 202.369 146.94 200.277 146.94 197.14 144.848 195.048L130.729 180.929 130.729 172.301 147.985 189.557C149.031 190.342 150.339 190.865 151.646 190.865 152.953 190.865 154.26 190.342 155.306 189.296 157.398 187.204 157.398 184.067 155.306 181.975L130.729 157.398 130.729 145.894C134.39 144.848 137.788 143.018 140.403 140.403L150.339 146.155 159.49 179.622C160.012 181.975 162.104 183.544 164.457 183.544 164.98 183.544 165.242 183.544 165.765 183.282 168.641 182.498 170.209 179.622 169.425 177.007L163.15 153.476 170.732 157.921 175.961 177.269C176.484 179.622 178.576 181.191 180.929 181.191 181.452 181.191 181.713 181.191 182.236 180.929 185.112 180.145 186.681 177.269 185.897 174.654L183.544 165.503 195.309 172.301C196.094 172.824 197.14 173.085 197.924 173.085 199.754 173.085 201.584 172.04 202.369 170.471 203.937 167.333 203.153 164.196 200.538 162.888Z" fill="#8EAFC5" transform="matrix(1.00398 0 0 1 680 1785)"/></g></g></g><g clip-path="url(#clip10)"><g clip-path="url(#clip11)"><g clip-path="url(#clip12)"><path d="M1753.54 1282.89 1741.77 1276.09 1750.92 1273.74C1753.8 1272.95 1755.37 1270.08 1754.58 1267.46 1753.8 1264.85 1750.92 1263.02 1748.31 1263.8L1728.96 1269.03 1721.38 1264.59 1744.91 1258.31C1747.79 1257.53 1749.36 1254.65 1748.57 1252.04 1747.79 1249.42 1744.91 1247.59 1742.3 1248.38L1708.57 1257.27 1698.63 1251.51C1699.16 1249.68 1699.42 1247.85 1699.42 1246.02 1699.42 1244.19 1699.16 1242.1 1698.63 1240.53L1708.57 1234.78 1742.3 1243.67C1742.82 1243.67 1743.08 1243.93 1743.6 1243.93 1745.96 1243.93 1748.05 1242.36 1748.57 1240.01 1749.36 1237.13 1747.79 1234.26 1744.91 1233.73L1721.38 1227.46 1728.96 1223.01 1748.31 1228.24C1748.83 1228.24 1749.09 1228.51 1749.62 1228.51 1751.97 1228.51 1754.06 1226.94 1754.58 1224.58 1755.37 1221.71 1753.8 1218.83 1750.92 1218.31L1741.77 1215.96 1753.54 1209.16C1756.15 1207.59 1756.94 1204.45 1755.37 1202.1 1753.8 1199.48 1750.66 1198.7 1748.31 1200.27L1736.54 1207.07 1738.9 1197.91C1739.68 1195.04 1738.11 1192.16 1735.24 1191.64 1732.36 1190.86 1729.48 1192.42 1728.96 1195.3L1723.73 1214.65 1716.15 1219.09 1722.43 1195.56C1723.21 1192.69 1721.64 1189.81 1718.76 1189.29 1715.89 1188.5 1713.01 1190.07 1712.49 1192.95L1703.6 1226.67 1693.66 1232.43C1691.05 1229.81 1687.65 1227.72 1683.99 1226.94L1683.99 1215.43 1708.57 1190.86C1710.66 1188.76 1710.66 1185.63 1708.57 1183.53 1706.48 1181.44 1703.34 1181.44 1701.25 1183.53L1683.73 1198.96 1683.73 1190.33 1697.85 1176.21C1699.94 1174.12 1699.94 1170.98 1697.85 1168.89 1695.76 1166.8 1692.62 1166.8 1690.53 1168.89L1683.73 1175.43 1683.73 1161.83C1683.73 1158.96 1681.38 1156.6 1678.5 1156.6 1675.62 1156.6 1673.27 1158.96 1673.27 1161.83L1673.27 1175.43 1666.47 1168.63C1664.38 1166.54 1661.24 1166.54 1659.15 1168.63 1657.06 1170.72 1657.06 1173.86 1659.15 1175.95L1673.27 1190.07 1673.27 1198.7 1656.01 1181.44C1653.92 1179.35 1650.79 1179.35 1648.69 1181.44 1646.6 1183.53 1646.6 1186.67 1648.69 1188.76L1673.27 1213.34 1673.27 1224.84C1669.61 1225.89 1666.21 1227.72 1663.6 1230.34L1653.66 1224.58 1644.51 1191.38C1643.73 1188.5 1640.85 1186.93 1638.24 1187.72 1635.36 1188.5 1633.79 1191.38 1634.58 1193.99L1640.85 1217.52 1633.27 1213.08 1628.04 1193.73C1627.25 1190.86 1624.38 1189.29 1621.76 1190.07 1618.89 1190.86 1617.32 1193.73 1618.1 1196.35L1620.46 1205.5 1608.69 1198.7C1606.08 1197.13 1602.94 1198.18 1601.63 1200.53 1600.06 1203.14 1601.11 1206.28 1603.46 1207.59L1615.23 1214.39 1606.08 1216.74C1603.2 1217.52 1601.63 1220.4 1602.42 1223.01 1602.94 1225.37 1605.03 1226.94 1607.38 1226.94 1607.91 1226.94 1608.17 1226.94 1608.69 1226.67L1628.04 1221.45 1635.62 1225.89 1612.09 1232.17C1609.21 1232.95 1607.64 1235.83 1608.43 1238.44 1608.95 1240.79 1611.04 1242.36 1613.4 1242.36 1613.92 1242.36 1614.18 1242.36 1614.7 1242.1L1648.43 1233.21 1658.37 1238.96C1657.84 1241.58 1657.58 1243.67 1657.58 1245.5 1657.58 1247.33 1657.84 1249.42 1658.37 1250.99L1648.43 1256.74 1614.7 1247.85C1611.83 1247.07 1608.95 1248.64 1608.43 1251.51 1607.91 1254.39 1609.21 1257.27 1612.09 1257.79L1635.62 1264.06 1628.04 1268.51 1608.69 1263.28C1605.81 1262.49 1602.94 1264.06 1602.42 1266.94 1601.89 1269.82 1603.2 1272.69 1606.08 1273.21L1615.23 1275.57 1603.46 1282.37C1600.85 1283.93 1600.06 1287.07 1601.63 1289.42 1602.68 1290.99 1604.25 1292.04 1606.08 1292.04 1606.86 1292.04 1607.91 1291.78 1608.69 1291.26L1620.46 1284.46 1618.1 1293.61C1617.32 1296.48 1618.89 1299.36 1621.76 1299.88 1622.29 1299.88 1622.55 1300.14 1623.07 1300.14 1625.42 1300.14 1627.52 1298.58 1628.04 1296.22L1633.27 1276.87 1640.85 1272.43 1634.58 1295.96C1633.79 1298.84 1635.36 1301.71 1638.24 1302.24 1638.76 1302.24 1639.02 1302.5 1639.54 1302.5 1641.9 1302.5 1643.99 1300.93 1644.51 1298.58L1653.4 1264.85 1663.34 1259.1C1665.95 1261.71 1669.35 1263.8 1673.01 1264.59L1673.01 1276.09 1648.43 1300.67C1646.34 1302.76 1646.34 1305.9 1648.43 1307.99 1650.52 1310.08 1653.66 1310.08 1655.75 1307.99L1673.01 1290.73 1673.01 1299.36 1658.89 1313.48C1656.8 1315.57 1656.8 1318.71 1658.89 1320.8 1660.98 1322.89 1664.12 1322.89 1666.21 1320.8L1673.01 1314 1673.01 1329.17C1673.01 1332.04 1675.36 1334.4 1678.24 1334.4 1681.11 1334.4 1683.47 1332.04 1683.47 1329.17L1683.47 1315.57 1690.27 1322.37C1691.57 1323.41 1692.88 1323.94 1694.19 1323.94 1695.49 1323.94 1696.8 1323.41 1697.85 1322.37 1699.94 1320.28 1699.94 1317.14 1697.85 1315.05L1683.73 1300.93 1683.73 1292.3 1700.99 1309.56C1702.03 1310.34 1703.34 1310.86 1704.65 1310.86 1705.95 1310.86 1707.26 1310.34 1708.31 1309.3 1710.4 1307.2 1710.4 1304.07 1708.31 1301.97L1683.73 1277.4 1683.73 1265.89C1687.39 1264.85 1690.79 1263.02 1693.4 1260.4L1703.34 1266.16 1712.49 1299.62C1713.01 1301.97 1715.1 1303.54 1717.46 1303.54 1717.98 1303.54 1718.24 1303.54 1718.76 1303.28 1721.64 1302.5 1723.21 1299.62 1722.43 1297.01L1716.15 1273.48 1723.73 1277.92 1728.96 1297.27C1729.48 1299.62 1731.58 1301.19 1733.93 1301.19 1734.45 1301.19 1734.71 1301.19 1735.24 1300.93 1738.11 1300.14 1739.68 1297.27 1738.9 1294.65L1736.54 1285.5 1748.31 1292.3C1749.09 1292.82 1750.14 1293.09 1750.92 1293.09 1752.75 1293.09 1754.58 1292.04 1755.37 1290.47 1756.94 1287.33 1756.15 1284.2 1753.54 1282.89Z" fill="#8EAFC5"/></g></g></g><g clip-path="url(#clip13)"><g clip-path="url(#clip14)"><g clip-path="url(#clip15)"><path d="M2600.34 254.538 2588.52 247.713 2597.71 245.35C2600.6 244.563 2602.18 241.675 2601.39 239.05 2600.6 236.425 2597.71 234.588 2595.09 235.375L2575.66 240.625 2568.05 236.163 2591.68 229.863C2594.56 229.075 2596.14 226.188 2595.35 223.563 2594.56 220.938 2591.68 219.1 2589.05 219.888L2555.19 228.813 2545.21 223.038C2545.74 221.2 2546 219.363 2546 217.525 2546 215.688 2545.74 213.588 2545.21 212.013L2555.19 206.238 2589.05 215.163C2589.57 215.163 2589.84 215.425 2590.36 215.425 2592.73 215.425 2594.82 213.85 2595.35 211.488 2596.14 208.6 2594.56 205.713 2591.68 205.188L2568.05 198.888 2575.66 194.425 2595.09 199.675C2595.61 199.675 2595.88 199.938 2596.4 199.938 2598.76 199.938 2600.86 198.363 2601.39 196 2602.18 193.113 2600.6 190.225 2597.71 189.7L2588.52 187.338 2600.34 180.513C2602.96 178.938 2603.75 175.788 2602.18 173.425 2600.6 170.8 2597.45 170.013 2595.09 171.588L2583.27 178.413 2585.64 169.225C2586.43 166.338 2584.85 163.45 2581.96 162.925 2579.07 162.138 2576.19 163.713 2575.66 166.6L2570.41 186.025 2562.8 190.488 2569.1 166.863C2569.89 163.975 2568.31 161.088 2565.43 160.563 2562.54 159.775 2559.65 161.35 2559.12 164.238L2550.2 198.1 2540.23 203.875C2537.6 201.25 2534.19 199.15 2530.51 198.363L2530.51 186.813 2555.19 162.138C2557.29 160.038 2557.29 156.888 2555.19 154.788 2553.09 152.688 2549.94 152.688 2547.84 154.788L2530.25 170.275 2530.25 161.613 2544.43 147.438C2546.52 145.338 2546.52 142.188 2544.43 140.088 2542.32 137.988 2539.18 137.988 2537.07 140.088L2530.25 146.65 2530.25 133C2530.25 130.113 2527.89 127.75 2525 127.75 2522.11 127.75 2519.75 130.113 2519.75 133L2519.75 146.65 2512.93 139.825C2510.82 137.725 2507.68 137.725 2505.57 139.825 2503.48 141.925 2503.48 145.075 2505.57 147.175L2519.75 161.35 2519.75 170.013 2502.43 152.688C2500.32 150.588 2497.18 150.588 2495.07 152.688 2492.98 154.788 2492.98 157.938 2495.07 160.038L2519.75 184.713 2519.75 196.263C2516.07 197.313 2512.66 199.15 2510.04 201.775L2500.06 196 2490.88 162.663C2490.09 159.775 2487.2 158.2 2484.57 158.988 2481.69 159.775 2480.11 162.663 2480.9 165.288L2487.2 188.913 2479.59 184.45 2474.34 165.025C2473.55 162.138 2470.66 160.563 2468.04 161.35 2465.15 162.138 2463.57 165.025 2464.36 167.65L2466.73 176.838 2454.91 170.013C2452.29 168.438 2449.14 169.488 2447.82 171.85 2446.25 174.475 2447.3 177.625 2449.66 178.938L2461.48 185.763 2452.29 188.125C2449.4 188.913 2447.82 191.8 2448.61 194.425 2449.14 196.788 2451.24 198.363 2453.6 198.363 2454.12 198.363 2454.39 198.363 2454.91 198.1L2474.34 192.85 2481.95 197.313 2458.32 203.613C2455.44 204.4 2453.86 207.288 2454.65 209.913 2455.18 212.275 2457.27 213.85 2459.64 213.85 2460.16 213.85 2460.43 213.85 2460.95 213.588L2494.81 204.663 2504.79 210.438C2504.26 213.063 2504 215.163 2504 217 2504 218.838 2504.26 220.938 2504.79 222.513L2494.81 228.288 2460.95 219.363C2458.06 218.575 2455.18 220.15 2454.65 223.038 2454.12 225.925 2455.44 228.813 2458.32 229.338L2481.95 235.638 2474.34 240.1 2454.91 234.85C2452.02 234.063 2449.14 235.638 2448.61 238.525 2448.09 241.413 2449.4 244.3 2452.29 244.825L2461.48 247.188 2449.66 254.013C2447.04 255.588 2446.25 258.738 2447.82 261.1 2448.88 262.675 2450.45 263.725 2452.29 263.725 2453.07 263.725 2454.12 263.463 2454.91 262.938L2466.73 256.113 2464.36 265.3C2463.57 268.188 2465.15 271.075 2468.04 271.6 2468.56 271.6 2468.82 271.863 2469.35 271.863 2471.71 271.863 2473.81 270.288 2474.34 267.925L2479.59 248.5 2487.2 244.038 2480.9 267.663C2480.11 270.55 2481.69 273.438 2484.57 273.963 2485.1 273.963 2485.36 274.225 2485.89 274.225 2488.25 274.225 2490.35 272.65 2490.88 270.288L2499.8 236.425 2509.77 230.65C2512.4 233.275 2515.81 235.375 2519.49 236.163L2519.49 247.713 2494.81 272.388C2492.71 274.488 2492.71 277.638 2494.81 279.738 2496.91 281.838 2500.06 281.838 2502.16 279.738L2519.49 262.413 2519.49 271.075 2505.31 285.25C2503.21 287.35 2503.21 290.5 2505.31 292.6 2507.41 294.7 2510.56 294.7 2512.66 292.6L2519.49 285.775 2519.49 301C2519.49 303.888 2521.85 306.25 2524.74 306.25 2527.62 306.25 2529.99 303.888 2529.99 301L2529.99 287.35 2536.81 294.175C2538.12 295.225 2539.44 295.75 2540.75 295.75 2542.06 295.75 2543.38 295.225 2544.43 294.175 2546.52 292.075 2546.52 288.925 2544.43 286.825L2530.25 272.65 2530.25 263.988 2547.57 281.313C2548.62 282.1 2549.94 282.625 2551.25 282.625 2552.56 282.625 2553.88 282.1 2554.93 281.05 2557.02 278.95 2557.02 275.8 2554.93 273.7L2530.25 249.025 2530.25 237.475C2533.93 236.425 2537.34 234.588 2539.96 231.963L2549.94 237.738 2559.12 271.338C2559.65 273.7 2561.75 275.275 2564.11 275.275 2564.64 275.275 2564.9 275.275 2565.43 275.013 2568.31 274.225 2569.89 271.338 2569.1 268.713L2562.8 245.088 2570.41 249.55 2575.66 268.975C2576.19 271.338 2578.29 272.913 2580.65 272.913 2581.18 272.913 2581.44 272.913 2581.96 272.65 2584.85 271.863 2586.43 268.975 2585.64 266.35L2583.27 257.163 2595.09 263.988C2595.88 264.513 2596.93 264.775 2597.71 264.775 2599.55 264.775 2601.39 263.725 2602.18 262.15 2603.75 259 2602.96 255.85 2600.34 254.538Z" fill="#8EAFC5"/></g></g></g><g clip-path="url(#clip16)"><g clip-path="url(#clip17)"><g clip-path="url(#clip18)"><path d="M2090.54 2386.89 2078.77 2380.09 2087.92 2377.74C2090.8 2376.95 2092.37 2374.08 2091.58 2371.46 2090.8 2368.85 2087.92 2367.02 2085.31 2367.8L2065.96 2373.03 2058.38 2368.59 2081.91 2362.31C2084.79 2361.53 2086.35 2358.65 2085.57 2356.04 2084.79 2353.42 2081.91 2351.59 2079.3 2352.38L2045.57 2361.27 2035.63 2355.51C2036.16 2353.68 2036.42 2351.85 2036.42 2350.02 2036.42 2348.19 2036.16 2346.1 2035.63 2344.53L2045.57 2338.78 2079.3 2347.67C2079.82 2347.67 2080.08 2347.93 2080.6 2347.93 2082.96 2347.93 2085.05 2346.36 2085.57 2344.01 2086.35 2341.13 2084.79 2338.26 2081.91 2337.73L2058.38 2331.46 2065.96 2327.01 2085.31 2332.24C2085.83 2332.24 2086.09 2332.51 2086.62 2332.51 2088.97 2332.51 2091.06 2330.94 2091.58 2328.58 2092.37 2325.71 2090.8 2322.83 2087.92 2322.31L2078.77 2319.96 2090.54 2313.16C2093.15 2311.59 2093.94 2308.45 2092.37 2306.1 2090.8 2303.48 2087.66 2302.7 2085.31 2304.27L2073.54 2311.07 2075.9 2301.91C2076.68 2299.04 2075.11 2296.16 2072.24 2295.64 2069.36 2294.86 2066.48 2296.42 2065.96 2299.3L2060.73 2318.65 2053.15 2323.09 2059.42 2299.56C2060.21 2296.69 2058.64 2293.81 2055.76 2293.29 2052.89 2292.5 2050.01 2294.07 2049.49 2296.95L2040.6 2330.68 2030.66 2336.43C2028.05 2333.81 2024.65 2331.72 2020.99 2330.94L2020.99 2319.43 2045.57 2294.86C2047.66 2292.76 2047.66 2289.63 2045.57 2287.53 2043.48 2285.44 2040.34 2285.44 2038.25 2287.53L2020.73 2302.96 2020.73 2294.33 2034.85 2280.21C2036.94 2278.12 2036.94 2274.98 2034.85 2272.89 2032.76 2270.8 2029.62 2270.8 2027.53 2272.89L2020.73 2279.43 2020.73 2265.83C2020.73 2262.96 2018.38 2260.6 2015.5 2260.6 2012.62 2260.6 2010.27 2262.96 2010.27 2265.83L2010.27 2279.43 2003.47 2272.63C2001.38 2270.54 1998.24 2270.54 1996.15 2272.63 1994.06 2274.72 1994.06 2277.86 1996.15 2279.95L2010.27 2294.07 2010.27 2302.7 1993.01 2285.44C1990.92 2283.35 1987.79 2283.35 1985.69 2285.44 1983.6 2287.53 1983.6 2290.67 1985.69 2292.76L2010.27 2317.34 2010.27 2328.84C2006.61 2329.89 2003.21 2331.72 2000.6 2334.34L1990.66 2328.58 1981.51 2295.38C1980.73 2292.5 1977.85 2290.93 1975.24 2291.72 1972.36 2292.5 1970.79 2295.38 1971.57 2297.99L1977.85 2321.52 1970.27 2317.08 1965.04 2297.73C1964.25 2294.86 1961.38 2293.29 1958.76 2294.07 1955.89 2294.86 1954.32 2297.73 1955.1 2300.35L1957.46 2309.5 1945.69 2302.7C1943.08 2301.13 1939.94 2302.18 1938.63 2304.53 1937.06 2307.14 1938.11 2310.28 1940.46 2311.59L1952.23 2318.39 1943.08 2320.74C1940.2 2321.52 1938.63 2324.4 1939.42 2327.01 1939.94 2329.37 1942.03 2330.94 1944.38 2330.94 1944.91 2330.94 1945.17 2330.94 1945.69 2330.68L1965.04 2325.45 1972.62 2329.89 1949.09 2336.17C1946.21 2336.95 1944.64 2339.83 1945.43 2342.44 1945.95 2344.79 1948.04 2346.36 1950.4 2346.36 1950.92 2346.36 1951.18 2346.36 1951.7 2346.1L1985.43 2337.21 1995.37 2342.96C1994.84 2345.58 1994.58 2347.67 1994.58 2349.5 1994.58 2351.33 1994.84 2353.42 1995.37 2354.99L1985.43 2360.74 1951.7 2351.85C1948.83 2351.07 1945.95 2352.64 1945.43 2355.51 1944.91 2358.39 1946.21 2361.27 1949.09 2361.79L1972.62 2368.06 1965.04 2372.51 1945.69 2367.28C1942.81 2366.49 1939.94 2368.06 1939.42 2370.94 1938.89 2373.82 1940.2 2376.69 1943.08 2377.21L1952.23 2379.57 1940.46 2386.37C1937.85 2387.93 1937.06 2391.07 1938.63 2393.43 1939.68 2394.99 1941.25 2396.04 1943.08 2396.04 1943.86 2396.04 1944.91 2395.78 1945.69 2395.26L1957.46 2388.46 1955.1 2397.61C1954.32 2400.48 1955.89 2403.36 1958.76 2403.88 1959.29 2403.88 1959.55 2404.14 1960.07 2404.14 1962.42 2404.14 1964.52 2402.58 1965.04 2400.22L1970.27 2380.88 1977.85 2376.43 1971.57 2399.96C1970.79 2402.84 1972.36 2405.71 1975.24 2406.24 1975.76 2406.24 1976.02 2406.5 1976.54 2406.5 1978.9 2406.5 1980.99 2404.93 1981.51 2402.58L1990.4 2368.85 2000.34 2363.1C2002.95 2365.71 2006.35 2367.8 2010.01 2368.59L2010.01 2380.09 1985.43 2404.67C1983.34 2406.76 1983.34 2409.9 1985.43 2411.99 1987.52 2414.08 1990.66 2414.08 1992.75 2411.99L2010.01 2394.73 2010.01 2403.36 1995.89 2417.48C1993.8 2419.57 1993.8 2422.71 1995.89 2424.8 1997.98 2426.89 2001.12 2426.89 2003.21 2424.8L2010.01 2418 2010.01 2433.17C2010.01 2436.04 2012.36 2438.4 2015.24 2438.4 2018.11 2438.4 2020.47 2436.04 2020.47 2433.17L2020.47 2419.57 2027.27 2426.37C2028.57 2427.41 2029.88 2427.94 2031.19 2427.94 2032.49 2427.94 2033.8 2427.41 2034.85 2426.37 2036.94 2424.28 2036.94 2421.14 2034.85 2419.05L2020.73 2404.93 2020.73 2396.3 2037.99 2413.56C2039.03 2414.34 2040.34 2414.86 2041.65 2414.86 2042.95 2414.86 2044.26 2414.34 2045.31 2413.3 2047.4 2411.2 2047.4 2408.07 2045.31 2405.97L2020.73 2381.4 2020.73 2369.89C2024.39 2368.85 2027.79 2367.02 2030.4 2364.4L2040.34 2370.16 2049.49 2403.62C2050.01 2405.97 2052.1 2407.54 2054.46 2407.54 2054.98 2407.54 2055.24 2407.54 2055.76 2407.28 2058.64 2406.5 2060.21 2403.62 2059.42 2401.01L2053.15 2377.48 2060.73 2381.92 2065.96 2401.27C2066.48 2403.62 2068.58 2405.19 2070.93 2405.19 2071.45 2405.19 2071.71 2405.19 2072.24 2404.93 2075.11 2404.14 2076.68 2401.27 2075.9 2398.65L2073.54 2389.5 2085.31 2396.3C2086.09 2396.82 2087.14 2397.09 2087.92 2397.09 2089.75 2397.09 2091.58 2396.04 2092.37 2394.47 2093.94 2391.33 2093.15 2388.2 2090.54 2386.89Z" fill="#8EAFC5"/></g></g></g><g clip-path="url(#clip19)"><g clip-path="url(#clip20)"><g clip-path="url(#clip21)"><path d="M3137.54 1162.89 3125.77 1156.09 3134.92 1153.74C3137.8 1152.95 3139.37 1150.08 3138.58 1147.46 3137.8 1144.85 3134.92 1143.02 3132.31 1143.8L3112.96 1149.03 3105.38 1144.59 3128.91 1138.31C3131.79 1137.53 3133.36 1134.65 3132.57 1132.04 3131.79 1129.42 3128.91 1127.59 3126.3 1128.38L3092.57 1137.27 3082.63 1131.51C3083.16 1129.68 3083.42 1127.85 3083.42 1126.02 3083.42 1124.19 3083.16 1122.1 3082.63 1120.53L3092.57 1114.78 3126.3 1123.67C3126.82 1123.67 3127.08 1123.93 3127.6 1123.93 3129.96 1123.93 3132.05 1122.36 3132.57 1120.01 3133.36 1117.13 3131.79 1114.26 3128.91 1113.73L3105.38 1107.46 3112.96 1103.01 3132.31 1108.24C3132.83 1108.24 3133.09 1108.51 3133.62 1108.51 3135.97 1108.51 3138.06 1106.94 3138.58 1104.58 3139.37 1101.71 3137.8 1098.83 3134.92 1098.31L3125.77 1095.96 3137.54 1089.16C3140.15 1087.59 3140.94 1084.45 3139.37 1082.1 3137.8 1079.48 3134.66 1078.7 3132.31 1080.27L3120.54 1087.07 3122.9 1077.91C3123.68 1075.04 3122.11 1072.16 3119.24 1071.64 3116.36 1070.86 3113.48 1072.42 3112.96 1075.3L3107.73 1094.65 3100.15 1099.09 3106.43 1075.56C3107.21 1072.69 3105.64 1069.81 3102.76 1069.29 3099.89 1068.5 3097.01 1070.07 3096.49 1072.95L3087.6 1106.67 3077.66 1112.43C3075.05 1109.81 3071.65 1107.72 3067.99 1106.94L3067.99 1095.43 3092.57 1070.86C3094.66 1068.76 3094.66 1065.63 3092.57 1063.53 3090.48 1061.44 3087.34 1061.44 3085.25 1063.53L3067.73 1078.96 3067.73 1070.33 3081.85 1056.21C3083.94 1054.12 3083.94 1050.98 3081.85 1048.89 3079.76 1046.8 3076.62 1046.8 3074.53 1048.89L3067.73 1055.43 3067.73 1041.83C3067.73 1038.96 3065.38 1036.6 3062.5 1036.6 3059.62 1036.6 3057.27 1038.96 3057.27 1041.83L3057.27 1055.43 3050.47 1048.63C3048.38 1046.54 3045.24 1046.54 3043.15 1048.63 3041.06 1050.72 3041.06 1053.86 3043.15 1055.95L3057.27 1070.07 3057.27 1078.7 3040.01 1061.44C3037.92 1059.35 3034.79 1059.35 3032.69 1061.44 3030.6 1063.53 3030.6 1066.67 3032.69 1068.76L3057.27 1093.34 3057.27 1104.84C3053.61 1105.89 3050.21 1107.72 3047.6 1110.34L3037.66 1104.58 3028.51 1071.38C3027.73 1068.5 3024.85 1066.93 3022.24 1067.72 3019.36 1068.5 3017.79 1071.38 3018.57 1073.99L3024.85 1097.52 3017.27 1093.08 3012.04 1073.73C3011.25 1070.86 3008.38 1069.29 3005.76 1070.07 3002.89 1070.86 3001.32 1073.73 3002.1 1076.35L3004.46 1085.5 2992.69 1078.7C2990.08 1077.13 2986.94 1078.18 2985.63 1080.53 2984.06 1083.14 2985.11 1086.28 2987.46 1087.59L2999.23 1094.39 2990.08 1096.74C2987.2 1097.52 2985.63 1100.4 2986.42 1103.01 2986.94 1105.37 2989.03 1106.94 2991.38 1106.94 2991.91 1106.94 2992.17 1106.94 2992.69 1106.67L3012.04 1101.45 3019.62 1105.89 2996.09 1112.17C2993.21 1112.95 2991.64 1115.83 2992.43 1118.44 2992.95 1120.79 2995.04 1122.36 2997.4 1122.36 2997.92 1122.36 2998.18 1122.36 2998.7 1122.1L3032.43 1113.21 3042.37 1118.96C3041.84 1121.58 3041.58 1123.67 3041.58 1125.5 3041.58 1127.33 3041.84 1129.42 3042.37 1130.99L3032.43 1136.74 2998.7 1127.85C2995.83 1127.07 2992.95 1128.64 2992.43 1131.51 2991.91 1134.39 2993.21 1137.27 2996.09 1137.79L3019.62 1144.06 3012.04 1148.51 2992.69 1143.28C2989.81 1142.49 2986.94 1144.06 2986.42 1146.94 2985.89 1149.82 2987.2 1152.69 2990.08 1153.21L2999.23 1155.57 2987.46 1162.37C2984.85 1163.93 2984.06 1167.07 2985.63 1169.42 2986.68 1170.99 2988.25 1172.04 2990.08 1172.04 2990.86 1172.04 2991.91 1171.78 2992.69 1171.26L3004.46 1164.46 3002.1 1173.61C3001.32 1176.48 3002.89 1179.36 3005.76 1179.88 3006.29 1179.88 3006.55 1180.14 3007.07 1180.14 3009.42 1180.14 3011.52 1178.58 3012.04 1176.22L3017.27 1156.87 3024.85 1152.43 3018.57 1175.96C3017.79 1178.84 3019.36 1181.71 3022.24 1182.24 3022.76 1182.24 3023.02 1182.5 3023.54 1182.5 3025.9 1182.5 3027.99 1180.93 3028.51 1178.58L3037.4 1144.85 3047.34 1139.1C3049.95 1141.71 3053.35 1143.8 3057.01 1144.59L3057.01 1156.09 3032.43 1180.67C3030.34 1182.76 3030.34 1185.9 3032.43 1187.99 3034.52 1190.08 3037.66 1190.08 3039.75 1187.99L3057.01 1170.73 3057.01 1179.36 3042.89 1193.48C3040.8 1195.57 3040.8 1198.71 3042.89 1200.8 3044.98 1202.89 3048.12 1202.89 3050.21 1200.8L3057.01 1194 3057.01 1209.17C3057.01 1212.04 3059.36 1214.4 3062.24 1214.4 3065.11 1214.4 3067.47 1212.04 3067.47 1209.17L3067.47 1195.57 3074.27 1202.37C3075.57 1203.41 3076.88 1203.94 3078.19 1203.94 3079.49 1203.94 3080.8 1203.41 3081.85 1202.37 3083.94 1200.28 3083.94 1197.14 3081.85 1195.05L3067.73 1180.93 3067.73 1172.3 3084.99 1189.56C3086.03 1190.34 3087.34 1190.86 3088.65 1190.86 3089.95 1190.86 3091.26 1190.34 3092.31 1189.3 3094.4 1187.2 3094.4 1184.07 3092.31 1181.97L3067.73 1157.4 3067.73 1145.89C3071.39 1144.85 3074.79 1143.02 3077.4 1140.4L3087.34 1146.16 3096.49 1179.62C3097.01 1181.97 3099.1 1183.54 3101.46 1183.54 3101.98 1183.54 3102.24 1183.54 3102.76 1183.28 3105.64 1182.5 3107.21 1179.62 3106.43 1177.01L3100.15 1153.48 3107.73 1157.92 3112.96 1177.27C3113.48 1179.62 3115.58 1181.19 3117.93 1181.19 3118.45 1181.19 3118.71 1181.19 3119.24 1180.93 3122.11 1180.14 3123.68 1177.27 3122.9 1174.65L3120.54 1165.5 3132.31 1172.3C3133.09 1172.82 3134.14 1173.09 3134.92 1173.09 3136.75 1173.09 3138.58 1172.04 3139.37 1170.47 3140.94 1167.33 3140.15 1164.2 3137.54 1162.89Z" fill="#8EAFC5"/></g></g></g><g clip-path="url(#clip22)"><g clip-path="url(#clip23)"><g clip-path="url(#clip24)"><path d="M200.538 162.888 188.773 156.091 197.924 153.737C200.8 152.953 202.369 150.077 201.584 147.462 200.8 144.848 197.924 143.018 195.309 143.802L175.961 149.031 168.379 144.586 191.91 138.311C194.786 137.527 196.355 134.651 195.571 132.036 194.786 129.422 191.91 127.592 189.296 128.376L155.568 137.266 145.632 131.514C146.155 129.683 146.417 127.853 146.417 126.023 146.417 124.193 146.155 122.101 145.632 120.532L155.568 114.78 189.296 123.67C189.819 123.67 190.08 123.931 190.603 123.931 192.956 123.931 195.048 122.362 195.571 120.009 196.355 117.133 194.786 114.257 191.91 113.734L168.379 107.459 175.961 103.015 195.309 108.244C195.832 108.244 196.094 108.505 196.617 108.505 198.97 108.505 201.061 106.936 201.584 104.583 202.369 101.707 200.8 98.8312 197.924 98.3083L188.773 95.9552 200.538 89.1573C203.153 87.5885 203.937 84.451 202.369 82.0979 200.8 79.4833 197.662 78.6989 195.309 80.2677L183.544 87.0656 185.897 77.9146C186.681 75.0385 185.112 72.1625 182.236 71.6396 179.36 70.8552 176.484 72.4239 175.961 75.3L170.732 94.6479 163.15 99.0927 169.425 75.5614C170.209 72.6854 168.641 69.8094 165.765 69.2864 162.888 68.5021 160.012 70.0708 159.49 72.9469L150.6 106.675 140.665 112.427C138.05 109.812 134.651 107.721 130.991 106.936L130.991 95.4323 155.568 70.8552C157.659 68.7635 157.659 65.626 155.568 63.5344 153.476 61.4427 150.339 61.4427 148.247 63.5344L130.729 78.9604 130.729 70.3323 144.848 56.2135C146.94 54.1219 146.94 50.9844 144.848 48.8927 142.756 46.801 139.619 46.801 137.527 48.8927L130.729 55.4292 130.729 41.8333C130.729 38.9573 128.376 36.6042 125.5 36.6042 122.624 36.6042 120.271 38.9573 120.271 41.8333L120.271 55.4292 113.473 48.6312C111.381 46.5396 108.244 46.5396 106.152 48.6312 104.06 50.7229 104.06 53.8604 106.152 55.9521L120.271 70.0708 120.271 78.6989 103.015 61.4427C100.923 59.351 97.7854 59.351 95.6937 61.4427 93.6021 63.5344 93.6021 66.6719 95.6937 68.7635L120.271 93.3406 120.271 104.845C116.61 105.891 113.211 107.721 110.597 110.335L100.661 104.583 91.5104 71.3781C90.726 68.5021 87.85 66.9333 85.2354 67.7177 82.3594 68.5021 80.7906 71.3781 81.575 73.9927L87.85 97.5239 80.2677 93.0791 75.0385 73.7312C74.2541 70.8552 71.3781 69.2864 68.7635 70.0708 65.8875 70.8552 64.3187 73.7312 65.1031 76.3458L67.4562 85.4968 55.6906 78.6989C53.076 77.1302 49.9385 78.176 48.6312 80.5291 47.0625 83.1437 48.1083 86.2812 50.4614 87.5885L62.2271 94.3864 53.076 96.7396C50.2 97.5239 48.6312 100.4 49.4156 103.015 49.9385 105.368 52.0302 106.936 54.3833 106.936 54.9062 106.936 55.1677 106.936 55.6906 106.675L75.0385 101.446 82.6208 105.891 59.0896 112.166C56.2135 112.95 54.6448 115.826 55.4292 118.441 55.9521 120.794 58.0437 122.362 60.3969 122.362 60.9198 122.362 61.1812 122.362 61.7041 122.101L95.4323 113.211 105.368 118.964C104.845 121.578 104.583 123.67 104.583 125.5 104.583 127.33 104.845 129.422 105.368 130.991L95.4323 136.743 61.7041 127.853C58.8281 127.069 55.9521 128.637 55.4292 131.514 54.9062 134.39 56.2135 137.266 59.0896 137.788L82.6208 144.063 75.0385 148.508 55.6906 143.279C52.8146 142.495 49.9385 144.063 49.4156 146.94 48.8927 149.816 50.2 152.692 53.076 153.215L62.2271 155.568 50.4614 162.366C47.8469 163.934 47.0625 167.072 48.6312 169.425 49.6771 170.994 51.2458 172.04 53.076 172.04 53.8604 172.04 54.9062 171.778 55.6906 171.255L67.4562 164.457 65.1031 173.608C64.3187 176.484 65.8875 179.36 68.7635 179.883 69.2864 179.883 69.5479 180.145 70.0708 180.145 72.4239 180.145 74.5156 178.576 75.0385 176.223L80.2677 156.875 87.85 152.43 81.575 175.961C80.7906 178.837 82.3594 181.713 85.2354 182.236 85.7583 182.236 86.0198 182.498 86.5427 182.498 88.8958 182.498 90.9875 180.929 91.5104 178.576L100.4 144.848 110.335 139.096C112.95 141.71 116.349 143.802 120.009 144.586L120.009 156.091 95.4323 180.668C93.3406 182.759 93.3406 185.897 95.4323 187.988 97.5239 190.08 100.661 190.08 102.753 187.988L120.009 170.732 120.009 179.36 105.891 193.479C103.799 195.571 103.799 198.708 105.891 200.8 107.982 202.892 111.12 202.892 113.211 200.8L120.009 194.002 120.009 209.167C120.009 212.043 122.362 214.396 125.239 214.396 128.115 214.396 130.468 212.043 130.468 209.167L130.468 195.571 137.266 202.369C138.573 203.415 139.88 203.937 141.187 203.937 142.495 203.937 143.802 203.415 144.848 202.369 146.94 200.277 146.94 197.14 144.848 195.048L130.729 180.929 130.729 172.301 147.985 189.557C149.031 190.342 150.339 190.865 151.646 190.865 152.953 190.865 154.26 190.342 155.306 189.296 157.398 187.204 157.398 184.067 155.306 181.975L130.729 157.398 130.729 145.894C134.39 144.848 137.788 143.018 140.403 140.403L150.339 146.155 159.49 179.622C160.012 181.975 162.104 183.544 164.457 183.544 164.98 183.544 165.242 183.544 165.765 183.282 168.641 182.498 170.209 179.622 169.425 177.007L163.15 153.476 170.732 157.921 175.961 177.269C176.484 179.622 178.576 181.191 180.929 181.191 181.452 181.191 181.713 181.191 182.236 180.929 185.112 180.145 186.681 177.269 185.897 174.654L183.544 165.503 195.309 172.301C196.094 172.824 197.14 173.085 197.924 173.085 199.754 173.085 201.584 172.04 202.369 170.471 203.937 167.333 203.153 164.196 200.538 162.888Z" fill="#8EAFC5" transform="matrix(1.00398 0 0 1 3946 426)"/></g></g></g><g clip-path="url(#clip25)"><g clip-path="url(#clip26)"><g clip-path="url(#clip27)"><path d="M200.539 162.889 188.773 156.091 197.924 153.738C200.8 152.953 202.369 150.077 201.585 147.463 200.8 144.848 197.924 143.018 195.31 143.802L175.962 149.031 168.379 144.587 191.911 138.312C194.787 137.527 196.355 134.651 195.571 132.037 194.787 129.422 191.911 127.592 189.296 128.376L155.568 137.266 145.632 131.514C146.155 129.683 146.417 127.853 146.417 126.023 146.417 124.193 146.155 122.101 145.632 120.532L155.568 114.78 189.296 123.67C189.819 123.67 190.08 123.931 190.603 123.931 192.956 123.931 195.048 122.363 195.571 120.01 196.355 117.133 194.787 114.257 191.911 113.735L168.379 107.459 175.962 103.015 195.31 108.244C195.833 108.244 196.094 108.505 196.617 108.505 198.97 108.505 201.062 106.937 201.585 104.583 202.369 101.707 200.8 98.8314 197.924 98.3084L188.773 95.9553 200.539 89.1574C203.153 87.5886 203.938 84.4511 202.369 82.098 200.8 79.4834 197.663 78.6991 195.31 80.2678L183.544 87.0657 185.897 77.9147C186.681 75.0386 185.113 72.1626 182.237 71.6397 179.361 70.8553 176.485 72.424 175.962 75.3001L170.732 94.648 163.15 99.0928 169.425 75.5615C170.21 72.6855 168.641 69.8095 165.765 69.2865 162.889 68.5022 160.013 70.0709 159.49 72.947L150.6 106.675 140.665 112.427C138.05 109.813 134.651 107.721 130.991 106.937L130.991 95.4324 155.568 70.8553C157.66 68.7636 157.66 65.6261 155.568 63.5344 153.476 61.4428 150.339 61.4428 148.247 63.5344L130.729 78.9605 130.729 70.3324 144.848 56.2136C146.94 54.1219 146.94 50.9844 144.848 48.8928 142.756 46.8011 139.619 46.8011 137.527 48.8928L130.729 55.4292 130.729 41.8334C130.729 38.9573 128.376 36.6042 125.5 36.6042 122.624 36.6042 120.271 38.9573 120.271 41.8334L120.271 55.4292 113.473 48.6313C111.381 46.5396 108.244 46.5396 106.152 48.6313 104.061 50.723 104.061 53.8605 106.152 55.9521L120.271 70.0709 120.271 78.6991 103.015 61.4428C100.923 59.3511 97.7855 59.3511 95.6939 61.4428 93.6022 63.5344 93.6022 66.672 95.6939 68.7636L120.271 93.3407 120.271 104.845C116.611 105.891 113.212 107.721 110.597 110.336L100.662 104.583 91.5105 71.3782C90.7262 68.5022 87.8501 66.9334 85.2355 67.7178 82.3595 68.5022 80.7907 71.3782 81.5751 73.9928L87.8501 97.5241 80.2678 93.0793 75.0386 73.7313C74.2542 70.8553 71.3782 69.2865 68.7636 70.0709 65.8876 70.8553 64.3188 73.7313 65.1032 76.3459L67.4563 85.497 55.6907 78.6991C53.0761 77.1303 49.9386 78.1761 48.6313 80.5293 47.0626 83.1438 48.1084 86.2813 50.4615 87.5886L62.2272 94.3866 53.0761 96.7397C50.2001 97.5241 48.6313 100.4 49.4157 103.015 49.9386 105.368 52.0303 106.937 54.3834 106.937 54.9063 106.937 55.1678 106.937 55.6907 106.675L75.0386 101.446 82.6209 105.891 59.0897 112.166C56.2136 112.95 54.6449 115.826 55.4292 118.441 55.9521 120.794 58.0438 122.363 60.3969 122.363 60.9199 122.363 61.1813 122.363 61.7042 122.101L95.4324 113.212 105.368 118.964C104.845 121.578 104.583 123.67 104.583 125.5 104.583 127.33 104.845 129.422 105.368 130.991L95.4324 136.743 61.7042 127.853C58.8282 127.069 55.9521 128.638 55.4292 131.514 54.9063 134.39 56.2136 137.266 59.0897 137.789L82.6209 144.064 75.0386 148.508 55.6907 143.279C52.8146 142.495 49.9386 144.064 49.4157 146.94 48.8928 149.816 50.2001 152.692 53.0761 153.215L62.2272 155.568 50.4615 162.366C47.8469 163.935 47.0626 167.072 48.6313 169.425 49.6771 170.994 51.2459 172.04 53.0761 172.04 53.8605 172.04 54.9063 171.778 55.6907 171.255L67.4563 164.457 65.1032 173.609C64.3188 176.485 65.8876 179.361 68.7636 179.884 69.2865 179.884 69.548 180.145 70.0709 180.145 72.424 180.145 74.5157 178.576 75.0386 176.223L80.2678 156.875 87.8501 152.43 81.5751 175.962C80.7907 178.838 82.3595 181.714 85.2355 182.237 85.7584 182.237 86.0199 182.498 86.5428 182.498 88.8959 182.498 90.9876 180.929 91.5105 178.576L100.4 144.848 110.336 139.096C112.95 141.711 116.349 143.802 120.01 144.587L120.01 156.091 95.4324 180.668C93.3407 182.76 93.3407 185.897 95.4324 187.989 97.5241 190.08 100.662 190.08 102.753 187.989L120.01 170.732 120.01 179.361 105.891 193.479C103.799 195.571 103.799 198.709 105.891 200.8 107.982 202.892 111.12 202.892 113.212 200.8L120.01 194.002 120.01 209.167C120.01 212.043 122.363 214.396 125.239 214.396 128.115 214.396 130.468 212.043 130.468 209.167L130.468 195.571 137.266 202.369C138.573 203.415 139.88 203.938 141.188 203.938 142.495 203.938 143.802 203.415 144.848 202.369 146.94 200.277 146.94 197.14 144.848 195.048L130.729 180.929 130.729 172.301 147.986 189.558C149.031 190.342 150.339 190.865 151.646 190.865 152.953 190.865 154.261 190.342 155.306 189.296 157.398 187.204 157.398 184.067 155.306 181.975L130.729 157.398 130.729 145.894C134.39 144.848 137.789 143.018 140.403 140.403L150.339 146.155 159.49 179.622C160.013 181.975 162.104 183.544 164.457 183.544 164.98 183.544 165.242 183.544 165.765 183.283 168.641 182.498 170.21 179.622 169.425 177.007L163.15 153.476 170.732 157.921 175.962 177.269C176.485 179.622 178.576 181.191 180.929 181.191 181.452 181.191 181.714 181.191 182.237 180.929 185.113 180.145 186.681 177.269 185.897 174.654L183.544 165.503 195.31 172.301C196.094 172.824 197.14 173.086 197.924 173.086 199.754 173.086 201.585 172.04 202.369 170.471 203.938 167.334 203.153 164.196 200.539 162.889Z" fill="#8EAFC5" transform="matrix(1.00398 0 0 1 3556 1943)"/></g></g></g></g></svg>