<svg width="1921" height="347" xmlns="http://www.w3.org/2000/svg" xmlns:xlink="http://www.w3.org/1999/xlink" xml:space="preserve" overflow="hidden"><defs><clipPath id="clip0"><rect x="881" y="517" width="1921" height="347"/></clipPath><clipPath id="clip1"><rect x="881" y="533" width="331" height="331"/></clipPath><clipPath id="clip2"><rect x="881" y="533" width="331" height="331"/></clipPath><clipPath id="clip3"><rect x="881" y="533" width="331" height="331"/></clipPath><clipPath id="clip4"><rect x="1271" y="605" width="145" height="145"/></clipPath><clipPath id="clip5"><rect x="1271" y="605" width="145" height="145"/></clipPath><clipPath id="clip6"><rect x="1271" y="605" width="145" height="145"/></clipPath><clipPath id="clip7"><rect x="1978" y="532" width="331" height="331"/></clipPath><clipPath id="clip8"><rect x="1978" y="532" width="331" height="331"/></clipPath><clipPath id="clip9"><rect x="1978" y="532" width="331" height="331"/></clipPath><clipPath id="clip10"><rect x="1837" y="623" width="145" height="145"/></clipPath><clipPath id="clip11"><rect x="1837" y="623" width="145" height="145"/></clipPath><clipPath id="clip12"><rect x="1837" y="623" width="145" height="145"/></clipPath><clipPath id="clip13"><rect x="2297" y="623" width="145" height="145"/></clipPath><clipPath id="clip14"><rect x="2297" y="623" width="145" height="145"/></clipPath><clipPath id="clip15"><rect x="2297" y="623" width="145" height="145"/></clipPath><clipPath id="clip16"><rect x="1475" y="517" width="331" height="330"/></clipPath><clipPath id="clip17"><rect x="1475" y="517" width="331" height="330"/></clipPath><clipPath id="clip18"><rect x="1475" y="517" width="331" height="330"/></clipPath><clipPath id="clip19"><rect x="2471" y="532" width="331" height="331"/></clipPath><clipPath id="clip20"><rect x="2471" y="532" width="331" height="331"/></clipPath><clipPath id="clip21"><rect x="2471" y="532" width="331" height="331"/></clipPath></defs><g clip-path="url(#clip0)" transform="translate(-881 -517)"><g clip-path="url(#clip1)"><g clip-path="url(#clip2)"><g clip-path="url(#clip3)"><path d="M1138.69 702.312 1117.86 584.297C1116.24 576.082 1110.47 569.299 1102.62 566.385L1074.24 554.187C1071.71 553.102 1070.08 550.618 1070.08 547.87L1070.08 543.313C1070.08 541.414 1068.54 539.875 1066.64 539.875L1063.2 539.875C1055.61 539.875 1049.45 546.031 1049.45 553.625L1049.45 594.875C1049.45 596.775 1047.91 598.314 1046.01 598.314 1044.11 598.314 1042.57 596.775 1042.57 594.875L1042.57 553.625C1042.57 546.031 1036.42 539.875 1028.82 539.875L1025.38 539.875C1023.49 539.875 1021.95 541.414 1021.95 543.313L1021.95 547.87C1021.95 550.618 1020.31 553.102 1017.79 554.187L989.403 566.385C981.553 569.299 975.782 576.082 974.161 584.297L953.329 702.312C952.792 704.974 954.514 707.567 957.175 708.104 957.528 708.176 957.887 708.208 958.246 708.201L978.404 708.201C980.712 708.212 982.689 706.551 983.075 704.275L1000.38 616.937C1000.39 616.919 1000.41 616.907 1000.42 616.911 1000.44 616.915 1000.45 616.93 1000.45 616.946L996.192 687.779C993.355 714.571 982.168 826.061 981.144 831.987 980.672 834.353 982.059 836.694 984.359 837.419 1004.54 842.47 1025.22 845.285 1046.01 845.813 1066.81 845.285 1087.48 842.47 1107.66 837.419 1109.96 836.694 1111.35 834.353 1110.88 831.987 1109.86 826.061 1098.67 714.571 1095.83 687.779L1091.57 616.946C1091.57 616.927 1091.59 616.911 1091.6 616.91 1091.62 616.91 1091.64 616.921 1091.64 616.938L1108.95 704.275C1109.33 706.551 1111.31 708.212 1113.62 708.201L1133.78 708.201C1136.49 708.254 1138.74 706.097 1138.79 703.382 1138.8 703.023 1138.77 702.664 1138.69 702.312ZM1059.76 588C1057.86 588 1056.32 586.461 1056.32 584.563 1056.32 582.664 1057.86 581.125 1059.76 581.125 1061.66 581.125 1063.2 582.664 1063.2 584.563 1063.2 586.461 1061.66 588 1059.76 588ZM1059.76 574.25C1057.86 574.25 1056.32 572.711 1056.32 570.813 1056.32 568.914 1057.86 567.375 1059.76 567.375 1061.66 567.375 1063.2 568.914 1063.2 570.813 1063.2 572.711 1061.66 574.25 1059.76 574.25Z" fill="#D5D9D4"/></g></g></g><path d="M0 0 0.000360892 330" stroke="#1B1C1E" stroke-width="9.16667" stroke-miterlimit="8" fill="none" fill-rule="evenodd" transform="matrix(1 0 0 -1 1046.5 863.5)"/><g clip-path="url(#clip4)"><g clip-path="url(#clip5)"><g clip-path="url(#clip6)"><path d="M1404 668 1353 668 1353 617 1335 617 1335 668 1284 668 1284 686 1335 686 1335 737 1353 737 1353 686 1404 686Z" fill="#D5D9D4"/></g></g></g><g clip-path="url(#clip7)"><g clip-path="url(#clip8)"><g clip-path="url(#clip9)"><path d="M2226.5 559.5 2226.5 552.625C2226.5 548.844 2223.41 545.75 2219.62 545.75L2144 545.75 2068.38 545.75C2064.59 545.75 2061.5 548.844 2061.5 552.625L2061.5 559.5 2092.44 559.5 2092.44 573.25 2061.5 573.25 2061.5 848.25 2113.06 848.25 2144 621.375 2174.94 848.25 2226.5 848.25 2226.5 573.25 2195.56 573.25 2195.56 559.5 2226.5 559.5ZM2106.19 573.25 2106.19 559.5 2137.12 559.5 2137.12 573.25 2106.19 573.25ZM2181.81 573.25 2150.88 573.25 2150.88 559.5 2181.81 559.5 2181.81 573.25Z" fill="#D5D9D4"/></g></g></g><g clip-path="url(#clip10)"><g clip-path="url(#clip11)"><g clip-path="url(#clip12)"><path d="M1969 687 1918 687 1918 636 1900 636 1900 687 1849 687 1849 705 1900 705 1900 756 1918 756 1918 705 1969 705Z" fill="#D5D9D4"/></g></g></g><g clip-path="url(#clip13)"><g clip-path="url(#clip14)"><g clip-path="url(#clip15)"><path d="M2430 687 2379 687 2379 636 2361 636 2361 687 2310 687 2310 705 2361 705 2361 756 2379 756 2379 705 2430 705Z" fill="#D5D9D4"/></g></g></g><g clip-path="url(#clip16)"><g clip-path="url(#clip17)"><g clip-path="url(#clip18)"><path d="M1788.5 619.094 1738.31 569.938C1736.94 568.562 1735.22 567.531 1733.5 566.844L1686.75 549.312C1684.34 548.281 1681.25 548.969 1679.53 551.031 1669.56 561.344 1655.47 567.875 1640 567.875 1624.53 567.875 1610.44 561.344 1600.47 551.031 1598.75 548.969 1595.66 548.625 1593.25 549.312L1546.5 566.844C1544.78 567.531 1543.06 568.562 1541.69 569.938L1491.5 619.094C1488.75 622.188 1489.09 627 1492.19 629.406L1538.25 664.125C1541 666.188 1544.78 666.188 1547.19 663.781L1564.38 647.625 1564.38 815.031 1715.62 815.031 1715.62 647.969 1732.81 664.125C1735.22 666.531 1739.34 666.531 1741.75 664.469L1787.81 629.406C1790.91 627 1791.25 622.188 1788.5 619.094Z" fill="#D5D9D4"/></g></g></g><g clip-path="url(#clip19)"><g clip-path="url(#clip20)"><g clip-path="url(#clip21)"><path d="M2506.38 607.625 2626.69 607.625C2630.47 607.625 2633.56 610.719 2633.56 614.5L2633.56 621.375C2633.56 625.156 2630.47 628.25 2626.69 628.25L2499.5 628.25 2499.5 614.5C2499.5 610.719 2502.59 607.625 2506.38 607.625Z" fill="#D5D9D4"/><path d="M2774.5 782.938 2740.12 782.938 2736.69 782.938 2733.25 782.938 2722.94 772.625 2712.62 782.938 2702.31 772.625 2692 782.938 2681.69 772.625 2671.38 782.938 2661.06 772.625 2650.75 782.938 2640.44 772.625 2630.12 782.938 2619.81 772.625 2609.5 782.938 2599.19 772.625 2588.88 782.938 2578.56 772.625 2568.25 782.938 2499.5 782.938 2499.5 762.313 2774.5 762.313Z" fill="#D5D9D4"/><path d="M2726.38 697 2726.38 748.563 2774.5 748.563C2774.5 748.563 2773.81 697 2726.38 697Z" fill="#D5D9D4"/><path d="M2678.25 717.625C2674.47 717.625 2671.38 714.531 2671.38 710.75 2671.38 706.969 2674.47 703.875 2678.25 703.875 2682.03 703.875 2685.12 706.969 2685.12 710.75 2685.12 714.531 2682.03 717.625 2678.25 717.625ZM2654.19 707.313C2650.41 707.313 2647.31 704.219 2647.31 700.438 2647.31 696.656 2650.41 693.563 2654.19 693.563 2657.97 693.563 2661.06 696.656 2661.06 700.438 2661.06 704.219 2657.97 707.313 2654.19 707.313ZM2633.56 690.125C2629.78 690.125 2626.69 687.031 2626.69 683.25 2626.69 679.469 2629.78 676.375 2633.56 676.375 2637.34 676.375 2640.44 679.469 2640.44 683.25 2640.44 687.031 2637.34 690.125 2633.56 690.125ZM2619.81 669.5C2616.03 669.5 2612.94 666.406 2612.94 662.625 2612.94 658.844 2616.03 655.75 2619.81 655.75 2623.59 655.75 2626.69 658.844 2626.69 662.625 2626.69 666.406 2623.59 669.5 2619.81 669.5ZM2634.94 646.813C2633.91 644.063 2631.5 642 2628.41 642L2499.5 642 2499.5 669.5C2501.22 669.5 2532.16 669.5 2554.16 691.156 2567.91 705.25 2575.12 724.5 2575.12 748.563L2712.62 748.563 2712.62 697C2712.62 697 2651.09 696.656 2634.94 646.813Z" fill="#D5D9D4"/><path d="M2499.5 748.563 2561.38 748.563C2561.38 728.281 2555.53 712.469 2544.53 701.125 2526.31 683.25 2499.5 683.25 2499.5 683.25L2499.5 748.563Z" fill="#D5D9D4"/></g></g></g></g></svg>