<svg width="1937" height="352" xmlns="http://www.w3.org/2000/svg" xmlns:xlink="http://www.w3.org/1999/xlink" xml:space="preserve" overflow="hidden"><defs><clipPath id="clip0"><rect x="881" y="911" width="1937" height="352"/></clipPath><clipPath id="clip1"><rect x="881" y="931" width="331" height="331"/></clipPath><clipPath id="clip2"><rect x="881" y="931" width="331" height="331"/></clipPath><clipPath id="clip3"><rect x="881" y="931" width="331" height="331"/></clipPath><clipPath id="clip4"><rect x="1271" y="1004" width="145" height="145"/></clipPath><clipPath id="clip5"><rect x="1271" y="1004" width="145" height="145"/></clipPath><clipPath id="clip6"><rect x="1271" y="1004" width="145" height="145"/></clipPath><clipPath id="clip7"><rect x="1837" y="1023" width="145" height="146"/></clipPath><clipPath id="clip8"><rect x="1837" y="1023" width="145" height="146"/></clipPath><clipPath id="clip9"><rect x="1837" y="1023" width="145" height="146"/></clipPath><clipPath id="clip10"><rect x="2297" y="1023" width="145" height="146"/></clipPath><clipPath id="clip11"><rect x="2297" y="1023" width="145" height="146"/></clipPath><clipPath id="clip12"><rect x="2297" y="1023" width="145" height="146"/></clipPath><clipPath id="clip13"><rect x="1475" y="930" width="331" height="331"/></clipPath><clipPath id="clip14"><rect x="1475" y="930" width="331" height="331"/></clipPath><clipPath id="clip15"><rect x="1475" y="930" width="331" height="331"/></clipPath><clipPath id="clip16"><rect x="2488" y="910" width="331" height="331"/></clipPath><clipPath id="clip17"><rect x="2488" y="910" width="331" height="331"/></clipPath><clipPath id="clip18"><rect x="2488" y="910" width="331" height="331"/></clipPath><clipPath id="clip19"><rect x="1982" y="931" width="331" height="331"/></clipPath><clipPath id="clip20"><rect x="1982" y="931" width="331" height="331"/></clipPath><clipPath id="clip21"><rect x="1982" y="931" width="331" height="331"/></clipPath></defs><g clip-path="url(#clip0)" transform="translate(-881 -911)"><g clip-path="url(#clip1)"><g clip-path="url(#clip2)"><g clip-path="url(#clip3)"><path d="M1138.69 1101.31 1117.86 983.297C1116.24 975.082 1110.47 968.299 1102.62 965.385L1074.24 953.187C1071.71 952.102 1070.08 949.618 1070.08 946.87L1070.08 942.312C1070.08 940.414 1068.54 938.875 1066.64 938.875L1063.2 938.875C1055.61 938.875 1049.45 945.031 1049.45 952.625L1049.45 993.875C1049.45 995.774 1047.91 997.314 1046.01 997.314 1044.11 997.314 1042.57 995.774 1042.57 993.875L1042.57 952.625C1042.57 945.031 1036.42 938.875 1028.82 938.875L1025.38 938.875C1023.49 938.875 1021.95 940.414 1021.95 942.312L1021.95 946.87C1021.95 949.618 1020.31 952.102 1017.79 953.187L989.403 965.385C981.553 968.299 975.782 975.082 974.161 983.297L953.329 1101.31C952.792 1103.97 954.514 1106.57 957.175 1107.1 957.528 1107.18 957.887 1107.21 958.246 1107.2L978.404 1107.2C980.712 1107.21 982.689 1105.55 983.075 1103.27L1000.38 1015.94C1000.39 1015.92 1000.41 1015.91 1000.42 1015.91 1000.44 1015.91 1000.45 1015.93 1000.45 1015.95L996.192 1086.78C993.355 1113.57 982.168 1225.06 981.144 1230.99 980.672 1233.35 982.059 1235.69 984.359 1236.42 1004.54 1241.47 1025.22 1244.28 1046.01 1244.81 1066.81 1244.28 1087.48 1241.47 1107.66 1236.42 1109.96 1235.69 1111.35 1233.35 1110.88 1230.99 1109.86 1225.06 1098.67 1113.57 1095.83 1086.78L1091.57 1015.95C1091.57 1015.93 1091.59 1015.91 1091.6 1015.91 1091.62 1015.91 1091.64 1015.92 1091.64 1015.94L1108.95 1103.27C1109.33 1105.55 1111.31 1107.21 1113.62 1107.2L1133.78 1107.2C1136.49 1107.25 1138.74 1105.1 1138.79 1102.38 1138.8 1102.02 1138.77 1101.66 1138.69 1101.31ZM1059.76 987C1057.86 987 1056.32 985.461 1056.32 983.562 1056.32 981.664 1057.86 980.125 1059.76 980.125 1061.66 980.125 1063.2 981.664 1063.2 983.562 1063.2 985.461 1061.66 987 1059.76 987ZM1059.76 973.25C1057.86 973.25 1056.32 971.711 1056.32 969.812 1056.32 967.914 1057.86 966.375 1059.76 966.375 1061.66 966.375 1063.2 967.914 1063.2 969.812 1063.2 971.711 1061.66 973.25 1059.76 973.25Z" fill="#D5D9D4"/></g></g></g><path d="M0 0 0.000360892 330" stroke="#1B1C1E" stroke-width="9.16667" stroke-miterlimit="8" fill="none" fill-rule="evenodd" transform="matrix(1 0 0 -1 1046.5 1262.5)"/><g clip-path="url(#clip4)"><g clip-path="url(#clip5)"><g clip-path="url(#clip6)"><path d="M1404 1067 1353 1067 1353 1016 1335 1016 1335 1067 1284 1067 1284 1085 1335 1085 1335 1136 1353 1136 1353 1085 1404 1085Z" fill="#D5D9D4"/></g></g></g><g clip-path="url(#clip7)"><g clip-path="url(#clip8)"><g clip-path="url(#clip9)"><path d="M132 63 81 63 81 12 63 12 63 63 12 63 12 81 63 81 63 132 81 132 81 81 132 81Z" fill="#D5D9D4" transform="matrix(1 0 0 1.00694 1837 1023)"/></g></g></g><g clip-path="url(#clip10)"><g clip-path="url(#clip11)"><g clip-path="url(#clip12)"><path d="M132 63 81 63 81 12 63 12 63 63 12 63 12 81 63 81 63 132 81 132 81 81 132 81Z" fill="#D5D9D4" transform="matrix(1 0 0 1.00694 2298 1023)"/></g></g></g><g clip-path="url(#clip13)"><g clip-path="url(#clip14)"><g clip-path="url(#clip15)"><path d="M1780.25 1201.53 1740.72 1013.5C1738.31 1002.16 1730.41 992.531 1719.41 988.406L1674.38 968.812C1673 968.125 1671.62 968.125 1670.25 968.469 1665.78 969.5 1657.19 982.906 1640 982.906 1622.81 982.906 1614.22 969.156 1609.75 968.469 1608.38 968.125 1607 968.469 1605.62 968.812L1560.59 988.406C1549.59 992.531 1541.69 1001.81 1539.28 1013.5L1499.75 1201.53C1498.72 1205.66 1502.16 1209.78 1506.62 1209.78L1534.81 1209.78C1537.91 1209.78 1540.66 1207.72 1541.34 1204.28L1574.69 1058.53C1579.16 1115.25 1568.84 1184 1565.41 1203.94 1564.72 1207.37 1566.78 1210.47 1569.88 1211.5 1581.56 1215.28 1610.09 1223.19 1640 1223.19 1669.91 1223.19 1698.09 1215.28 1710.12 1211.5 1713.22 1210.47 1715.28 1207.37 1714.59 1203.94 1711.16 1184 1700.84 1114.91 1705.31 1058.53L1738.66 1204.28C1739.34 1207.37 1742.09 1209.78 1745.19 1209.78L1773.38 1209.78C1777.84 1209.78 1780.94 1206 1780.25 1201.53Z" fill="#D5D9D4"/></g></g></g><g clip-path="url(#clip16)"><g clip-path="url(#clip17)"><g clip-path="url(#clip18)"><path d="M2686 1126.19 2684.62 1126.19C2674.66 1124.81 2664.34 1122.75 2653 1120 2635.81 1116.22 2617.59 1112.09 2601.09 1112.09L2525.81 1112.09C2517.56 1112.09 2511.38 1109.69 2506.91 1106.94 2504.84 1105.56 2501.75 1106.94 2501.75 1109.69L2501.75 1143.03 2580.81 1143.03 2587.69 1125.84 2601.44 1125.84C2616.56 1125.84 2633.75 1129.62 2650.25 1133.41 2661.25 1135.81 2672.59 1138.22 2682.91 1139.59L2684.28 1139.59C2694.59 1140.97 2705.94 1142.34 2719 1142.34 2741.69 1142.34 2768.84 1137.88 2804.25 1120.34L2804.25 1110.38C2804.25 1107.97 2801.5 1106.25 2799.09 1107.28 2746.84 1133.75 2713.16 1129.62 2686 1126.19Z" fill="#D5D9D4"/><path d="M2780.19 1081.16C2751.31 1084.25 2728.28 1077.03 2707.31 1066.03L2696.66 1076.69C2695.97 1077.38 2694.94 1077.72 2694.25 1077.72 2693.56 1077.72 2692.53 1077.38 2691.84 1076.69 2690.47 1075.31 2690.47 1073.25 2691.84 1071.88L2701.12 1062.59C2694.59 1058.81 2688.06 1054.69 2681.88 1050.22L2669.16 1062.94C2668.47 1063.62 2667.44 1063.97 2666.75 1063.97 2666.06 1063.97 2665.03 1063.62 2664.34 1062.94 2662.97 1061.56 2662.97 1059.5 2664.34 1058.12L2676.38 1046.09C2670.19 1041.62 2664.34 1037.16 2658.16 1032.69L2641.66 1049.19C2640.97 1049.88 2639.94 1050.22 2639.25 1050.22 2638.56 1050.22 2637.53 1049.88 2636.84 1049.19 2635.47 1047.81 2635.47 1045.75 2636.84 1044.38L2652.66 1028.56C2642.69 1021.34 2632.38 1014.81 2621.72 1009.66 2616.91 1007.59 2611.75 1010.69 2611.75 1015.84L2611.75 1026.16C2567.06 1044.03 2532 1034.06 2518.59 1028.56 2515.16 1027.19 2511.03 1028.91 2509.66 1032.34 2504.16 1046.09 2501.75 1066.38 2501.75 1074.28 2501.75 1091.47 2507.25 1098.69 2510.69 1101.09 2513.09 1102.47 2518.25 1105.22 2525.81 1105.22L2601.44 1105.22C2618.97 1105.22 2637.19 1109.34 2654.72 1113.12 2665.72 1115.53 2676.03 1117.94 2685.66 1118.97L2687.03 1118.97C2697 1120.34 2706.97 1121.38 2718.66 1121.38 2742.72 1121.38 2767.47 1115.19 2793.59 1102.47 2796 1101.09 2797.72 1098.69 2797.38 1095.59 2797.03 1091.12 2791.19 1080.12 2780.19 1081.16Z" fill="#D5D9D4"/></g></g></g><g clip-path="url(#clip19)"><g clip-path="url(#clip20)"><g clip-path="url(#clip21)"><path d="M2233.28 987 2198.56 987 2198.56 973.25 2231.22 973.25 2230.19 965.344C2229.84 961.906 2226.75 959.5 2223.31 959.5L2070.69 959.5C2067.25 959.5 2064.16 961.906 2063.81 965.344L2062.78 973.25 2095.44 973.25 2095.44 987 2060.72 987 2030.13 1214.22C2040.78 1230.72 2071.03 1214.22 2081.69 1214.22 2092.69 1214.22 2129.81 1234.5 2147 1234.5 2164.19 1234.5 2201.31 1214.22 2212.31 1214.22 2222.97 1214.22 2253.22 1230.72 2263.88 1214.22L2233.28 987ZM2109.19 987 2109.19 973.25 2140.12 973.25 2140.12 987 2109.19 987ZM2153.88 987 2153.88 973.25 2184.81 973.25 2184.81 987 2153.88 987Z" fill="#D5D9D4"/></g></g></g></g></svg>