<svg width="2340" height="359" xmlns="http://www.w3.org/2000/svg" xmlns:xlink="http://www.w3.org/1999/xlink" xml:space="preserve" overflow="hidden"><defs><clipPath id="clip0"><rect x="903" y="876" width="2340" height="359"/></clipPath><clipPath id="clip1"><rect x="903" y="904" width="331" height="331"/></clipPath><clipPath id="clip2"><rect x="903" y="904" width="331" height="331"/></clipPath><clipPath id="clip3"><rect x="903" y="904" width="331" height="331"/></clipPath><clipPath id="clip4"><rect x="1293" y="975" width="145" height="145"/></clipPath><clipPath id="clip5"><rect x="1293" y="975" width="145" height="145"/></clipPath><clipPath id="clip6"><rect x="1293" y="975" width="145" height="145"/></clipPath><clipPath id="clip7"><rect x="2423" y="883" width="331" height="331"/></clipPath><clipPath id="clip8"><rect x="2423" y="883" width="331" height="331"/></clipPath><clipPath id="clip9"><rect x="2423" y="883" width="331" height="331"/></clipPath><clipPath id="clip10"><rect x="1771" y="975" width="146" height="145"/></clipPath><clipPath id="clip11"><rect x="1771" y="975" width="146" height="145"/></clipPath><clipPath id="clip12"><rect x="1771" y="975" width="146" height="145"/></clipPath><clipPath id="clip13"><rect x="1438" y="875" width="331" height="331"/></clipPath><clipPath id="clip14"><rect x="1438" y="875" width="331" height="331"/></clipPath><clipPath id="clip15"><rect x="1438" y="875" width="331" height="331"/></clipPath><clipPath id="clip16"><rect x="2280" y="975" width="146" height="145"/></clipPath><clipPath id="clip17"><rect x="2280" y="975" width="146" height="145"/></clipPath><clipPath id="clip18"><rect x="2280" y="975" width="146" height="145"/></clipPath><clipPath id="clip19"><rect x="1930" y="883" width="331" height="331"/></clipPath><clipPath id="clip20"><rect x="1930" y="883" width="331" height="331"/></clipPath><clipPath id="clip21"><rect x="1930" y="883" width="331" height="331"/></clipPath><clipPath id="clip22"><rect x="2741" y="975" width="146" height="145"/></clipPath><clipPath id="clip23"><rect x="2741" y="975" width="146" height="145"/></clipPath><clipPath id="clip24"><rect x="2741" y="975" width="146" height="145"/></clipPath><clipPath id="clip25"><rect x="2912" y="883" width="331" height="331"/></clipPath><clipPath id="clip26"><rect x="2912" y="883" width="331" height="331"/></clipPath><clipPath id="clip27"><rect x="2912" y="883" width="331" height="331"/></clipPath></defs><g clip-path="url(#clip0)" transform="translate(-903 -876)"><g clip-path="url(#clip1)"><g clip-path="url(#clip2)"><g clip-path="url(#clip3)"><path d="M1160.69 1073.31 1139.86 955.297C1138.24 947.082 1132.47 940.299 1124.62 937.385L1096.24 925.187C1093.71 924.102 1092.08 921.618 1092.08 918.87L1092.08 914.313C1092.08 912.414 1090.54 910.875 1088.64 910.875L1085.2 910.875C1077.61 910.875 1071.45 917.031 1071.45 924.625L1071.45 965.875C1071.45 967.775 1069.91 969.314 1068.01 969.314 1066.11 969.314 1064.57 967.775 1064.57 965.875L1064.57 924.625C1064.57 917.031 1058.42 910.875 1050.82 910.875L1047.38 910.875C1045.49 910.875 1043.95 912.414 1043.95 914.313L1043.95 918.87C1043.95 921.618 1042.31 924.102 1039.79 925.187L1011.4 937.385C1003.55 940.299 997.782 947.082 996.161 955.297L975.329 1073.31C974.792 1075.97 976.514 1078.57 979.175 1079.1 979.528 1079.18 979.887 1079.21 980.246 1079.2L1000.4 1079.2C1002.71 1079.21 1004.69 1077.55 1005.07 1075.27L1022.38 987.937C1022.39 987.919 1022.41 987.907 1022.42 987.911 1022.44 987.915 1022.45 987.929 1022.45 987.946L1018.19 1058.78C1015.35 1085.57 1004.17 1197.06 1003.14 1202.99 1002.67 1205.35 1004.06 1207.69 1006.36 1208.42 1026.54 1213.47 1047.22 1216.28 1068.01 1216.81 1088.81 1216.28 1109.48 1213.47 1129.66 1208.42 1131.96 1207.69 1133.35 1205.35 1132.88 1202.99 1131.86 1197.06 1120.67 1085.57 1117.83 1058.78L1113.57 987.946C1113.57 987.927 1113.59 987.911 1113.6 987.91 1113.62 987.909 1113.64 987.921 1113.64 987.938L1130.95 1075.27C1131.33 1077.55 1133.31 1079.21 1135.62 1079.2L1155.78 1079.2C1158.49 1079.25 1160.74 1077.1 1160.79 1074.38 1160.8 1074.02 1160.77 1073.66 1160.69 1073.31ZM1081.76 959C1079.86 959 1078.32 957.461 1078.32 955.563 1078.32 953.664 1079.86 952.125 1081.76 952.125 1083.66 952.125 1085.2 953.664 1085.2 955.563 1085.2 957.461 1083.66 959 1081.76 959ZM1081.76 945.25C1079.86 945.25 1078.32 943.711 1078.32 941.813 1078.32 939.914 1079.86 938.375 1081.76 938.375 1083.66 938.375 1085.2 939.914 1085.2 941.813 1085.2 943.711 1083.66 945.25 1081.76 945.25Z" fill="#D5D9D4"/></g></g></g><path d="M0 0 0.000360892 330" stroke="#1B1C1E" stroke-width="9.16667" stroke-miterlimit="8" fill="none" fill-rule="evenodd" transform="matrix(1 0 0 -1 1068.5 1234.5)"/><g clip-path="url(#clip4)"><g clip-path="url(#clip5)"><g clip-path="url(#clip6)"><path d="M1426 1039 1375 1039 1375 988 1357 988 1357 1039 1306 1039 1306 1057 1357 1057 1357 1108 1375 1108 1375 1057 1426 1057Z" fill="#D5D9D4"/></g></g></g><g clip-path="url(#clip7)"><g clip-path="url(#clip8)"><g clip-path="url(#clip9)"><path d="M2670.5 910.5 2670.5 903.625C2670.5 899.844 2667.41 896.75 2663.62 896.75L2588 896.75 2512.38 896.75C2508.59 896.75 2505.5 899.844 2505.5 903.625L2505.5 910.5 2536.44 910.5 2536.44 924.25 2505.5 924.25 2505.5 1199.25 2557.06 1199.25 2588 972.375 2618.94 1199.25 2670.5 1199.25 2670.5 924.25 2639.56 924.25 2639.56 910.5 2670.5 910.5ZM2550.19 924.25 2550.19 910.5 2581.12 910.5 2581.12 924.25 2550.19 924.25ZM2625.81 924.25 2594.88 924.25 2594.88 910.5 2625.81 910.5 2625.81 924.25Z" fill="#D5D9D4"/></g></g></g><g clip-path="url(#clip10)"><g clip-path="url(#clip11)"><g clip-path="url(#clip12)"><path d="M132 63 81 63 81 12 63 12 63 63 12 63 12 81 63 81 63 132 81 132 81 81 132 81Z" fill="#D5D9D4" transform="matrix(1.00694 0 0 1 1771 976)"/></g></g></g><g clip-path="url(#clip13)"><g clip-path="url(#clip14)"><g clip-path="url(#clip15)"><path d="M1693.37 1106.31 1514.62 1106.31C1510.84 1106.31 1507.75 1109.41 1507.75 1113.19L1507.75 1151C1507.75 1154.78 1510.84 1157.87 1514.62 1157.87L1693.37 1157.87C1697.16 1157.87 1700.25 1154.78 1700.25 1151L1700.25 1113.19C1700.25 1109.41 1697.16 1106.31 1693.37 1106.31Z" fill="#D5D9D4"/><path d="M1545.22 992.531C1547.28 990.469 1550.37 990.469 1552.44 992.531L1562.41 1002.5 1572.37 992.531C1574.44 990.469 1577.53 990.469 1579.59 992.531L1589.56 1002.5 1599.53 992.531C1601.59 990.469 1604.69 990.469 1606.75 992.531L1616.72 1002.5 1626.69 992.531C1628.75 990.469 1631.84 990.469 1633.91 992.531L1643.87 1002.5 1653.84 992.531C1655.91 990.469 1659 990.469 1661.06 992.531L1671.03 1002.5 1679.97 993.562C1667.94 972.25 1647.66 956.437 1623.25 950.594 1622.91 949.562 1622.22 948.187 1621.53 947.5L1620.5 944.75 1624.62 944.75C1628.41 944.75 1631.5 941.656 1631.5 937.875 1631.5 934.094 1628.41 931 1624.62 931L1620.5 931 1623.25 928.25C1626 925.5 1626 921.375 1623.25 918.625 1620.5 915.875 1616.37 915.875 1613.62 918.625L1610.87 921.375 1610.87 917.25C1610.87 913.469 1607.78 910.375 1604 910.375 1600.22 910.375 1597.12 913.469 1597.12 917.25L1597.12 921.375 1594.37 918.625C1591.62 915.875 1587.5 915.875 1584.75 918.625 1582 921.375 1582 925.5 1584.75 928.25L1587.5 931 1583.37 931C1579.59 931 1576.5 934.094 1576.5 937.875 1576.5 941.656 1579.59 944.75 1583.37 944.75L1587.5 944.75 1584.75 947.5C1583.72 948.531 1583.37 949.562 1583.03 950.594 1558.62 956.437 1538.34 972.25 1526.31 993.562L1535.25 1002.5 1545.22 992.531Z" fill="#D5D9D4"/><path d="M1679.97 1057.84C1682.03 1059.91 1682.03 1063 1679.97 1065.06 1678.94 1066.09 1677.56 1066.44 1676.19 1066.44 1674.81 1066.44 1673.44 1066.09 1672.41 1065.06L1665.87 1058.53 1659.34 1065.06C1658.31 1066.09 1656.94 1066.44 1655.56 1066.44 1654.19 1066.44 1652.81 1066.09 1651.78 1065.06 1649.72 1063 1649.72 1059.91 1651.78 1057.84L1658.31 1051.31 1651.78 1044.78C1649.72 1042.72 1649.72 1039.62 1651.78 1037.56 1653.84 1035.5 1656.94 1035.5 1659 1037.56L1665.53 1044.09 1672.06 1037.56C1674.12 1035.5 1677.22 1035.5 1679.28 1037.56 1681.34 1039.62 1681.34 1042.72 1679.28 1044.78L1673.09 1051.31 1679.97 1057.84ZM1634.94 1058.19C1631.16 1058.19 1628.06 1055.09 1628.06 1051.31 1628.06 1047.53 1631.16 1044.44 1634.94 1044.44 1638.72 1044.44 1641.81 1047.53 1641.81 1051.31 1641.81 1055.09 1638.72 1058.19 1634.94 1058.19ZM1618.09 1057.84C1620.16 1059.91 1620.16 1063 1618.09 1065.06 1617.06 1066.09 1615.69 1066.44 1614.31 1066.44 1612.94 1066.44 1611.56 1066.09 1610.53 1065.06L1604 1058.53 1597.47 1065.06C1596.44 1066.09 1595.06 1066.44 1593.69 1066.44 1592.31 1066.44 1590.94 1066.09 1589.91 1065.06 1587.84 1063 1587.84 1059.91 1589.91 1057.84L1596.44 1051.31 1589.91 1044.78C1587.84 1042.72 1587.84 1039.62 1589.91 1037.56 1591.97 1035.5 1595.06 1035.5 1597.12 1037.56L1603.66 1044.09 1610.19 1037.56C1612.25 1035.5 1615.34 1035.5 1617.41 1037.56 1619.47 1039.62 1619.47 1042.72 1617.41 1044.78L1611.22 1051.31 1618.09 1057.84ZM1573.06 1058.19C1569.28 1058.19 1566.19 1055.09 1566.19 1051.31 1566.19 1047.53 1569.28 1044.44 1573.06 1044.44 1576.84 1044.44 1579.94 1047.53 1579.94 1051.31 1579.94 1055.09 1576.84 1058.19 1573.06 1058.19ZM1556.22 1057.84C1558.28 1059.91 1558.28 1063 1556.22 1065.06 1555.19 1066.09 1553.81 1066.44 1552.44 1066.44 1551.06 1066.44 1549.69 1066.09 1548.66 1065.06L1542.12 1058.53 1535.59 1065.06C1534.56 1066.09 1533.19 1066.44 1531.81 1066.44 1530.44 1066.44 1529.06 1066.09 1528.03 1065.06 1525.97 1063 1525.97 1059.91 1528.03 1057.84L1534.56 1051.31 1528.03 1044.78C1525.97 1042.72 1525.97 1039.62 1528.03 1037.56 1530.09 1035.5 1533.19 1035.5 1535.25 1037.56L1541.78 1044.09 1548.31 1037.56C1550.37 1035.5 1553.47 1035.5 1555.53 1037.56 1557.59 1039.62 1557.59 1042.72 1555.53 1044.78L1549.34 1051.31 1556.22 1057.84ZM1693.37 1037.56C1693.37 1025.53 1690.97 1014.19 1686.84 1003.87L1686.5 1003.53 1676.53 1013.5C1674.47 1015.56 1671.37 1015.56 1669.31 1013.5L1659 1003.53 1649.03 1013.5C1646.97 1015.56 1643.87 1015.56 1641.81 1013.5L1631.5 1003.53 1621.53 1013.5C1619.47 1015.56 1616.37 1015.56 1614.31 1013.5L1604 1003.53 1594.03 1013.5C1591.97 1015.56 1588.87 1015.56 1586.81 1013.5L1576.5 1003.53 1566.53 1013.5C1564.47 1015.56 1561.37 1015.56 1559.31 1013.5L1549 1003.53 1539.03 1013.5C1536.97 1015.56 1533.87 1015.56 1531.81 1013.5L1521.5 1003.53 1521.16 1003.87C1517.03 1014.19 1514.62 1025.53 1514.62 1037.56L1514.62 1092.56 1693.37 1092.56 1693.37 1037.56Z" fill="#D5D9D4"/></g></g></g><g clip-path="url(#clip16)"><g clip-path="url(#clip17)"><g clip-path="url(#clip18)"><path d="M132 63 81 63 81 12 63 12 63 63 12 63 12 81 63 81 63 132 81 132 81 81 132 81Z" fill="#D5D9D4" transform="matrix(1.00694 0 0 1 2280 976)"/></g></g></g><g clip-path="url(#clip19)"><g clip-path="url(#clip20)"><g clip-path="url(#clip21)"><path d="M2175.06 1137.72 2176.44 1149.75C2176.78 1151.47 2178.5 1152.84 2180.22 1152.84L2214.25 1149.41C2215.97 1149.06 2217.34 1147.34 2217.34 1145.63L2215.97 1133.59 2175.06 1137.72Z" fill="#D5D9D4"/><path d="M2166.12 1052.47 2173.69 1127.41 2214.59 1123.63 2200.16 980.969C2197.41 952.781 2173.69 931.469 2145.5 932.156L2130.72 932.156C2127.97 932.156 2125.56 933.875 2124.53 936.281 2120.75 945.563 2109.06 952.094 2095.66 952.094 2082.25 952.094 2070.56 945.563 2066.78 936.281 2065.75 933.875 2063.34 932.156 2060.59 932.156L2047.87 932.156C2019.69 931.469 1995.62 952.781 1992.87 980.969L1977.41 1123.63 2018.31 1127.75 2026.22 1052.47 2026.22 1048.34 2028.97 1045.59C2029.66 1044.91 2030.69 1044.22 2032.06 1044.22 2033.09 1044.22 2034.47 1044.56 2035.16 1045.25L2046.16 1055.91 2057.16 1045.25C2058.88 1043.53 2061.28 1043.53 2063 1045.25L2074 1055.91 2085 1045.25C2086.72 1043.53 2089.47 1043.53 2091.19 1045.25 2091.19 1045.25 2091.19 1045.25 2091.19 1045.25L2100.47 1055.22 2109.75 1045.25C2110.44 1044.56 2111.47 1043.88 2112.84 1043.88 2113.88 1043.88 2115.25 1044.22 2115.94 1044.91L2126.94 1055.56 2137.94 1044.91C2139.66 1043.19 2142.06 1043.19 2143.78 1044.91L2154.78 1055.56 2165.78 1044.91C2165.78 1044.91 2166.12 1044.91 2166.12 1044.91L2166.12 1052.47Z" fill="#D5D9D4"/><path d="M2165.78 1056.59 2157.88 1064.84C2156.16 1066.56 2153.75 1066.56 2152.03 1064.84L2140.69 1054.19 2129.69 1064.84C2127.97 1066.56 2125.56 1066.56 2123.84 1064.84L2112.84 1054.53 2103.22 1064.84C2101.5 1066.56 2098.75 1066.56 2097.03 1064.84 2097.03 1064.84 2097.03 1064.84 2097.03 1064.84L2087.41 1054.53 2076.41 1064.84C2074.69 1066.56 2072.28 1066.56 2070.56 1064.84L2059.56 1054.19 2048.56 1064.84C2046.84 1066.56 2044.44 1066.56 2042.72 1064.84L2031.72 1054.53 2025.53 1061.06 2025.53 1133.25 2165.44 1133.25 2165.78 1056.59ZM2057.16 1103.34C2058.88 1105.06 2058.88 1107.81 2057.16 1109.53 2055.44 1111.25 2052.69 1111.25 2050.97 1109.53L2045.47 1104.03 2039.97 1109.53C2038.25 1111.25 2035.5 1111.25 2033.78 1109.53 2032.06 1107.81 2032.06 1105.06 2033.78 1103.34L2039.28 1097.84 2033.78 1092.34C2032.06 1090.63 2032.06 1087.88 2033.78 1086.16 2035.5 1084.44 2038.25 1084.44 2039.97 1086.16L2045.47 1091.66 2050.97 1086.16C2052.69 1084.44 2055.44 1084.44 2057.16 1086.16 2058.88 1087.88 2058.88 1090.63 2057.16 1092.34L2051.66 1097.84 2057.16 1103.34ZM2091.53 1103.34C2093.25 1105.06 2093.25 1107.81 2091.53 1109.53 2089.81 1111.25 2087.06 1111.25 2085.34 1109.53L2079.84 1104.03 2074.34 1109.53C2072.62 1111.25 2069.88 1111.25 2068.16 1109.53 2066.44 1107.81 2066.44 1105.06 2068.16 1103.34L2073.66 1097.84 2068.16 1092.34C2066.44 1090.63 2066.44 1087.88 2068.16 1086.16 2069.88 1084.44 2072.62 1084.44 2074.34 1086.16L2079.84 1091.66 2085.34 1086.16C2087.06 1084.44 2089.81 1084.44 2091.53 1086.16 2093.25 1087.88 2093.25 1090.63 2091.53 1092.34L2086.03 1097.84 2091.53 1103.34ZM2125.91 1103.34C2127.62 1105.06 2127.62 1107.81 2125.91 1109.53 2124.19 1111.25 2121.44 1111.25 2119.72 1109.53L2114.22 1104.03 2108.72 1109.53C2107 1111.25 2104.25 1111.25 2102.53 1109.53 2100.81 1107.81 2100.81 1105.06 2102.53 1103.34L2108.03 1097.84 2102.53 1092.34C2100.81 1090.63 2100.81 1087.88 2102.53 1086.16 2104.25 1084.44 2107 1084.44 2108.72 1086.16L2114.22 1091.66 2119.72 1086.16C2121.44 1084.44 2124.19 1084.44 2125.91 1086.16 2127.62 1087.88 2127.62 1090.63 2125.91 1092.34L2120.41 1097.84 2125.91 1103.34ZM2160.28 1103.34C2162 1105.06 2162 1107.81 2160.28 1109.53 2158.56 1111.25 2155.81 1111.25 2154.09 1109.53L2148.59 1104.03 2143.09 1109.53C2141.38 1111.25 2138.62 1111.25 2136.91 1109.53 2135.19 1107.81 2135.19 1105.06 2136.91 1103.34L2142.41 1097.84 2136.91 1092.34C2135.19 1090.63 2135.19 1087.88 2136.91 1086.16 2138.62 1084.44 2141.38 1084.44 2143.09 1086.16L2148.59 1091.66 2154.09 1086.16C2155.81 1084.44 2158.56 1084.44 2160.28 1086.16 2162 1087.88 2162 1090.63 2160.28 1092.34L2154.78 1097.84 2160.28 1103.34Z" fill="#D5D9D4"/><path d="M1976.37 1133.59 1975 1145.63C1974.66 1147.34 1976.03 1149.06 1978.09 1149.41 1978.09 1149.41 1978.09 1149.41 1978.09 1149.41L2012.12 1152.84C2013.84 1153.19 2015.56 1151.81 2015.91 1149.75 2015.91 1149.75 2015.91 1149.75 2015.91 1149.75L2017.28 1137.72 1976.37 1133.59Z" fill="#D5D9D4"/><path d="M2026.22 1141.84 2026.22 1161.44C2026.22 1163.5 2027.59 1164.88 2029.66 1164.88L2162.69 1164.88C2164.75 1164.88 2166.12 1163.5 2166.12 1161.44L2166.12 1141.5 2026.22 1141.5Z" fill="#D5D9D4"/></g></g></g><g clip-path="url(#clip22)"><g clip-path="url(#clip23)"><g clip-path="url(#clip24)"><path d="M132 63 81 63 81 12 63 12 63 63 12 63 12 81 63 81 63 132 81 132 81 81 132 81Z" fill="#D5D9D4" transform="matrix(1.00694 0 0 1 2741 976)"/></g></g></g><g clip-path="url(#clip25)"><g clip-path="url(#clip26)"><g clip-path="url(#clip27)"><path d="M2947.38 958.625 3067.69 958.625C3071.47 958.625 3074.56 961.719 3074.56 965.5L3074.56 972.375C3074.56 976.156 3071.47 979.25 3067.69 979.25L2940.5 979.25 2940.5 965.5C2940.5 961.719 2943.59 958.625 2947.38 958.625Z" fill="#D5D9D4"/><path d="M3215.5 1133.94 3181.12 1133.94 3177.69 1133.94 3174.25 1133.94 3163.94 1123.63 3153.62 1133.94 3143.31 1123.63 3133 1133.94 3122.69 1123.63 3112.38 1133.94 3102.06 1123.63 3091.75 1133.94 3081.44 1123.63 3071.12 1133.94 3060.81 1123.63 3050.5 1133.94 3040.19 1123.63 3029.88 1133.94 3019.56 1123.63 3009.25 1133.94 2940.5 1133.94 2940.5 1113.31 3215.5 1113.31Z" fill="#D5D9D4"/><path d="M3167.38 1048 3167.38 1099.56 3215.5 1099.56C3215.5 1099.56 3214.81 1048 3167.38 1048Z" fill="#D5D9D4"/><path d="M3119.25 1068.63C3115.47 1068.63 3112.38 1065.53 3112.38 1061.75 3112.38 1057.97 3115.47 1054.88 3119.25 1054.88 3123.03 1054.88 3126.12 1057.97 3126.12 1061.75 3126.12 1065.53 3123.03 1068.63 3119.25 1068.63ZM3095.19 1058.31C3091.41 1058.31 3088.31 1055.22 3088.31 1051.44 3088.31 1047.66 3091.41 1044.56 3095.19 1044.56 3098.97 1044.56 3102.06 1047.66 3102.06 1051.44 3102.06 1055.22 3098.97 1058.31 3095.19 1058.31ZM3074.56 1041.13C3070.78 1041.13 3067.69 1038.03 3067.69 1034.25 3067.69 1030.47 3070.78 1027.38 3074.56 1027.38 3078.34 1027.38 3081.44 1030.47 3081.44 1034.25 3081.44 1038.03 3078.34 1041.13 3074.56 1041.13ZM3060.81 1020.5C3057.03 1020.5 3053.94 1017.41 3053.94 1013.63 3053.94 1009.84 3057.03 1006.75 3060.81 1006.75 3064.59 1006.75 3067.69 1009.84 3067.69 1013.63 3067.69 1017.41 3064.59 1020.5 3060.81 1020.5ZM3075.94 997.813C3074.91 995.063 3072.5 993 3069.41 993L2940.5 993 2940.5 1020.5C2942.22 1020.5 2973.16 1020.5 2995.16 1042.16 3008.91 1056.25 3016.12 1075.5 3016.12 1099.56L3153.62 1099.56 3153.62 1048C3153.62 1048 3092.09 1047.66 3075.94 997.813Z" fill="#D5D9D4"/><path d="M2940.5 1099.56 3002.38 1099.56C3002.38 1079.28 2996.53 1063.47 2985.53 1052.13 2967.31 1034.25 2940.5 1034.25 2940.5 1034.25L2940.5 1099.56Z" fill="#D5D9D4"/></g></g></g></g></svg>