<svg width="1300" height="1300" xmlns="http://www.w3.org/2000/svg" xmlns:xlink="http://www.w3.org/1999/xlink" xml:space="preserve" overflow="hidden"><defs><clipPath id="clip0"><rect x="1550" y="937" width="1300" height="1300"/></clipPath><clipPath id="clip1"><rect x="1989" y="1587" width="112" height="155"/></clipPath><clipPath id="clip2"><rect x="1989" y="1587" width="112" height="155"/></clipPath><clipPath id="clip3"><rect x="1723" y="1205" width="643" height="637"/></clipPath><clipPath id="clip4"><rect x="2145" y="1587" width="110" height="155"/></clipPath><clipPath id="clip5"><rect x="2145" y="1587" width="110" height="155"/></clipPath><clipPath id="clip6"><rect x="1881" y="1205" width="637" height="637"/></clipPath><clipPath id="clip7"><rect x="2299" y="1587" width="112" height="155"/></clipPath><clipPath id="clip8"><rect x="2299" y="1587" width="112" height="155"/></clipPath><clipPath id="clip9"><rect x="2032" y="1205" width="643" height="637"/></clipPath></defs><g clip-path="url(#clip0)" transform="translate(-1550 -937)"><path d="M2608.96 1585.65C2604.9 1585.65 2599.48 1585.65 2595.42 1585.65 2595.42 1585.65 2595.42 1585.65 2595.42 1585.65 2595.42 1519.29 2562.92 1458.35 2510.1 1420.44 2455.94 1382.52 2386.88 1373.04 2324.58 1394.71 2273.12 1294.5 2159.38 1243.04 2051.04 1268.77 1942.71 1294.5 1864.17 1392 1864.17 1504.4 1864.17 1504.4 1864.17 1505.75 1864.17 1507.1 1789.69 1494.92 1715.21 1526.06 1669.17 1585.65 1624.48 1646.58 1616.35 1726.48 1647.5 1794.19 1680 1861.9 1747.71 1906.58 1822.19 1910.65L1822.19 1912 2607.6 1912C2696.98 1912 2770.1 1838.88 2770.1 1749.5 2770.1 1660.13 2698.33 1585.65 2608.96 1585.65Z" stroke="#D5D9D4" stroke-width="13.5417" fill="#D5D9D4"/><g clip-path="url(#clip1)"><g clip-path="url(#clip2)"><g clip-path="url(#clip3)"><path d="M365.11 480.408C365.11 506.251 344.569 526.793 318.726 526.793 292.884 526.793 272.342 506.251 272.342 480.408 272.342 454.566 318.726 387.64 318.726 387.64 318.726 387.64 365.11 455.228 365.11 480.408Z" fill="#D5D9D4" transform="matrix(1.00898 0 0 1 1723.82 1205.76)"/><path d="M464.505 453.903C464.505 472.457 449.927 487.035 431.374 487.035 412.82 487.035 398.242 472.457 398.242 453.903 398.242 435.349 431.374 387.64 431.374 387.64 431.374 387.64 464.505 436.012 464.505 453.903Z" fill="#D5D9D4" transform="matrix(1.00898 0 0 1 1723.82 1205.76)"/><path d="M239.21 453.903C239.21 472.457 224.632 487.035 206.079 487.035 187.525 487.035 172.947 472.457 172.947 453.903 172.947 435.349 206.079 387.64 206.079 387.64 206.079 387.64 239.21 436.012 239.21 453.903Z" fill="#D5D9D4" transform="matrix(1.00898 0 0 1 1723.82 1205.76)"/><path d="M544.021 298.185C544.021 279.631 536.07 262.402 522.154 250.475 508.239 238.548 489.685 233.247 471.132 236.56L471.132 235.897C471.132 210.717 459.204 186.2 438 171.622 417.458 156.381 390.953 152.405 366.436 160.357 345.894 121.924 301.498 102.045 259.089 112.648 216.681 122.587 186.2 160.357 185.537 204.091 156.381 198.79 126.563 210.054 108.672 233.247 90.118 256.439 86.1422 287.582 98.0696 314.75 109.997 341.918 135.84 359.809 165.658 361.797L483.722 361.797C518.178 359.809 544.021 331.979 544.021 298.185Z" fill="#D5D9D4" transform="matrix(1.00898 0 0 1 1723.82 1205.76)"/></g></g></g><g clip-path="url(#clip4)"><g clip-path="url(#clip5)"><g clip-path="url(#clip6)"><path d="M365.071 480.357C365.071 506.197 344.532 526.736 318.692 526.736 292.852 526.736 272.313 506.197 272.313 480.357 272.313 454.517 318.692 387.598 318.692 387.598 318.692 387.598 365.071 455.18 365.071 480.357Z" fill="#D5D9D4" transform="matrix(1 0 0 1.00011 1881.21 1205.76)"/><path d="M464.455 453.854C464.455 472.406 449.879 486.982 431.327 486.982 412.776 486.982 398.199 472.406 398.199 453.854 398.199 435.303 431.327 387.598 431.327 387.598 431.327 387.598 464.455 435.965 464.455 453.854Z" fill="#D5D9D4" transform="matrix(1 0 0 1.00011 1881.21 1205.76)"/><path d="M239.185 453.854C239.185 472.406 224.608 486.982 206.057 486.982 187.505 486.982 172.928 472.406 172.928 453.854 172.928 435.303 206.057 387.598 206.057 387.598 206.057 387.598 239.185 435.965 239.185 453.854Z" fill="#D5D9D4" transform="matrix(1 0 0 1.00011 1881.21 1205.76)"/><path d="M543.963 298.153C543.963 279.601 536.012 262.374 522.098 250.448 508.184 238.522 489.633 233.222 471.081 236.534L471.081 235.872C471.081 210.694 459.155 186.18 437.953 171.603 417.414 156.364 390.911 152.389 366.396 160.34 345.857 121.911 301.465 102.034 259.061 112.635 216.658 122.574 186.18 160.34 185.517 204.069 156.364 198.768 126.549 210.032 108.66 233.222 90.1083 256.411 86.1329 287.552 98.0591 314.717 109.985 341.882 135.825 359.771 165.64 361.758L483.67 361.758C518.123 359.771 543.963 331.943 543.963 298.153Z" fill="#D5D9D4" transform="matrix(1 0 0 1.00011 1881.21 1205.76)"/></g></g></g><g clip-path="url(#clip7)"><g clip-path="url(#clip8)"><g clip-path="url(#clip9)"><path d="M365.11 480.408C365.11 506.251 344.569 526.793 318.726 526.793 292.884 526.793 272.342 506.251 272.342 480.408 272.342 454.566 318.726 387.64 318.726 387.64 318.726 387.64 365.11 455.228 365.11 480.408Z" fill="#D5D9D4" transform="matrix(1.00898 0 0 1 2032.82 1205.76)"/><path d="M464.505 453.903C464.505 472.457 449.927 487.035 431.374 487.035 412.82 487.035 398.242 472.457 398.242 453.903 398.242 435.349 431.374 387.64 431.374 387.64 431.374 387.64 464.505 436.012 464.505 453.903Z" fill="#D5D9D4" transform="matrix(1.00898 0 0 1 2032.82 1205.76)"/><path d="M239.21 453.903C239.21 472.457 224.632 487.035 206.079 487.035 187.525 487.035 172.947 472.457 172.947 453.903 172.947 435.349 206.079 387.64 206.079 387.64 206.079 387.64 239.21 436.012 239.21 453.903Z" fill="#D5D9D4" transform="matrix(1.00898 0 0 1 2032.82 1205.76)"/><path d="M544.021 298.185C544.021 279.631 536.07 262.402 522.154 250.475 508.239 238.548 489.685 233.247 471.132 236.56L471.132 235.897C471.132 210.717 459.204 186.2 438 171.622 417.458 156.381 390.953 152.405 366.436 160.357 345.894 121.924 301.498 102.045 259.089 112.648 216.681 122.587 186.2 160.357 185.537 204.091 156.381 198.79 126.563 210.054 108.672 233.247 90.118 256.439 86.1422 287.582 98.0696 314.75 109.997 341.918 135.84 359.809 165.658 361.797L483.722 361.797C518.178 359.809 544.021 331.979 544.021 298.185Z" fill="#D5D9D4" transform="matrix(1.00898 0 0 1 2032.82 1205.76)"/></g></g></g></g></svg>