<svg width="3104" height="1943" xmlns="http://www.w3.org/2000/svg" xmlns:xlink="http://www.w3.org/1999/xlink" xml:space="preserve" overflow="hidden"><defs><clipPath id="clip0"><rect x="580" y="79" width="3104" height="1943"/></clipPath><clipPath id="clip1"><rect x="579" y="452" width="240" height="238"/></clipPath><clipPath id="clip2"><rect x="579" y="452" width="240" height="238"/></clipPath><clipPath id="clip3"><rect x="579" y="452" width="240" height="238"/></clipPath><clipPath id="clip4"><rect x="1628" y="79" width="239" height="238"/></clipPath><clipPath id="clip5"><rect x="1628" y="79" width="239" height="238"/></clipPath><clipPath id="clip6"><rect x="1628" y="79" width="239" height="238"/></clipPath><clipPath id="clip7"><rect x="944" y="1784" width="239" height="238"/></clipPath><clipPath id="clip8"><rect x="944" y="1784" width="239" height="238"/></clipPath><clipPath id="clip9"><rect x="944" y="1784" width="239" height="238"/></clipPath><clipPath id="clip10"><rect x="2809" y="392" width="240" height="240"/></clipPath><clipPath id="clip11"><rect x="2809" y="392" width="240" height="240"/></clipPath><clipPath id="clip12"><rect x="2809" y="392" width="240" height="240"/></clipPath><clipPath id="clip13"><rect x="1421" y="1048" width="239" height="238"/></clipPath><clipPath id="clip14"><rect x="1421" y="1048" width="239" height="238"/></clipPath><clipPath id="clip15"><rect x="1421" y="1048" width="239" height="238"/></clipPath><clipPath id="clip16"><rect x="2543" y="1486" width="238" height="238"/></clipPath><clipPath id="clip17"><rect x="2543" y="1486" width="238" height="238"/></clipPath><clipPath id="clip18"><rect x="2543" y="1486" width="238" height="238"/></clipPath><clipPath id="clip19"><rect x="3445" y="1141" width="239" height="240"/></clipPath><clipPath id="clip20"><rect x="3445" y="1141" width="239" height="240"/></clipPath><clipPath id="clip21"><rect x="3445" y="1141" width="239" height="240"/></clipPath></defs><g clip-path="url(#clip0)" transform="translate(-580 -79)"><g clip-path="url(#clip1)"><g clip-path="url(#clip2)"><g clip-path="url(#clip3)"><path d="M193.871 118.752C193.127 118.752 192.135 118.752 191.392 118.752 191.392 118.752 191.392 118.752 191.392 118.752 191.392 106.604 185.442 95.4479 175.773 88.5062 165.856 81.5645 153.212 79.8291 141.808 83.7958 132.387 65.45 111.562 56.0291 91.7291 60.7396 71.8958 65.45 57.5166 83.2999 57.5166 103.877 57.5166 103.877 57.5166 104.125 57.5166 104.373 43.8812 102.142 30.2458 107.844 21.8167 118.752 13.6354 129.908 12.1479 144.535 17.85 156.931 23.8 169.327 36.1958 177.508 49.8312 178.252L49.8312 178.5 193.623 178.5C209.985 178.5 223.373 165.112 223.373 148.75 223.373 132.387 210.233 118.752 193.871 118.752Z" fill="#3B3838" transform="matrix(1 0 0 1 580 452)"/></g></g></g><g clip-path="url(#clip4)"><g clip-path="url(#clip5)"><g clip-path="url(#clip6)"><path d="M193.871 118.752C193.127 118.752 192.135 118.752 191.392 118.752 191.392 118.752 191.392 118.752 191.392 118.752 191.392 106.604 185.442 95.4479 175.773 88.5062 165.856 81.5645 153.212 79.8291 141.808 83.7958 132.387 65.45 111.562 56.0291 91.7291 60.7396 71.8958 65.45 57.5166 83.2999 57.5166 103.877 57.5166 103.877 57.5166 104.125 57.5166 104.373 43.8812 102.142 30.2458 107.844 21.8167 118.752 13.6354 129.908 12.1479 144.535 17.85 156.931 23.8 169.327 36.1958 177.508 49.8312 178.252L49.8312 178.5 193.623 178.5C209.985 178.5 223.373 165.112 223.373 148.75 223.373 132.387 210.233 118.752 193.871 118.752Z" fill="#3B3838" transform="matrix(1.0042 0 0 1 1628 79.0001)"/></g></g></g><g clip-path="url(#clip7)"><g clip-path="url(#clip8)"><g clip-path="url(#clip9)"><path d="M1138.87 1902.75C1138.13 1902.75 1137.14 1902.75 1136.39 1902.75 1136.39 1902.75 1136.39 1902.75 1136.39 1902.75 1136.39 1890.6 1130.44 1879.45 1120.77 1872.51 1110.86 1865.56 1098.21 1863.83 1086.81 1867.8 1077.39 1849.45 1056.56 1840.03 1036.73 1844.74 1016.9 1849.45 1002.52 1867.3 1002.52 1887.88 1002.52 1887.88 1002.52 1888.13 1002.52 1888.37 988.881 1886.14 975.246 1891.84 966.817 1902.75 958.635 1913.91 957.148 1928.54 962.85 1940.93 968.8 1953.33 981.196 1961.51 994.831 1962.25L994.831 1962.5 1138.62 1962.5C1154.99 1962.5 1168.37 1949.11 1168.37 1932.75 1168.37 1916.39 1155.23 1902.75 1138.87 1902.75Z" fill="#3B3838"/></g></g></g><g clip-path="url(#clip10)"><g clip-path="url(#clip11)"><g clip-path="url(#clip12)"><path d="M193.871 118.752C193.127 118.752 192.136 118.752 191.392 118.752 191.392 118.752 191.392 118.752 191.392 118.752 191.392 106.604 185.442 95.448 175.773 88.5063 165.856 81.5647 153.213 79.8292 141.808 83.7959 132.388 65.4501 111.563 56.0292 91.7293 60.7396 71.8959 65.4501 57.5167 83.3001 57.5167 103.877 57.5167 103.877 57.5167 104.125 57.5167 104.373 43.8813 102.142 30.2459 107.844 21.8167 118.752 13.6354 129.908 12.1479 144.536 17.85 156.931 23.8 169.327 36.1959 177.508 49.8313 178.252L49.8313 178.5 193.623 178.5C209.986 178.5 223.373 165.113 223.373 148.75 223.373 132.388 210.234 118.752 193.871 118.752Z" fill="#3B3838" transform="matrix(1.0042 0 0 1 2809 393)"/></g></g></g><g clip-path="url(#clip13)"><g clip-path="url(#clip14)"><g clip-path="url(#clip15)"><path d="M193.871 118.752C193.127 118.752 192.135 118.752 191.392 118.752 191.392 118.752 191.392 118.752 191.392 118.752 191.392 106.604 185.442 95.4479 175.773 88.5062 165.856 81.5645 153.212 79.8291 141.808 83.7958 132.387 65.45 111.562 56.0291 91.7291 60.7396 71.8958 65.45 57.5166 83.2999 57.5166 103.877 57.5166 103.877 57.5166 104.125 57.5166 104.373 43.8812 102.142 30.2458 107.844 21.8167 118.752 13.6354 129.908 12.1479 144.535 17.85 156.931 23.8 169.327 36.1958 177.508 49.8312 178.252L49.8312 178.5 193.623 178.5C209.985 178.5 223.373 165.112 223.373 148.75 223.373 132.387 210.233 118.752 193.871 118.752Z" fill="#3B3838" transform="matrix(1.0042 0 0 1 1421 1048)"/></g></g></g><g clip-path="url(#clip16)"><g clip-path="url(#clip17)"><g clip-path="url(#clip18)"><path d="M2736.87 1604.75C2736.13 1604.75 2735.14 1604.75 2734.39 1604.75 2734.39 1604.75 2734.39 1604.75 2734.39 1604.75 2734.39 1592.6 2728.44 1581.45 2718.77 1574.51 2708.86 1567.56 2696.21 1565.83 2684.81 1569.8 2675.39 1551.45 2654.56 1542.03 2634.73 1546.74 2614.9 1551.45 2600.52 1569.3 2600.52 1589.88 2600.52 1589.88 2600.52 1590.12 2600.52 1590.37 2586.88 1588.14 2573.25 1593.84 2564.82 1604.75 2556.64 1615.91 2555.15 1630.54 2560.85 1642.93 2566.8 1655.33 2579.2 1663.51 2592.83 1664.25L2592.83 1664.5 2736.62 1664.5C2752.99 1664.5 2766.37 1651.11 2766.37 1634.75 2766.37 1618.39 2753.23 1604.75 2736.87 1604.75Z" fill="#3B3838"/></g></g></g><g clip-path="url(#clip19)"><g clip-path="url(#clip20)"><g clip-path="url(#clip21)"><path d="M3639.69 1261.25C3638.94 1261.25 3637.94 1261.25 3637.2 1261.25 3637.2 1261.25 3637.2 1261.25 3637.2 1261.25 3637.2 1249.05 3631.22 1237.85 3621.51 1230.88 3611.55 1223.91 3598.86 1222.16 3587.4 1226.15 3577.94 1207.72 3557.03 1198.26 3537.11 1202.99 3517.2 1207.72 3502.76 1225.65 3502.76 1246.31 3502.76 1246.31 3502.76 1246.56 3502.76 1246.81 3489.07 1244.57 3475.37 1250.3 3466.91 1261.25 3458.69 1272.45 3457.2 1287.14 3462.93 1299.59 3468.9 1312.04 3481.35 1320.25 3495.04 1321L3495.04 1321.25 3639.44 1321.25C3655.87 1321.25 3669.31 1307.81 3669.31 1291.37 3669.31 1274.94 3656.12 1261.25 3639.69 1261.25Z" fill="#3B3838"/></g></g></g></g></svg>