<svg width="3814" height="2294" xmlns="http://www.w3.org/2000/svg" xmlns:xlink="http://www.w3.org/1999/xlink" xml:space="preserve" overflow="hidden"><defs><clipPath id="clip0"><rect x="52" y="-46" width="3814" height="2294"/></clipPath><clipPath id="clip1"><path d="M1136.66-45.3221 1331.53 140.574 1145.63 335.441 950.768 149.545Z" fill-rule="evenodd" clip-rule="evenodd"/></clipPath><clipPath id="clip2"><path d="M1136.66-45.3221 1331.53 140.574 1145.63 335.441 950.768 149.545Z" fill-rule="evenodd" clip-rule="evenodd"/></clipPath><clipPath id="clip3"><path d="M1136.66-45.3221 1331.53 140.574 1145.63 335.441 950.768 149.545Z" fill-rule="evenodd" clip-rule="evenodd"/></clipPath><clipPath id="clip4"><path d="M2385.9 471.736 2580.76 657.632 2394.87 852.499 2200 666.603Z" fill-rule="evenodd" clip-rule="evenodd"/></clipPath><clipPath id="clip5"><path d="M2385.9 471.736 2580.76 657.632 2394.87 852.499 2200 666.603Z" fill-rule="evenodd" clip-rule="evenodd"/></clipPath><clipPath id="clip6"><path d="M2385.9 471.736 2580.76 657.632 2394.87 852.499 2200 666.603Z" fill-rule="evenodd" clip-rule="evenodd"/></clipPath><clipPath id="clip7"><path d="M1517.43 907.097 1712.29 1092.99 1526.4 1287.86 1331.53 1101.96Z" fill-rule="evenodd" clip-rule="evenodd"/></clipPath><clipPath id="clip8"><path d="M1517.43 907.097 1712.29 1092.99 1526.4 1287.86 1331.53 1101.96Z" fill-rule="evenodd" clip-rule="evenodd"/></clipPath><clipPath id="clip9"><path d="M1517.43 907.097 1712.29 1092.99 1526.4 1287.86 1331.53 1101.96Z" fill-rule="evenodd" clip-rule="evenodd"/></clipPath><clipPath id="clip10"><path d="M3567.47 1287.86 3762.33 1473.76 3576.44 1668.62 3381.57 1482.73Z" fill-rule="evenodd" clip-rule="evenodd"/></clipPath><clipPath id="clip11"><path d="M3567.47 1287.86 3762.33 1473.76 3576.44 1668.62 3381.57 1482.73Z" fill-rule="evenodd" clip-rule="evenodd"/></clipPath><clipPath id="clip12"><path d="M3567.47 1287.86 3762.33 1473.76 3576.44 1668.62 3381.57 1482.73Z" fill-rule="evenodd" clip-rule="evenodd"/></clipPath><clipPath id="clip13"><path d="M3670.84 142.801 3865.71 328.697 3679.81 523.564 3484.94 337.668Z" fill-rule="evenodd" clip-rule="evenodd"/></clipPath><clipPath id="clip14"><path d="M3670.84 142.801 3865.71 328.697 3679.81 523.564 3484.94 337.668Z" fill-rule="evenodd" clip-rule="evenodd"/></clipPath><clipPath id="clip15"><path d="M3670.84 142.801 3865.71 328.697 3679.81 523.564 3484.94 337.668Z" fill-rule="evenodd" clip-rule="evenodd"/></clipPath><clipPath id="clip16"><path d="M1093.66 1590.03 1288.53 1775.93 1102.63 1970.79 907.766 1784.9Z" fill-rule="evenodd" clip-rule="evenodd"/></clipPath><clipPath id="clip17"><path d="M1093.66 1590.03 1288.53 1775.93 1102.63 1970.79 907.766 1784.9Z" fill-rule="evenodd" clip-rule="evenodd"/></clipPath><clipPath id="clip18"><path d="M1093.66 1590.03 1288.53 1775.93 1102.63 1970.79 907.766 1784.9Z" fill-rule="evenodd" clip-rule="evenodd"/></clipPath><clipPath id="clip19"><path d="M2241.57 1866.82 2436.44 2052.71 2250.54 2247.58 2055.67 2061.68Z" fill-rule="evenodd" clip-rule="evenodd"/></clipPath><clipPath id="clip20"><path d="M2241.57 1866.82 2436.44 2052.71 2250.54 2247.58 2055.67 2061.68Z" fill-rule="evenodd" clip-rule="evenodd"/></clipPath><clipPath id="clip21"><path d="M2241.57 1866.82 2436.44 2052.71 2250.54 2247.58 2055.67 2061.68Z" fill-rule="evenodd" clip-rule="evenodd"/></clipPath><clipPath id="clip22"><path d="M238.05 662.118 432.917 848.014 247.02 1042.88 52.1535 856.985Z" fill-rule="evenodd" clip-rule="evenodd"/></clipPath><clipPath id="clip23"><path d="M238.05 662.118 432.917 848.014 247.02 1042.88 52.1535 856.985Z" fill-rule="evenodd" clip-rule="evenodd"/></clipPath><clipPath id="clip24"><path d="M238.05 662.118 432.917 848.014 247.02 1042.88 52.1535 856.985Z" fill-rule="evenodd" clip-rule="evenodd"/></clipPath></defs><g clip-path="url(#clip0)" transform="translate(-52 46)"><g clip-path="url(#clip1)"><g clip-path="url(#clip2)"><g clip-path="url(#clip3)"><path d="M1097.75 103.55C1099.39 101.84 1101.14 100.23 1102.98 98.7278L1075.52 72.528 1065.84 82.6773 1093.28 108.858C1094.67 107.004 1096.16 105.232 1097.75 103.55Z" fill="#BF9000"/><path d="M1182.68 101.549C1184.37 103.175 1185.96 104.899 1187.45 106.713L1213.7 79.1937 1203.55 69.5116 1177.3 97.0304C1179.18 98.4294 1180.98 99.9382 1182.68 101.549Z" fill="#BF9000"/><path d="M1200.96 150.555 1238.99 149.661 1238.66 135.643 1200.61 136.537C1201.27 141.18 1201.39 145.885 1200.96 150.555Z" fill="#BF9000"/><path d="M1146.89 85.2839 1145.99 47.2433 1131.97 47.5736 1132.87 85.5924C1137.51 84.9468 1142.22 84.8433 1146.89 85.2839Z" fill="#BF9000"/><path d="M1135.67 204.765 1136.57 242.657 1150.59 242.325 1149.7 204.411C1145.05 205.073 1140.34 205.191 1135.67 204.765Z" fill="#BF9000"/><path d="M1189.25 181.026C1186.48 184.811 1183.23 188.228 1179.59 191.194L1207.03 217.375 1216.72 207.225Z" fill="#BF9000"/><path d="M1099.75 188.486C1098.06 186.859 1096.47 185.134 1094.98 183.322L1068.85 210.709 1079 220.391 1105.13 193.004C1103.25 191.604 1101.45 190.095 1099.75 188.486Z" fill="#BF9000"/><path d="M1081.47 139.338 1043.56 140.231 1043.9 154.258 1081.79 153.365C1081.14 148.717 1081.04 144.01 1081.47 139.338Z" fill="#BF9000"/><path d="M1176.56 178.737C1157.94 198.259 1127.02 198.988 1107.49 180.364 1087.97 161.741 1087.24 130.818 1105.87 111.295 1124.49 91.7732 1155.41 91.0447 1174.93 109.668 1194.46 128.292 1195.19 159.215 1176.56 178.737Z" fill="#BF9000"/></g></g></g><g clip-path="url(#clip4)"><g clip-path="url(#clip5)"><g clip-path="url(#clip6)"><path d="M2346.98 620.608C2348.63 618.898 2350.38 617.288 2352.21 615.786L2324.75 589.586 2315.07 599.735 2342.51 625.916C2343.9 624.062 2345.39 622.29 2346.98 620.608Z" fill="#BF9000"/><path d="M2431.91 618.607C2433.6 620.233 2435.19 621.957 2436.68 623.771L2462.93 596.252 2452.78 586.57 2426.53 614.089C2428.41 615.488 2430.21 616.996 2431.91 618.607Z" fill="#BF9000"/><path d="M2450.2 667.613 2488.22 666.72 2487.89 652.701 2449.84 653.595C2450.5 658.238 2450.62 662.943 2450.2 667.613Z" fill="#BF9000"/><path d="M2396.12 602.342 2395.22 564.301 2381.2 564.632 2382.1 602.651C2386.74 602.005 2391.45 601.901 2396.12 602.342Z" fill="#BF9000"/><path d="M2384.9 721.823 2385.8 759.715 2399.82 759.383 2398.93 721.469C2394.28 722.131 2389.57 722.249 2384.9 721.823Z" fill="#BF9000"/><path d="M2438.48 698.084C2435.71 701.869 2432.46 705.286 2428.82 708.252L2456.27 734.433 2465.95 724.283Z" fill="#BF9000"/><path d="M2348.98 705.544C2347.29 703.917 2345.7 702.193 2344.21 700.38L2318.08 727.767 2328.23 737.449 2354.36 710.062C2352.48 708.662 2350.68 707.153 2348.98 705.544Z" fill="#BF9000"/><path d="M2330.7 656.396 2292.79 657.289 2293.13 671.316 2331.02 670.423C2330.38 665.775 2330.27 661.068 2330.7 656.396Z" fill="#BF9000"/><path d="M2425.79 695.795C2407.17 715.317 2376.25 716.046 2356.73 697.422 2337.2 678.799 2336.47 647.876 2355.1 628.354 2373.72 608.831 2404.64 608.103 2424.17 626.726 2443.69 645.35 2444.42 676.273 2425.79 695.795Z" fill="#BF9000"/></g></g></g><g clip-path="url(#clip7)"><g clip-path="url(#clip8)"><g clip-path="url(#clip9)"><path d="M1478.51 1055.97C1480.16 1054.26 1481.91 1052.65 1483.75 1051.15L1456.28 1024.95 1446.6 1035.1 1474.04 1061.28C1475.43 1059.42 1476.92 1057.65 1478.51 1055.97Z" fill="#BF9000"/><path d="M1563.44 1053.97C1565.13 1055.59 1566.72 1057.32 1568.21 1059.13L1594.46 1031.61 1584.31 1021.93 1558.06 1049.45C1559.94 1050.85 1561.74 1052.36 1563.44 1053.97Z" fill="#BF9000"/><path d="M1581.73 1102.97 1619.75 1102.08 1619.42 1088.06 1581.38 1088.96C1582.04 1093.6 1582.15 1098.3 1581.73 1102.97Z" fill="#BF9000"/><path d="M1527.65 1037.7 1526.75 999.663 1512.73 999.993 1513.63 1038.01C1518.28 1037.37 1522.98 1037.26 1527.65 1037.7Z" fill="#BF9000"/><path d="M1516.43 1157.19 1517.33 1195.08 1531.35 1194.74 1530.46 1156.83C1525.81 1157.49 1521.11 1157.61 1516.43 1157.19Z" fill="#BF9000"/><path d="M1570.01 1133.45C1567.24 1137.23 1563.99 1140.65 1560.35 1143.61L1587.8 1169.79 1597.48 1159.64Z" fill="#BF9000"/><path d="M1480.51 1140.91C1478.82 1139.28 1477.23 1137.55 1475.74 1135.74L1449.62 1163.13 1459.77 1172.81 1485.89 1145.42C1484.01 1144.02 1482.21 1142.51 1480.51 1140.91Z" fill="#BF9000"/><path d="M1462.23 1091.76 1424.32 1092.65 1424.67 1106.68 1462.56 1105.78C1461.91 1101.14 1461.8 1096.43 1462.23 1091.76Z" fill="#BF9000"/><path d="M1557.33 1131.16C1538.7 1150.68 1507.78 1151.41 1488.26 1132.78 1468.73 1114.16 1468.01 1083.24 1486.63 1063.72 1505.25 1044.19 1536.18 1043.46 1555.7 1062.09 1575.22 1080.71 1575.95 1111.63 1557.33 1131.16Z" fill="#BF9000"/></g></g></g><g clip-path="url(#clip10)"><g clip-path="url(#clip11)"><g clip-path="url(#clip12)"><path d="M3528.55 1436.73C3530.2 1435.02 3531.95 1433.41 3533.79 1431.91L3506.32 1405.71 3496.64 1415.86 3524.08 1442.04C3525.47 1440.19 3526.96 1438.41 3528.55 1436.73Z" fill="#BF9000"/><path d="M3613.48 1434.73C3615.17 1436.36 3616.76 1438.08 3618.25 1439.9L3644.5 1412.38 3634.35 1402.69 3608.1 1430.21C3609.98 1431.61 3611.78 1433.12 3613.48 1434.73Z" fill="#BF9000"/><path d="M3631.77 1483.74 3669.79 1482.84 3669.46 1468.83 3631.42 1469.72C3632.08 1474.36 3632.19 1479.07 3631.77 1483.74Z" fill="#BF9000"/><path d="M3577.69 1418.47 3576.79 1380.43 3562.77 1380.76 3563.67 1418.78C3568.32 1418.13 3573.02 1418.03 3577.69 1418.47Z" fill="#BF9000"/><path d="M3566.47 1537.95 3567.37 1575.84 3581.39 1575.51 3580.5 1537.59C3575.85 1538.26 3571.15 1538.37 3566.47 1537.95Z" fill="#BF9000"/><path d="M3620.05 1514.21C3617.28 1517.99 3614.03 1521.41 3610.39 1524.38L3637.84 1550.56 3647.52 1540.41Z" fill="#BF9000"/><path d="M3530.55 1521.67C3528.86 1520.04 3527.27 1518.32 3525.78 1516.51L3499.66 1543.89 3509.81 1553.57 3535.93 1526.19C3534.05 1524.79 3532.25 1523.28 3530.55 1521.67Z" fill="#BF9000"/><path d="M3512.27 1472.52 3474.36 1473.41 3474.71 1487.44 3512.6 1486.55C3511.95 1481.9 3511.84 1477.19 3512.27 1472.52Z" fill="#BF9000"/><path d="M3607.37 1511.92C3588.74 1531.44 3557.82 1532.17 3538.3 1513.55 3518.77 1494.92 3518.05 1464 3536.67 1444.48 3555.29 1424.96 3586.22 1424.23 3605.74 1442.85 3625.26 1461.47 3625.99 1492.4 3607.37 1511.92Z" fill="#BF9000"/></g></g></g><g clip-path="url(#clip13)"><g clip-path="url(#clip14)"><g clip-path="url(#clip15)"><path d="M3631.92 291.673C3633.57 289.963 3635.32 288.353 3637.16 286.851L3609.69 260.651 3600.01 270.8 3627.46 296.981C3628.84 295.127 3630.33 293.355 3631.92 291.673Z" fill="#BF9000"/><path d="M3716.86 289.672C3718.55 291.298 3720.14 293.022 3721.62 294.836L3747.88 267.317 3737.73 257.635 3711.47 285.154C3713.36 286.553 3715.15 288.061 3716.86 289.672Z" fill="#BF9000"/><path d="M3735.14 338.678 3773.16 337.785 3772.83 323.766 3734.79 324.66C3735.45 329.303 3735.57 334.008 3735.14 338.678Z" fill="#BF9000"/><path d="M3681.06 273.407 3680.17 235.366 3666.15 235.697 3667.04 273.715C3671.69 273.07 3676.39 272.966 3681.06 273.407Z" fill="#BF9000"/><path d="M3669.85 392.889 3670.74 430.78 3684.77 430.448 3683.87 392.534C3679.23 393.196 3674.52 393.314 3669.85 392.889Z" fill="#BF9000"/><path d="M3723.43 369.149C3720.65 372.934 3717.4 376.351 3713.77 379.317L3741.21 405.498 3750.89 395.348Z" fill="#BF9000"/><path d="M3633.92 376.609C3632.23 374.982 3630.64 373.258 3629.16 371.445L3603.03 398.832 3613.18 408.514 3639.3 381.127C3637.42 379.727 3635.63 378.218 3633.92 376.609Z" fill="#BF9000"/><path d="M3615.65 327.461 3577.74 328.354 3578.08 342.381 3615.97 341.488C3615.32 336.84 3615.21 332.133 3615.65 327.461Z" fill="#BF9000"/><path d="M3710.74 366.86C3692.11 386.382 3661.19 387.111 3641.67 368.487 3622.15 349.864 3621.42 318.941 3640.04 299.419 3658.67 279.896 3689.59 279.168 3709.11 297.791 3728.63 316.415 3729.36 347.338 3710.74 366.86Z" fill="#BF9000"/></g></g></g><g clip-path="url(#clip16)"><g clip-path="url(#clip17)"><g clip-path="url(#clip18)"><path d="M1054.74 1738.9C1056.39 1737.19 1058.14 1735.58 1059.98 1734.08L1032.52 1707.88 1022.83 1718.03 1050.28 1744.21C1051.66 1742.35 1053.15 1740.58 1054.74 1738.9Z" fill="#BF9000"/><path d="M1139.68 1736.9C1141.37 1738.53 1142.96 1740.25 1144.45 1742.06L1170.7 1714.54 1160.55 1704.86 1134.3 1732.38C1136.18 1733.78 1137.98 1735.29 1139.68 1736.9Z" fill="#BF9000"/><path d="M1157.96 1785.91 1195.99 1785.01 1195.65 1770.99 1157.61 1771.89C1158.27 1776.53 1158.39 1781.24 1157.96 1785.91Z" fill="#BF9000"/><path d="M1103.89 1720.64 1102.99 1682.59 1088.97 1682.92 1089.87 1720.94C1094.51 1720.3 1099.22 1720.19 1103.89 1720.64Z" fill="#BF9000"/><path d="M1092.67 1840.12 1093.57 1878.01 1107.59 1877.68 1106.7 1839.76C1102.05 1840.42 1097.34 1840.54 1092.67 1840.12Z" fill="#BF9000"/><path d="M1146.25 1816.38C1143.47 1820.16 1140.23 1823.58 1136.59 1826.55L1164.03 1852.73 1173.71 1842.58Z" fill="#BF9000"/><path d="M1056.74 1823.84C1055.06 1822.21 1053.46 1820.49 1051.98 1818.67L1025.85 1846.06 1036 1855.74 1062.13 1828.36C1060.25 1826.95 1058.45 1825.45 1056.74 1823.84Z" fill="#BF9000"/><path d="M1038.47 1774.69 1000.56 1775.58 1000.9 1789.61 1038.79 1788.72C1038.14 1784.07 1038.03 1779.36 1038.47 1774.69Z" fill="#BF9000"/><path d="M1133.56 1814.09C1114.94 1833.61 1084.01 1834.34 1064.49 1815.72 1044.97 1797.09 1044.24 1766.17 1062.86 1746.65 1081.49 1727.12 1112.41 1726.4 1131.93 1745.02 1151.46 1763.64 1152.18 1794.57 1133.56 1814.09Z" fill="#BF9000"/></g></g></g><g clip-path="url(#clip19)"><g clip-path="url(#clip20)"><g clip-path="url(#clip21)"><path d="M2202.65 2015.69C2204.3 2013.98 2206.05 2012.37 2207.89 2010.87L2180.42 1984.67 2170.74 1994.82 2198.18 2021C2199.57 2019.14 2201.06 2017.37 2202.65 2015.69Z" fill="#BF9000"/><path d="M2287.59 2013.69C2289.27 2015.31 2290.87 2017.04 2292.35 2018.85L2318.6 1991.33 2308.45 1981.65 2282.2 2009.17C2284.08 2010.57 2285.88 2012.08 2287.59 2013.69Z" fill="#BF9000"/><path d="M2305.87 2062.69 2343.89 2061.8 2343.56 2047.78 2305.52 2048.68C2306.18 2053.32 2306.3 2058.02 2305.87 2062.69Z" fill="#BF9000"/><path d="M2251.79 1997.42 2250.9 1959.38 2236.87 1959.71 2237.77 1997.73C2242.42 1997.09 2247.12 1996.98 2251.79 1997.42Z" fill="#BF9000"/><path d="M2240.57 2116.91 2241.47 2154.8 2255.5 2154.46 2254.6 2116.55C2249.96 2117.21 2245.25 2117.33 2240.57 2116.91Z" fill="#BF9000"/><path d="M2294.16 2093.17C2291.38 2096.95 2288.13 2100.37 2284.49 2103.33L2311.94 2129.51 2321.62 2119.36Z" fill="#BF9000"/><path d="M2204.65 2100.63C2202.96 2099 2201.37 2097.27 2199.88 2095.46L2173.76 2122.85 2183.91 2132.53 2210.03 2105.14C2208.15 2103.74 2206.36 2102.23 2204.65 2100.63Z" fill="#BF9000"/><path d="M2186.38 2051.48 2148.47 2052.37 2148.81 2066.4 2186.7 2065.5C2186.05 2060.86 2185.94 2056.15 2186.38 2051.48Z" fill="#BF9000"/><path d="M2281.47 2090.88C2262.84 2110.4 2231.92 2111.13 2212.4 2092.5 2192.88 2073.88 2192.15 2042.96 2210.77 2023.44 2229.39 2003.91 2260.32 2003.18 2279.84 2021.81 2299.36 2040.43 2300.09 2071.35 2281.47 2090.88Z" fill="#BF9000"/></g></g></g><g clip-path="url(#clip22)"><g clip-path="url(#clip23)"><g clip-path="url(#clip24)"><path d="M199.132 810.99C200.78 809.28 202.529 807.67 204.368 806.168L176.904 779.968 167.222 790.117 194.665 816.298C196.051 814.444 197.542 812.672 199.132 810.99Z" fill="#BF9000"/><path d="M284.066 808.989C285.755 810.615 287.347 812.339 288.833 814.153L315.085 786.634 304.935 776.952 278.683 804.47C280.565 805.869 282.362 807.378 284.066 808.989Z" fill="#BF9000"/><path d="M302.35 857.995 340.373 857.102 340.041 843.083 301.998 843.977C302.658 848.62 302.777 853.325 302.35 857.995Z" fill="#BF9000"/><path d="M248.272 792.724 247.376 754.683 233.355 755.014 234.253 793.032C238.898 792.387 243.603 792.283 248.272 792.724Z" fill="#BF9000"/><path d="M237.054 912.205 237.953 950.097 251.976 949.765 251.083 911.851C246.436 912.513 241.728 912.631 237.054 912.205Z" fill="#BF9000"/><path d="M290.637 888.466C287.861 892.251 284.614 895.668 280.975 898.634L308.419 924.815 318.101 914.665Z" fill="#BF9000"/><path d="M201.131 895.926C199.443 894.299 197.851 892.574 196.364 890.762L170.238 918.149 180.387 927.831 206.514 900.444C204.633 899.044 202.836 897.535 201.131 895.926Z" fill="#BF9000"/><path d="M182.857 846.778 144.947 847.671 145.288 861.698 183.178 860.805C182.529 856.157 182.422 851.45 182.857 846.778Z" fill="#BF9000"/><path d="M277.948 886.177C259.324 905.699 228.401 906.428 208.879 887.804 189.356 869.181 188.628 838.258 207.251 818.735 225.875 799.213 256.798 798.485 276.32 817.108 295.842 835.732 296.571 866.655 277.948 886.177Z" fill="#BF9000"/></g></g></g></g></svg>