<svg width="1919" height="335" xmlns="http://www.w3.org/2000/svg" xmlns:xlink="http://www.w3.org/1999/xlink" xml:space="preserve" overflow="hidden"><defs><clipPath id="clip0"><rect x="881" y="71" width="1919" height="335"/></clipPath><clipPath id="clip1"><rect x="881" y="74" width="331" height="331"/></clipPath><clipPath id="clip2"><rect x="881" y="74" width="331" height="331"/></clipPath><clipPath id="clip3"><rect x="881" y="74" width="331" height="331"/></clipPath><clipPath id="clip4"><rect x="1271" y="147" width="145" height="145"/></clipPath><clipPath id="clip5"><rect x="1271" y="147" width="145" height="145"/></clipPath><clipPath id="clip6"><rect x="1271" y="147" width="145" height="145"/></clipPath><clipPath id="clip7"><rect x="1978" y="73" width="331" height="331"/></clipPath><clipPath id="clip8"><rect x="1978" y="73" width="331" height="331"/></clipPath><clipPath id="clip9"><rect x="1978" y="73" width="331" height="331"/></clipPath><clipPath id="clip10"><rect x="1837" y="166" width="145" height="145"/></clipPath><clipPath id="clip11"><rect x="1837" y="166" width="145" height="145"/></clipPath><clipPath id="clip12"><rect x="1837" y="166" width="145" height="145"/></clipPath><clipPath id="clip13"><rect x="2297" y="166" width="145" height="145"/></clipPath><clipPath id="clip14"><rect x="2297" y="166" width="145" height="145"/></clipPath><clipPath id="clip15"><rect x="2297" y="166" width="145" height="145"/></clipPath><clipPath id="clip16"><rect x="2469" y="72" width="331" height="331"/></clipPath><clipPath id="clip17"><rect x="2469" y="72" width="331" height="331"/></clipPath><clipPath id="clip18"><rect x="2469" y="72" width="331" height="331"/></clipPath><clipPath id="clip19"><rect x="1475" y="73" width="331" height="331"/></clipPath><clipPath id="clip20"><rect x="1475" y="73" width="331" height="331"/></clipPath><clipPath id="clip21"><rect x="1475" y="73" width="331" height="331"/></clipPath></defs><g clip-path="url(#clip0)" transform="translate(-881 -71)"><g clip-path="url(#clip1)"><g clip-path="url(#clip2)"><g clip-path="url(#clip3)"><path d="M1138.69 244.312 1117.86 126.297C1116.24 118.082 1110.47 111.299 1102.62 108.385L1074.24 96.1866C1071.71 95.1016 1070.08 92.6178 1070.08 89.8701L1070.08 85.3124C1070.08 83.414 1068.54 81.8749 1066.64 81.8749L1063.2 81.8749C1055.61 81.8749 1049.45 88.031 1049.45 95.6249L1049.45 136.875C1049.45 138.775 1047.91 140.314 1046.01 140.314 1044.11 140.314 1042.57 138.775 1042.57 136.875L1042.57 95.6249C1042.57 88.031 1036.42 81.8749 1028.82 81.8749L1025.38 81.8749C1023.49 81.8749 1021.95 83.414 1021.95 85.3124L1021.95 89.8701C1021.95 92.6178 1020.31 95.1017 1017.79 96.1866L989.403 108.385C981.553 111.299 975.782 118.082 974.161 126.297L953.329 244.312C952.792 246.973 954.514 249.566 957.175 250.104 957.528 250.175 957.887 250.208 958.246 250.2L978.404 250.2C980.712 250.212 982.689 248.55 983.075 246.274L1000.38 158.937C1000.39 158.919 1000.41 158.907 1000.42 158.911 1000.44 158.914 1000.45 158.929 1000.45 158.946L996.192 229.779C993.355 256.571 982.168 368.061 981.144 373.987 980.672 376.353 982.059 378.694 984.359 379.418 1004.54 384.469 1025.22 387.284 1046.01 387.812 1066.81 387.284 1087.48 384.469 1107.66 379.418 1109.96 378.694 1111.35 376.353 1110.88 373.987 1109.86 368.061 1098.67 256.571 1095.83 229.779L1091.57 158.946C1091.57 158.927 1091.59 158.911 1091.6 158.91 1091.62 158.909 1091.64 158.921 1091.64 158.938L1108.95 246.275C1109.33 248.55 1111.31 250.212 1113.62 250.2L1133.78 250.2C1136.49 250.254 1138.74 248.097 1138.79 245.382 1138.8 245.023 1138.77 244.664 1138.69 244.312ZM1059.76 130C1057.86 130 1056.32 128.461 1056.32 126.562 1056.32 124.664 1057.86 123.125 1059.76 123.125 1061.66 123.125 1063.2 124.664 1063.2 126.562 1063.2 128.461 1061.66 130 1059.76 130ZM1059.76 116.25C1057.86 116.25 1056.32 114.711 1056.32 112.812 1056.32 110.914 1057.86 109.375 1059.76 109.375 1061.66 109.375 1063.2 110.914 1063.2 112.812 1063.2 114.711 1061.66 116.25 1059.76 116.25Z" fill="#D5D9D4"/></g></g></g><path d="M0 0 0.000360892 330" stroke="#1B1C1E" stroke-width="9.16667" stroke-miterlimit="8" fill="none" fill-rule="evenodd" transform="matrix(1 0 0 -1 1046.5 405.5)"/><g clip-path="url(#clip4)"><g clip-path="url(#clip5)"><g clip-path="url(#clip6)"><path d="M1404 210 1353 210 1353 159 1335 159 1335 210 1284 210 1284 228 1335 228 1335 279 1353 279 1353 228 1404 228Z" fill="#D5D9D4"/></g></g></g><g clip-path="url(#clip7)"><g clip-path="url(#clip8)"><g clip-path="url(#clip9)"><path d="M2226.5 101.5 2226.5 94.6249C2226.5 90.8437 2223.41 87.7499 2219.62 87.7499L2144 87.7499 2068.38 87.7499C2064.59 87.7499 2061.5 90.8437 2061.5 94.6249L2061.5 101.5 2092.44 101.5 2092.44 115.25 2061.5 115.25 2061.5 390.25 2113.06 390.25 2144 163.375 2174.94 390.25 2226.5 390.25 2226.5 115.25 2195.56 115.25 2195.56 101.5 2226.5 101.5ZM2106.19 115.25 2106.19 101.5 2137.12 101.5 2137.12 115.25 2106.19 115.25ZM2181.81 115.25 2150.88 115.25 2150.88 101.5 2181.81 101.5 2181.81 115.25Z" fill="#D5D9D4"/></g></g></g><g clip-path="url(#clip10)"><g clip-path="url(#clip11)"><g clip-path="url(#clip12)"><path d="M1969 229 1918 229 1918 178 1900 178 1900 229 1849 229 1849 247 1900 247 1900 298 1918 298 1918 247 1969 247Z" fill="#D5D9D4"/></g></g></g><g clip-path="url(#clip13)"><g clip-path="url(#clip14)"><g clip-path="url(#clip15)"><path d="M2430 229 2379 229 2379 178 2361 178 2361 229 2310 229 2310 247 2361 247 2361 298 2379 298 2379 247 2430 247Z" fill="#D5D9D4"/></g></g></g><g clip-path="url(#clip16)"><g clip-path="url(#clip17)"><g clip-path="url(#clip18)"><path d="M2504.37 148.625 2624.69 148.625C2628.47 148.625 2631.56 151.719 2631.56 155.5L2631.56 162.375C2631.56 166.156 2628.47 169.25 2624.69 169.25L2497.5 169.25 2497.5 155.5C2497.5 151.719 2500.59 148.625 2504.37 148.625Z" fill="#D5D9D4"/><path d="M2772.5 323.937 2738.12 323.937 2734.69 323.937 2731.25 323.937 2720.94 313.625 2710.62 323.937 2700.31 313.625 2690 323.937 2679.69 313.625 2669.37 323.937 2659.06 313.625 2648.75 323.937 2638.44 313.625 2628.12 323.937 2617.81 313.625 2607.5 323.937 2597.19 313.625 2586.87 323.937 2576.56 313.625 2566.25 323.937 2497.5 323.937 2497.5 303.312 2772.5 303.312Z" fill="#D5D9D4"/><path d="M2724.37 238 2724.37 289.562 2772.5 289.562C2772.5 289.562 2771.81 238 2724.37 238Z" fill="#D5D9D4"/><path d="M2676.25 258.625C2672.47 258.625 2669.37 255.531 2669.37 251.75 2669.37 247.969 2672.47 244.875 2676.25 244.875 2680.03 244.875 2683.12 247.969 2683.12 251.75 2683.12 255.531 2680.03 258.625 2676.25 258.625ZM2652.19 248.312C2648.41 248.312 2645.31 245.219 2645.31 241.437 2645.31 237.656 2648.41 234.562 2652.19 234.562 2655.97 234.562 2659.06 237.656 2659.06 241.437 2659.06 245.219 2655.97 248.312 2652.19 248.312ZM2631.56 231.125C2627.78 231.125 2624.69 228.031 2624.69 224.25 2624.69 220.469 2627.78 217.375 2631.56 217.375 2635.34 217.375 2638.44 220.469 2638.44 224.25 2638.44 228.031 2635.34 231.125 2631.56 231.125ZM2617.81 210.5C2614.03 210.5 2610.94 207.406 2610.94 203.625 2610.94 199.844 2614.03 196.75 2617.81 196.75 2621.59 196.75 2624.69 199.844 2624.69 203.625 2624.69 207.406 2621.59 210.5 2617.81 210.5ZM2632.94 187.812C2631.91 185.062 2629.5 183 2626.41 183L2497.5 183 2497.5 210.5C2499.22 210.5 2530.16 210.5 2552.16 232.156 2565.91 246.25 2573.12 265.5 2573.12 289.562L2710.62 289.562 2710.62 238C2710.62 238 2649.09 237.656 2632.94 187.812Z" fill="#D5D9D4"/><path d="M2497.5 289.562 2559.37 289.562C2559.37 269.281 2553.53 253.469 2542.53 242.125 2524.31 224.25 2497.5 224.25 2497.5 224.25L2497.5 289.562Z" fill="#D5D9D4"/></g></g></g><g clip-path="url(#clip19)"><g clip-path="url(#clip20)"><g clip-path="url(#clip21)"><path d="M1780.25 344.531 1740.72 156.5C1738.31 145.156 1730.41 135.531 1719.41 131.406L1674.38 111.812C1673 111.125 1671.62 111.125 1670.25 111.469 1665.78 112.5 1657.19 125.906 1640 125.906 1622.81 125.906 1614.22 112.156 1609.75 111.469 1608.38 111.125 1607 111.469 1605.62 111.812L1560.59 131.406C1549.59 135.531 1541.69 144.812 1539.28 156.5L1499.75 344.531C1498.72 348.656 1502.16 352.781 1506.62 352.781L1534.81 352.781C1537.91 352.781 1540.66 350.719 1541.34 347.281L1574.69 201.531C1579.16 258.25 1568.84 327 1565.41 346.937 1564.72 350.375 1566.78 353.469 1569.88 354.5 1581.56 358.281 1610.09 366.187 1640 366.187 1669.91 366.187 1698.09 358.281 1710.12 354.5 1713.22 353.469 1715.28 350.375 1714.59 346.937 1711.16 327 1700.84 257.906 1705.31 201.531L1738.66 347.281C1739.34 350.375 1742.09 352.781 1745.19 352.781L1773.38 352.781C1777.84 352.781 1780.94 349 1780.25 344.531Z" fill="#D5D9D4"/></g></g></g></g></svg>