<svg width="1353" height="341" xmlns="http://www.w3.org/2000/svg" xmlns:xlink="http://www.w3.org/1999/xlink" xml:space="preserve" overflow="hidden"><defs><clipPath id="clip0"><rect x="1475" y="934" width="1353" height="341"/></clipPath><clipPath id="clip1"><rect x="2312" y="1030" width="145" height="146"/></clipPath><clipPath id="clip2"><rect x="2312" y="1030" width="145" height="146"/></clipPath><clipPath id="clip3"><rect x="2312" y="1030" width="145" height="146"/></clipPath><clipPath id="clip4"><rect x="2498" y="933" width="331" height="331"/></clipPath><clipPath id="clip5"><rect x="2498" y="933" width="331" height="331"/></clipPath><clipPath id="clip6"><rect x="2498" y="933" width="331" height="331"/></clipPath><clipPath id="clip7"><rect x="1834" y="1021" width="145" height="145"/></clipPath><clipPath id="clip8"><rect x="1834" y="1021" width="145" height="145"/></clipPath><clipPath id="clip9"><rect x="1834" y="1021" width="145" height="145"/></clipPath><clipPath id="clip10"><rect x="1475" y="933" width="331" height="331"/></clipPath><clipPath id="clip11"><rect x="1475" y="933" width="331" height="331"/></clipPath><clipPath id="clip12"><rect x="1475" y="933" width="331" height="331"/></clipPath><clipPath id="clip13"><rect x="1978" y="944" width="331" height="331"/></clipPath><clipPath id="clip14"><rect x="1978" y="944" width="331" height="331"/></clipPath><clipPath id="clip15"><rect x="1978" y="944" width="331" height="331"/></clipPath></defs><g clip-path="url(#clip0)" transform="translate(-1475 -934)"><g clip-path="url(#clip1)"><g clip-path="url(#clip2)"><g clip-path="url(#clip3)"><path d="M132 63 81 63 81 12 63 12 63 63 12 63 12 81 63 81 63 132 81 132 81 81 132 81Z" fill="#D5D9D4" transform="matrix(1 0 0 1.00694 2312 1031)"/></g></g></g><g clip-path="url(#clip4)"><g clip-path="url(#clip5)"><g clip-path="url(#clip6)"><path d="M2696 1149.19 2694.62 1149.19C2684.66 1147.81 2674.34 1145.75 2663 1143 2645.81 1139.22 2627.59 1135.09 2611.09 1135.09L2535.81 1135.09C2527.56 1135.09 2521.38 1132.69 2516.91 1129.94 2514.84 1128.56 2511.75 1129.94 2511.75 1132.69L2511.75 1166.03 2590.81 1166.03 2597.69 1148.84 2611.44 1148.84C2626.56 1148.84 2643.75 1152.62 2660.25 1156.41 2671.25 1158.81 2682.59 1161.22 2692.91 1162.59L2694.28 1162.59C2704.59 1163.97 2715.94 1165.34 2729 1165.34 2751.69 1165.34 2778.84 1160.88 2814.25 1143.34L2814.25 1133.38C2814.25 1130.97 2811.5 1129.25 2809.09 1130.28 2756.84 1156.75 2723.16 1152.62 2696 1149.19Z" fill="#D5D9D4"/><path d="M2790.19 1104.16C2761.31 1107.25 2738.28 1100.03 2717.31 1089.03L2706.66 1099.69C2705.97 1100.38 2704.94 1100.72 2704.25 1100.72 2703.56 1100.72 2702.53 1100.38 2701.84 1099.69 2700.47 1098.31 2700.47 1096.25 2701.84 1094.88L2711.12 1085.59C2704.59 1081.81 2698.06 1077.69 2691.88 1073.22L2679.16 1085.94C2678.47 1086.62 2677.44 1086.97 2676.75 1086.97 2676.06 1086.97 2675.03 1086.62 2674.34 1085.94 2672.97 1084.56 2672.97 1082.5 2674.34 1081.12L2686.38 1069.09C2680.19 1064.62 2674.34 1060.16 2668.16 1055.69L2651.66 1072.19C2650.97 1072.88 2649.94 1073.22 2649.25 1073.22 2648.56 1073.22 2647.53 1072.88 2646.84 1072.19 2645.47 1070.81 2645.47 1068.75 2646.84 1067.38L2662.66 1051.56C2652.69 1044.34 2642.38 1037.81 2631.72 1032.66 2626.91 1030.59 2621.75 1033.69 2621.75 1038.84L2621.75 1049.16C2577.06 1067.03 2542 1057.06 2528.59 1051.56 2525.16 1050.19 2521.03 1051.91 2519.66 1055.34 2514.16 1069.09 2511.75 1089.38 2511.75 1097.28 2511.75 1114.47 2517.25 1121.69 2520.69 1124.09 2523.09 1125.47 2528.25 1128.22 2535.81 1128.22L2611.44 1128.22C2628.97 1128.22 2647.19 1132.34 2664.72 1136.12 2675.72 1138.53 2686.03 1140.94 2695.66 1141.97L2697.03 1141.97C2707 1143.34 2716.97 1144.38 2728.66 1144.38 2752.72 1144.38 2777.47 1138.19 2803.59 1125.47 2806 1124.09 2807.72 1121.69 2807.38 1118.59 2807.03 1114.12 2801.19 1103.12 2790.19 1104.16Z" fill="#D5D9D4"/></g></g></g><g clip-path="url(#clip7)"><g clip-path="url(#clip8)"><g clip-path="url(#clip9)"><path d="M1967 1085 1916 1085 1916 1034 1898 1034 1898 1085 1847 1085 1847 1103 1898 1103 1898 1154 1916 1154 1916 1103 1967 1103Z" fill="#D5D9D4"/></g></g></g><g clip-path="url(#clip10)"><g clip-path="url(#clip11)"><g clip-path="url(#clip12)"><path d="M1640 1171.19C1636.22 1171.19 1633.12 1168.09 1633.12 1164.31 1633.12 1160.53 1636.22 1157.44 1640 1157.44 1643.78 1157.44 1646.88 1160.53 1646.88 1164.31 1646.88 1168.09 1643.78 1171.19 1640 1171.19ZM1640 1195.25C1636.22 1195.25 1633.12 1192.16 1633.12 1188.38 1633.12 1184.59 1636.22 1181.5 1640 1181.5 1643.78 1181.5 1646.88 1184.59 1646.88 1188.38 1646.88 1192.16 1643.78 1195.25 1640 1195.25ZM1739.34 1031.62C1736.59 1006.19 1717.34 986.594 1692.59 982.812L1708.06 1013.41C1709.09 1015.47 1709.09 1018.22 1707.72 1020.28L1622.81 1156.06 1622.81 1215.88 1705.31 1215.88 1705.31 1103.47 1715.28 1200.75C1715.62 1202.47 1717 1203.84 1719.06 1203.84L1753.09 1200.41C1754.81 1200.06 1756.19 1198.69 1756.19 1196.62L1739.34 1031.62Z" fill="#D5D9D4"/><path d="M1620.41 1071.16 1597.03 993.812 1586.03 1016.16Z" fill="#D5D9D4"/><path d="M1693.97 1016.16 1682.97 993.812 1659.59 1071.16Z" fill="#D5D9D4"/><path d="M1572.28 1020.28C1570.91 1018.22 1570.91 1015.81 1571.94 1013.41L1587.41 982.812C1563 986.594 1543.41 1006.19 1540.66 1031.62L1523.47 1196.62C1523.12 1198.34 1524.5 1200.06 1526.56 1200.41L1560.59 1203.84C1562.31 1204.19 1564.03 1202.81 1564.38 1200.75L1574.69 1103.47 1574.69 1215.88 1609.06 1215.88 1609.06 1154C1609.06 1152.62 1609.41 1151.59 1610.09 1150.22L1631.75 1115.5 1572.28 1020.28Z" fill="#D5D9D4"/><path d="M1671.97 982.125 1608.03 982.125 1640 1088.69Z" fill="#D5D9D4"/></g></g></g><g clip-path="url(#clip13)"><g clip-path="url(#clip14)"><g clip-path="url(#clip15)"><path d="M2259.16 1212.44 2177.34 1069.44C2175.97 1066.69 2174.94 1063.94 2174.94 1060.84 2174.94 1059.47 2175.28 1057.75 2175.62 1056.38L2186.28 1016.84C2186.62 1015.12 2188.34 1014.09 2190.06 1014.44L2218.59 1017.19C2219.62 1017.19 2220.31 1016.84 2220.31 1015.81L2226.5 987.969C2226.84 987.281 2226.16 986.25 2225.47 985.906L2199 976.281C2192.12 973.875 2184.91 972.5 2177.69 972.5L2174.94 972.5C2172.88 972.5 2171.5 973.875 2171.5 975.937L2171.5 979.375C2171.5 994.5 2159.12 1006.87 2144 1006.87 2128.88 1006.87 2116.5 994.5 2116.5 979.375L2116.5 975.937C2116.5 973.875 2115.12 972.5 2113.06 972.5L2110.31 972.5C2103.09 972.5 2095.88 973.875 2089 976.281L2062.88 985.906C2062.19 986.25 2061.5 986.937 2061.84 987.969L2068.03 1015.81C2068.38 1016.5 2069.06 1017.19 2069.75 1017.19L2098.28 1014.44C2100 1014.44 2101.38 1015.47 2102.06 1016.84L2112.72 1056.38C2113.06 1057.75 2113.41 1059.47 2113.41 1060.84 2113.41 1063.94 2112.72 1066.69 2111 1069.44L2028.84 1212.44C2027.12 1215.53 2027.81 1219.31 2030.91 1221.38 2052.22 1236.84 2094.84 1247.5 2144 1247.5 2193.16 1247.5 2235.78 1236.84 2257.09 1221.38 2259.84 1219.31 2260.88 1215.53 2259.16 1212.44Z" fill="#D5D9D4"/></g></g></g></g></svg>