<svg width="1339" height="331" xmlns="http://www.w3.org/2000/svg" xmlns:xlink="http://www.w3.org/1999/xlink" xml:space="preserve" overflow="hidden"><defs><clipPath id="clip0"><rect x="1489" y="1314" width="1339" height="331"/></clipPath><clipPath id="clip1"><rect x="1851" y="1406" width="145" height="145"/></clipPath><clipPath id="clip2"><rect x="1851" y="1406" width="145" height="145"/></clipPath><clipPath id="clip3"><rect x="1851" y="1406" width="145" height="145"/></clipPath><clipPath id="clip4"><rect x="2312" y="1406" width="145" height="145"/></clipPath><clipPath id="clip5"><rect x="2312" y="1406" width="145" height="145"/></clipPath><clipPath id="clip6"><rect x="2312" y="1406" width="145" height="145"/></clipPath><clipPath id="clip7"><rect x="1489" y="1314" width="331" height="331"/></clipPath><clipPath id="clip8"><rect x="1489" y="1314" width="331" height="331"/></clipPath><clipPath id="clip9"><rect x="1489" y="1314" width="331" height="331"/></clipPath><clipPath id="clip10"><rect x="2498" y="1314" width="331" height="331"/></clipPath><clipPath id="clip11"><rect x="2498" y="1314" width="331" height="331"/></clipPath><clipPath id="clip12"><rect x="2498" y="1314" width="331" height="331"/></clipPath><clipPath id="clip13"><rect x="1981" y="1314" width="331" height="331"/></clipPath><clipPath id="clip14"><rect x="1981" y="1314" width="331" height="331"/></clipPath><clipPath id="clip15"><rect x="1981" y="1314" width="331" height="331"/></clipPath></defs><g clip-path="url(#clip0)" transform="translate(-1489 -1314)"><g clip-path="url(#clip1)"><g clip-path="url(#clip2)"><g clip-path="url(#clip3)"><path d="M1983 1470 1932 1470 1932 1419 1914 1419 1914 1470 1863 1470 1863 1488 1914 1488 1914 1539 1932 1539 1932 1488 1983 1488Z" fill="#D5D9D4"/></g></g></g><g clip-path="url(#clip4)"><g clip-path="url(#clip5)"><g clip-path="url(#clip6)"><path d="M2444 1470 2393 1470 2393 1419 2375 1419 2375 1470 2324 1470 2324 1488 2375 1488 2375 1539 2393 1539 2393 1488 2444 1488Z" fill="#D5D9D4"/></g></g></g><g clip-path="url(#clip7)"><g clip-path="url(#clip8)"><g clip-path="url(#clip9)"><path d="M1794.25 1585.53 1754.72 1397.5C1752.31 1386.16 1744.41 1376.53 1733.41 1372.41L1688.38 1352.81C1687 1352.12 1685.63 1352.12 1684.25 1352.47 1679.78 1353.5 1671.19 1366.91 1654 1366.91 1636.81 1366.91 1628.22 1353.16 1623.75 1352.47 1622.38 1352.12 1621 1352.47 1619.63 1352.81L1574.59 1372.41C1563.59 1376.53 1555.69 1385.81 1553.28 1397.5L1513.75 1585.53C1512.72 1589.66 1516.16 1593.78 1520.63 1593.78L1548.81 1593.78C1551.91 1593.78 1554.66 1591.72 1555.34 1588.28L1588.69 1442.53C1593.16 1499.25 1582.84 1568 1579.41 1587.94 1578.72 1591.37 1580.78 1594.47 1583.88 1595.5 1595.56 1599.28 1624.09 1607.19 1654 1607.19 1683.91 1607.19 1712.09 1599.28 1724.13 1595.5 1727.22 1594.47 1729.28 1591.37 1728.59 1587.94 1725.16 1568 1714.84 1498.91 1719.31 1442.53L1752.66 1588.28C1753.34 1591.37 1756.09 1593.78 1759.19 1593.78L1787.38 1593.78C1791.84 1593.78 1794.94 1590 1794.25 1585.53Z" fill="#D5D9D4"/></g></g></g><g clip-path="url(#clip10)"><g clip-path="url(#clip11)"><g clip-path="url(#clip12)"><path d="M2696 1529.19 2694.62 1529.19C2684.66 1527.81 2674.34 1525.75 2663 1523 2645.81 1519.22 2627.59 1515.09 2611.09 1515.09L2535.81 1515.09C2527.56 1515.09 2521.38 1512.69 2516.91 1509.94 2514.84 1508.56 2511.75 1509.94 2511.75 1512.69L2511.75 1546.03 2590.81 1546.03 2597.69 1528.84 2611.44 1528.84C2626.56 1528.84 2643.75 1532.63 2660.25 1536.41 2671.25 1538.81 2682.59 1541.22 2692.91 1542.59L2694.28 1542.59C2704.59 1543.97 2715.94 1545.34 2729 1545.34 2751.69 1545.34 2778.84 1540.88 2814.25 1523.34L2814.25 1513.38C2814.25 1510.97 2811.5 1509.25 2809.09 1510.28 2756.84 1536.75 2723.16 1532.63 2696 1529.19Z" fill="#D5D9D4"/><path d="M2790.19 1484.16C2761.31 1487.25 2738.28 1480.03 2717.31 1469.03L2706.66 1479.69C2705.97 1480.38 2704.94 1480.72 2704.25 1480.72 2703.56 1480.72 2702.53 1480.38 2701.84 1479.69 2700.47 1478.31 2700.47 1476.25 2701.84 1474.88L2711.12 1465.59C2704.59 1461.81 2698.06 1457.69 2691.88 1453.22L2679.16 1465.94C2678.47 1466.63 2677.44 1466.97 2676.75 1466.97 2676.06 1466.97 2675.03 1466.63 2674.34 1465.94 2672.97 1464.56 2672.97 1462.5 2674.34 1461.13L2686.38 1449.09C2680.19 1444.63 2674.34 1440.16 2668.16 1435.69L2651.66 1452.19C2650.97 1452.88 2649.94 1453.22 2649.25 1453.22 2648.56 1453.22 2647.53 1452.88 2646.84 1452.19 2645.47 1450.81 2645.47 1448.75 2646.84 1447.38L2662.66 1431.56C2652.69 1424.34 2642.38 1417.81 2631.72 1412.66 2626.91 1410.59 2621.75 1413.69 2621.75 1418.84L2621.75 1429.16C2577.06 1447.03 2542 1437.06 2528.59 1431.56 2525.16 1430.19 2521.03 1431.91 2519.66 1435.34 2514.16 1449.09 2511.75 1469.38 2511.75 1477.28 2511.75 1494.47 2517.25 1501.69 2520.69 1504.09 2523.09 1505.47 2528.25 1508.22 2535.81 1508.22L2611.44 1508.22C2628.97 1508.22 2647.19 1512.34 2664.72 1516.13 2675.72 1518.53 2686.03 1520.94 2695.66 1521.97L2697.03 1521.97C2707 1523.34 2716.97 1524.38 2728.66 1524.38 2752.72 1524.38 2777.47 1518.19 2803.59 1505.47 2806 1504.09 2807.72 1501.69 2807.38 1498.59 2807.03 1494.13 2801.19 1483.13 2790.19 1484.16Z" fill="#D5D9D4"/></g></g></g><g clip-path="url(#clip13)"><g clip-path="url(#clip14)"><g clip-path="url(#clip15)"><path d="M2228.5 1341.5 2228.5 1334.63C2228.5 1330.84 2225.41 1327.75 2221.62 1327.75L2146 1327.75 2070.38 1327.75C2066.59 1327.75 2063.5 1330.84 2063.5 1334.63L2063.5 1341.5 2094.44 1341.5 2094.44 1355.25 2063.5 1355.25 2063.5 1630.25 2115.06 1630.25 2146 1403.38 2176.94 1630.25 2228.5 1630.25 2228.5 1355.25 2197.56 1355.25 2197.56 1341.5 2228.5 1341.5ZM2108.19 1355.25 2108.19 1341.5 2139.12 1341.5 2139.12 1355.25 2108.19 1355.25ZM2183.81 1355.25 2152.88 1355.25 2152.88 1341.5 2183.81 1341.5 2183.81 1355.25Z" fill="#D5D9D4"/></g></g></g></g></svg>