<svg width="853" height="331" xmlns="http://www.w3.org/2000/svg" xmlns:xlink="http://www.w3.org/1999/xlink" xml:space="preserve" overflow="hidden"><defs><clipPath id="clip0"><rect x="1976" y="518" width="853" height="331"/></clipPath><clipPath id="clip1"><rect x="1975" y="518" width="331" height="331"/></clipPath><clipPath id="clip2"><rect x="1975" y="518" width="331" height="331"/></clipPath><clipPath id="clip3"><rect x="1975" y="518" width="331" height="331"/></clipPath><clipPath id="clip4"><rect x="2297" y="623" width="145" height="145"/></clipPath><clipPath id="clip5"><rect x="2297" y="623" width="145" height="145"/></clipPath><clipPath id="clip6"><rect x="2297" y="623" width="145" height="145"/></clipPath><clipPath id="clip7"><rect x="2499" y="519" width="331" height="331"/></clipPath><clipPath id="clip8"><rect x="2499" y="519" width="331" height="331"/></clipPath><clipPath id="clip9"><rect x="2499" y="519" width="331" height="331"/></clipPath></defs><g clip-path="url(#clip0)" transform="translate(-1976 -518)"><g clip-path="url(#clip1)"><g clip-path="url(#clip2)"><g clip-path="url(#clip3)"><path d="M2256.16 785.438 2174.34 642.438C2172.97 639.688 2171.94 636.938 2171.94 633.844 2171.94 632.469 2172.28 630.75 2172.62 629.375L2183.28 589.844C2183.62 588.125 2185.34 587.094 2187.06 587.438L2215.59 590.188C2216.62 590.188 2217.31 589.844 2217.31 588.813L2223.5 560.969C2223.84 560.281 2223.16 559.25 2222.47 558.906L2196 549.281C2189.12 546.875 2181.91 545.5 2174.69 545.5L2171.94 545.5C2169.88 545.5 2168.5 546.875 2168.5 548.938L2168.5 552.375C2168.5 567.5 2156.12 579.875 2141 579.875 2125.88 579.875 2113.5 567.5 2113.5 552.375L2113.5 548.938C2113.5 546.875 2112.12 545.5 2110.06 545.5L2107.31 545.5C2100.09 545.5 2092.88 546.875 2086 549.281L2059.88 558.906C2059.19 559.25 2058.5 559.938 2058.84 560.969L2065.03 588.813C2065.38 589.5 2066.06 590.188 2066.75 590.188L2095.28 587.438C2097 587.438 2098.37 588.469 2099.06 589.844L2109.72 629.375C2110.06 630.75 2110.41 632.469 2110.41 633.844 2110.41 636.938 2109.72 639.688 2108 642.438L2025.84 785.438C2024.12 788.531 2024.81 792.313 2027.91 794.375 2049.22 809.844 2091.84 820.5 2141 820.5 2190.16 820.5 2232.78 809.844 2254.09 794.375 2256.84 792.313 2257.88 788.531 2256.16 785.438Z" fill="#D5D9D4"/></g></g></g><g clip-path="url(#clip4)"><g clip-path="url(#clip5)"><g clip-path="url(#clip6)"><path d="M2430 687 2379 687 2379 636 2361 636 2361 687 2310 687 2310 705 2361 705 2361 756 2379 756 2379 705 2430 705Z" fill="#D5D9D4"/></g></g></g><g clip-path="url(#clip7)"><g clip-path="url(#clip8)"><g clip-path="url(#clip9)"><path d="M2697 734.188 2695.62 734.188C2685.66 732.813 2675.34 730.75 2664 728 2646.81 724.219 2628.59 720.094 2612.09 720.094L2536.81 720.094C2528.56 720.094 2522.38 717.688 2517.91 714.938 2515.84 713.563 2512.75 714.938 2512.75 717.688L2512.75 751.031 2591.81 751.031 2598.69 733.844 2612.44 733.844C2627.56 733.844 2644.75 737.625 2661.25 741.406 2672.25 743.813 2683.59 746.219 2693.91 747.594L2695.28 747.594C2705.59 748.969 2716.94 750.344 2730 750.344 2752.69 750.344 2779.84 745.875 2815.25 728.344L2815.25 718.375C2815.25 715.969 2812.5 714.25 2810.09 715.281 2757.84 741.75 2724.16 737.625 2697 734.188Z" fill="#D5D9D4"/><path d="M2791.19 689.156C2762.31 692.25 2739.28 685.031 2718.31 674.031L2707.66 684.688C2706.97 685.375 2705.94 685.719 2705.25 685.719 2704.56 685.719 2703.53 685.375 2702.84 684.688 2701.47 683.313 2701.47 681.25 2702.84 679.875L2712.12 670.594C2705.59 666.813 2699.06 662.688 2692.88 658.219L2680.16 670.938C2679.47 671.625 2678.44 671.969 2677.75 671.969 2677.06 671.969 2676.03 671.625 2675.34 670.938 2673.97 669.563 2673.97 667.5 2675.34 666.125L2687.38 654.094C2681.19 649.625 2675.34 645.156 2669.16 640.688L2652.66 657.188C2651.97 657.875 2650.94 658.219 2650.25 658.219 2649.56 658.219 2648.53 657.875 2647.84 657.188 2646.47 655.813 2646.47 653.75 2647.84 652.375L2663.66 636.563C2653.69 629.344 2643.38 622.813 2632.72 617.656 2627.91 615.594 2622.75 618.688 2622.75 623.844L2622.75 634.156C2578.06 652.031 2543 642.063 2529.59 636.563 2526.16 635.188 2522.03 636.906 2520.66 640.344 2515.16 654.094 2512.75 674.375 2512.75 682.281 2512.75 699.469 2518.25 706.688 2521.69 709.094 2524.09 710.469 2529.25 713.219 2536.81 713.219L2612.44 713.219C2629.97 713.219 2648.19 717.344 2665.72 721.125 2676.72 723.531 2687.03 725.938 2696.66 726.969L2698.03 726.969C2708 728.344 2717.97 729.375 2729.66 729.375 2753.72 729.375 2778.47 723.188 2804.59 710.469 2807 709.094 2808.72 706.688 2808.38 703.594 2808.03 699.125 2802.19 688.125 2791.19 689.156Z" fill="#D5D9D4"/></g></g></g></g></svg>