<svg width="1339" height="346" xmlns="http://www.w3.org/2000/svg" xmlns:xlink="http://www.w3.org/1999/xlink" xml:space="preserve" overflow="hidden"><defs><clipPath id="clip0"><rect x="1484" y="1295" width="1339" height="346"/></clipPath><clipPath id="clip1"><rect x="1851" y="1406" width="145" height="145"/></clipPath><clipPath id="clip2"><rect x="1851" y="1406" width="145" height="145"/></clipPath><clipPath id="clip3"><rect x="1851" y="1406" width="145" height="145"/></clipPath><clipPath id="clip4"><rect x="2312" y="1406" width="145" height="145"/></clipPath><clipPath id="clip5"><rect x="2312" y="1406" width="145" height="145"/></clipPath><clipPath id="clip6"><rect x="2312" y="1406" width="145" height="145"/></clipPath><clipPath id="clip7"><rect x="2492" y="1294" width="331" height="331"/></clipPath><clipPath id="clip8"><rect x="2492" y="1294" width="331" height="331"/></clipPath><clipPath id="clip9"><rect x="2492" y="1294" width="331" height="331"/></clipPath><clipPath id="clip10"><rect x="1483" y="1311" width="331" height="331"/></clipPath><clipPath id="clip11"><rect x="1483" y="1311" width="331" height="331"/></clipPath><clipPath id="clip12"><rect x="1483" y="1311" width="331" height="331"/></clipPath><clipPath id="clip13"><rect x="1983" y="1306" width="331" height="331"/></clipPath><clipPath id="clip14"><rect x="1983" y="1306" width="331" height="331"/></clipPath><clipPath id="clip15"><rect x="1983" y="1306" width="331" height="331"/></clipPath></defs><g clip-path="url(#clip0)" transform="translate(-1484 -1295)"><g clip-path="url(#clip1)"><g clip-path="url(#clip2)"><g clip-path="url(#clip3)"><path d="M1983 1470 1932 1470 1932 1419 1914 1419 1914 1470 1863 1470 1863 1488 1914 1488 1914 1539 1932 1539 1932 1488 1983 1488Z" fill="#D5D9D4"/></g></g></g><g clip-path="url(#clip4)"><g clip-path="url(#clip5)"><g clip-path="url(#clip6)"><path d="M2444 1470 2393 1470 2393 1419 2375 1419 2375 1470 2324 1470 2324 1488 2375 1488 2375 1539 2393 1539 2393 1488 2444 1488Z" fill="#D5D9D4"/></g></g></g><g clip-path="url(#clip7)"><g clip-path="url(#clip8)"><g clip-path="url(#clip9)"><path d="M2691 1510.19 2689.62 1510.19C2679.66 1508.81 2669.34 1506.75 2658 1504 2640.81 1500.22 2622.59 1496.09 2606.09 1496.09L2530.81 1496.09C2522.56 1496.09 2516.37 1493.69 2511.91 1490.94 2509.84 1489.56 2506.75 1490.94 2506.75 1493.69L2506.75 1527.03 2585.81 1527.03 2592.69 1509.84 2606.44 1509.84C2621.56 1509.84 2638.75 1513.62 2655.25 1517.41 2666.25 1519.81 2677.59 1522.22 2687.91 1523.59L2689.28 1523.59C2699.59 1524.97 2710.94 1526.34 2724 1526.34 2746.69 1526.34 2773.84 1521.87 2809.25 1504.34L2809.25 1494.37C2809.25 1491.97 2806.5 1490.25 2804.09 1491.28 2751.84 1517.75 2718.16 1513.62 2691 1510.19Z" fill="#D5D9D4"/><path d="M2785.19 1465.16C2756.31 1468.25 2733.28 1461.03 2712.31 1450.03L2701.66 1460.69C2700.97 1461.37 2699.94 1461.72 2699.25 1461.72 2698.56 1461.72 2697.53 1461.37 2696.84 1460.69 2695.47 1459.31 2695.47 1457.25 2696.84 1455.87L2706.12 1446.59C2699.59 1442.81 2693.06 1438.69 2686.87 1434.22L2674.16 1446.94C2673.47 1447.62 2672.44 1447.97 2671.75 1447.97 2671.06 1447.97 2670.03 1447.62 2669.34 1446.94 2667.97 1445.56 2667.97 1443.5 2669.34 1442.12L2681.37 1430.09C2675.19 1425.62 2669.34 1421.16 2663.16 1416.69L2646.66 1433.19C2645.97 1433.87 2644.94 1434.22 2644.25 1434.22 2643.56 1434.22 2642.53 1433.87 2641.84 1433.19 2640.47 1431.81 2640.47 1429.75 2641.84 1428.37L2657.66 1412.56C2647.69 1405.34 2637.37 1398.81 2626.72 1393.66 2621.91 1391.59 2616.75 1394.69 2616.75 1399.84L2616.75 1410.16C2572.06 1428.03 2537 1418.06 2523.59 1412.56 2520.16 1411.19 2516.03 1412.91 2514.66 1416.34 2509.16 1430.09 2506.75 1450.37 2506.75 1458.28 2506.75 1475.47 2512.25 1482.69 2515.69 1485.09 2518.09 1486.47 2523.25 1489.22 2530.81 1489.22L2606.44 1489.22C2623.97 1489.22 2642.19 1493.34 2659.72 1497.12 2670.72 1499.53 2681.03 1501.94 2690.66 1502.97L2692.03 1502.97C2702 1504.34 2711.97 1505.37 2723.66 1505.37 2747.72 1505.37 2772.47 1499.19 2798.59 1486.47 2801 1485.09 2802.72 1482.69 2802.37 1479.59 2802.03 1475.12 2796.19 1464.12 2785.19 1465.16Z" fill="#D5D9D4"/></g></g></g><g clip-path="url(#clip10)"><g clip-path="url(#clip11)"><g clip-path="url(#clip12)"><path d="M1797.5 1413.09 1747.31 1363.94C1745.94 1362.56 1744.22 1361.53 1742.5 1360.84L1695.75 1343.31C1693.34 1342.28 1690.25 1342.97 1688.53 1345.03 1678.56 1355.34 1664.47 1361.88 1649 1361.88 1633.53 1361.88 1619.44 1355.34 1609.47 1345.03 1607.75 1342.97 1604.66 1342.63 1602.25 1343.31L1555.5 1360.84C1553.78 1361.53 1552.06 1362.56 1550.69 1363.94L1500.5 1413.09C1497.75 1416.19 1498.09 1421 1501.19 1423.41L1547.25 1458.13C1550 1460.19 1553.78 1460.19 1556.19 1457.78L1573.38 1441.63 1573.38 1609.03 1724.62 1609.03 1724.62 1441.97 1741.81 1458.13C1744.22 1460.53 1748.34 1460.53 1750.75 1458.47L1796.81 1423.41C1799.91 1421 1800.25 1416.19 1797.5 1413.09Z" fill="#D5D9D4"/></g></g></g><g clip-path="url(#clip13)"><g clip-path="url(#clip14)"><g clip-path="url(#clip15)"><path d="M2031.15 1564.81 2134.27 1592.31 2139.14 1569.79 2036.5 1542.42 2031.15 1564.81Z" fill="#D5D9D4"/><path d="M2140.47 1388.1C2137.43 1385.84 2136.81 1381.54 2139.07 1378.51 2140.36 1376.77 2142.41 1375.74 2144.58 1375.75L2151.46 1375.75C2155.24 1375.74 2158.32 1378.8 2158.33 1382.59 2158.33 1385.13 2156.93 1387.47 2154.69 1388.66L2155.72 1392.94 2227.08 1392.94 2227.08 1362 2068.96 1362 2068.96 1392.94 2139.31 1392.94Z" fill="#D5D9D4"/><path d="M2259.54 1542.42 2156.9 1569.79 2161.77 1592.31 2264.9 1564.81 2259.54 1542.42Z" fill="#D5D9D4"/><path d="M2227.08 1406.69 2175.52 1406.69 2159 1406.69 2170.22 1453.61 2160.19 1456.01 2148.4 1406.69 2146.62 1406.69 2137.02 1446.87 2126.99 1444.47 2136.02 1406.69 2120.52 1406.69 2068.96 1406.69 2039.7 1529.04 2142.25 1556.39 2148.02 1530.44 2153.79 1556.39 2256.34 1529.04 2227.08 1406.69Z" fill="#D5D9D4"/></g></g></g></g></svg>