<svg width="1325" height="351" xmlns="http://www.w3.org/2000/svg" xmlns:xlink="http://www.w3.org/1999/xlink" xml:space="preserve" overflow="hidden"><defs><clipPath id="clip0"><rect x="1484" y="911" width="1325" height="351"/></clipPath><clipPath id="clip1"><rect x="1837" y="1023" width="145" height="146"/></clipPath><clipPath id="clip2"><rect x="1837" y="1023" width="145" height="146"/></clipPath><clipPath id="clip3"><rect x="1837" y="1023" width="145" height="146"/></clipPath><clipPath id="clip4"><rect x="2297" y="1023" width="145" height="146"/></clipPath><clipPath id="clip5"><rect x="2297" y="1023" width="145" height="146"/></clipPath><clipPath id="clip6"><rect x="2297" y="1023" width="145" height="146"/></clipPath><clipPath id="clip7"><rect x="2479" y="910" width="331" height="331"/></clipPath><clipPath id="clip8"><rect x="2479" y="910" width="331" height="331"/></clipPath><clipPath id="clip9"><rect x="2479" y="910" width="331" height="331"/></clipPath><clipPath id="clip10"><rect x="1982" y="931" width="331" height="331"/></clipPath><clipPath id="clip11"><rect x="1982" y="931" width="331" height="331"/></clipPath><clipPath id="clip12"><rect x="1982" y="931" width="331" height="331"/></clipPath><clipPath id="clip13"><rect x="1483" y="929" width="331" height="331"/></clipPath><clipPath id="clip14"><rect x="1483" y="929" width="331" height="331"/></clipPath><clipPath id="clip15"><rect x="1483" y="929" width="331" height="331"/></clipPath></defs><g clip-path="url(#clip0)" transform="translate(-1484 -911)"><g clip-path="url(#clip1)"><g clip-path="url(#clip2)"><g clip-path="url(#clip3)"><path d="M132 63 81 63 81 12 63 12 63 63 12 63 12 81 63 81 63 132 81 132 81 81 132 81Z" fill="#D5D9D4" transform="matrix(1 0 0 1.00694 1837 1023)"/></g></g></g><g clip-path="url(#clip4)"><g clip-path="url(#clip5)"><g clip-path="url(#clip6)"><path d="M132 63 81 63 81 12 63 12 63 63 12 63 12 81 63 81 63 132 81 132 81 81 132 81Z" fill="#D5D9D4" transform="matrix(1 0 0 1.00694 2298 1023)"/></g></g></g><g clip-path="url(#clip7)"><g clip-path="url(#clip8)"><g clip-path="url(#clip9)"><path d="M2677 1126.19 2675.63 1126.19C2665.66 1124.81 2655.34 1122.75 2644 1120 2626.81 1116.22 2608.59 1112.09 2592.09 1112.09L2516.81 1112.09C2508.56 1112.09 2502.38 1109.69 2497.91 1106.94 2495.84 1105.56 2492.75 1106.94 2492.75 1109.69L2492.75 1143.03 2571.81 1143.03 2578.69 1125.84 2592.44 1125.84C2607.56 1125.84 2624.75 1129.62 2641.25 1133.41 2652.25 1135.81 2663.59 1138.22 2673.91 1139.59L2675.28 1139.59C2685.59 1140.97 2696.94 1142.34 2710 1142.34 2732.69 1142.34 2759.84 1137.88 2795.25 1120.34L2795.25 1110.38C2795.25 1107.97 2792.5 1106.25 2790.09 1107.28 2737.84 1133.75 2704.16 1129.62 2677 1126.19Z" fill="#D5D9D4"/><path d="M2771.19 1081.16C2742.31 1084.25 2719.28 1077.03 2698.31 1066.03L2687.66 1076.69C2686.97 1077.38 2685.94 1077.72 2685.25 1077.72 2684.56 1077.72 2683.53 1077.38 2682.84 1076.69 2681.47 1075.31 2681.47 1073.25 2682.84 1071.88L2692.13 1062.59C2685.59 1058.81 2679.06 1054.69 2672.88 1050.22L2660.16 1062.94C2659.47 1063.62 2658.44 1063.97 2657.75 1063.97 2657.06 1063.97 2656.03 1063.62 2655.34 1062.94 2653.97 1061.56 2653.97 1059.5 2655.34 1058.12L2667.38 1046.09C2661.19 1041.62 2655.34 1037.16 2649.16 1032.69L2632.66 1049.19C2631.97 1049.88 2630.94 1050.22 2630.25 1050.22 2629.56 1050.22 2628.53 1049.88 2627.84 1049.19 2626.47 1047.81 2626.47 1045.75 2627.84 1044.38L2643.66 1028.56C2633.69 1021.34 2623.38 1014.81 2612.72 1009.66 2607.91 1007.59 2602.75 1010.69 2602.75 1015.84L2602.75 1026.16C2558.06 1044.03 2523 1034.06 2509.59 1028.56 2506.16 1027.19 2502.03 1028.91 2500.66 1032.34 2495.16 1046.09 2492.75 1066.38 2492.75 1074.28 2492.75 1091.47 2498.25 1098.69 2501.69 1101.09 2504.09 1102.47 2509.25 1105.22 2516.81 1105.22L2592.44 1105.22C2609.97 1105.22 2628.19 1109.34 2645.72 1113.12 2656.72 1115.53 2667.03 1117.94 2676.66 1118.97L2678.03 1118.97C2688 1120.34 2697.97 1121.38 2709.66 1121.38 2733.72 1121.38 2758.47 1115.19 2784.59 1102.47 2787 1101.09 2788.72 1098.69 2788.38 1095.59 2788.03 1091.12 2782.19 1080.12 2771.19 1081.16Z" fill="#D5D9D4"/></g></g></g><g clip-path="url(#clip10)"><g clip-path="url(#clip11)"><g clip-path="url(#clip12)"><path d="M2233.28 987 2198.56 987 2198.56 973.25 2231.22 973.25 2230.19 965.344C2229.84 961.906 2226.75 959.5 2223.31 959.5L2070.69 959.5C2067.25 959.5 2064.16 961.906 2063.81 965.344L2062.78 973.25 2095.44 973.25 2095.44 987 2060.72 987 2030.13 1214.22C2040.78 1230.72 2071.03 1214.22 2081.69 1214.22 2092.69 1214.22 2129.81 1234.5 2147 1234.5 2164.19 1234.5 2201.31 1214.22 2212.31 1214.22 2222.97 1214.22 2253.22 1230.72 2263.88 1214.22L2233.28 987ZM2109.19 987 2109.19 973.25 2140.12 973.25 2140.12 987 2109.19 987ZM2153.88 987 2153.88 973.25 2184.81 973.25 2184.81 987 2153.88 987Z" fill="#D5D9D4"/></g></g></g><g clip-path="url(#clip13)"><g clip-path="url(#clip14)"><g clip-path="url(#clip15)"><path d="M1797.5 1032.09 1747.31 982.937C1745.94 981.562 1744.22 980.531 1742.5 979.844L1695.75 962.312C1693.34 961.281 1690.25 961.969 1688.53 964.031 1678.56 974.344 1664.47 980.875 1649 980.875 1633.53 980.875 1619.44 974.344 1609.47 964.031 1607.75 961.969 1604.66 961.625 1602.25 962.312L1555.5 979.844C1553.78 980.531 1552.06 981.562 1550.69 982.937L1500.5 1032.09C1497.75 1035.19 1498.09 1040 1501.19 1042.41L1547.25 1077.12C1550 1079.19 1553.78 1079.19 1556.19 1076.78L1573.38 1060.62 1573.38 1228.03 1724.62 1228.03 1724.62 1060.97 1741.81 1077.12C1744.22 1079.53 1748.34 1079.53 1750.75 1077.47L1796.81 1042.41C1799.91 1040 1800.25 1035.19 1797.5 1032.09Z" fill="#D5D9D4"/></g></g></g></g></svg>