<svg width="1354" height="343" xmlns="http://www.w3.org/2000/svg" xmlns:xlink="http://www.w3.org/1999/xlink" xml:space="preserve" overflow="hidden"><defs><clipPath id="clip0"><rect x="1475" y="520" width="1354" height="343"/></clipPath><clipPath id="clip1"><rect x="1978" y="533" width="331" height="331"/></clipPath><clipPath id="clip2"><rect x="1978" y="533" width="331" height="331"/></clipPath><clipPath id="clip3"><rect x="1978" y="533" width="331" height="331"/></clipPath><clipPath id="clip4"><rect x="1837" y="624" width="145" height="145"/></clipPath><clipPath id="clip5"><rect x="1837" y="624" width="145" height="145"/></clipPath><clipPath id="clip6"><rect x="1837" y="624" width="145" height="145"/></clipPath><clipPath id="clip7"><rect x="2297" y="624" width="145" height="145"/></clipPath><clipPath id="clip8"><rect x="2297" y="624" width="145" height="145"/></clipPath><clipPath id="clip9"><rect x="2297" y="624" width="145" height="145"/></clipPath><clipPath id="clip10"><rect x="1475" y="520" width="331" height="331"/></clipPath><clipPath id="clip11"><rect x="1475" y="520" width="331" height="331"/></clipPath><clipPath id="clip12"><rect x="1475" y="520" width="331" height="331"/></clipPath><clipPath id="clip13"><rect x="2499" y="520" width="331" height="331"/></clipPath><clipPath id="clip14"><rect x="2499" y="520" width="331" height="331"/></clipPath><clipPath id="clip15"><rect x="2499" y="520" width="331" height="331"/></clipPath></defs><g clip-path="url(#clip0)" transform="translate(-1475 -520)"><g clip-path="url(#clip1)"><g clip-path="url(#clip2)"><g clip-path="url(#clip3)"><path d="M2226.5 560.5 2226.5 553.625C2226.5 549.844 2223.41 546.75 2219.62 546.75L2144 546.75 2068.38 546.75C2064.59 546.75 2061.5 549.844 2061.5 553.625L2061.5 560.5 2092.44 560.5 2092.44 574.25 2061.5 574.25 2061.5 849.25 2113.06 849.25 2144 622.375 2174.94 849.25 2226.5 849.25 2226.5 574.25 2195.56 574.25 2195.56 560.5 2226.5 560.5ZM2106.19 574.25 2106.19 560.5 2137.12 560.5 2137.12 574.25 2106.19 574.25ZM2181.81 574.25 2150.88 574.25 2150.88 560.5 2181.81 560.5 2181.81 574.25Z" fill="#D5D9D4"/></g></g></g><g clip-path="url(#clip4)"><g clip-path="url(#clip5)"><g clip-path="url(#clip6)"><path d="M1969 688 1918 688 1918 637 1900 637 1900 688 1849 688 1849 706 1900 706 1900 757 1918 757 1918 706 1969 706Z" fill="#D5D9D4"/></g></g></g><g clip-path="url(#clip7)"><g clip-path="url(#clip8)"><g clip-path="url(#clip9)"><path d="M2430 688 2379 688 2379 637 2361 637 2361 688 2310 688 2310 706 2361 706 2361 757 2379 757 2379 706 2430 706Z" fill="#D5D9D4"/></g></g></g><g clip-path="url(#clip10)"><g clip-path="url(#clip11)"><g clip-path="url(#clip12)"><path d="M1719.06 774.719 1720.44 786.75C1720.78 788.469 1722.5 789.844 1724.22 789.844L1758.25 786.406C1759.97 786.063 1761.34 784.344 1761.34 782.625L1759.97 770.594 1719.06 774.719Z" fill="#D5D9D4"/><path d="M1710.12 689.469 1717.69 764.406 1758.59 760.625 1744.16 617.969C1741.41 589.781 1717.69 568.469 1689.5 569.156L1674.72 569.156C1671.97 569.156 1669.56 570.875 1668.53 573.281 1664.75 582.563 1653.06 589.094 1639.66 589.094 1626.25 589.094 1614.56 582.563 1610.78 573.281 1609.75 570.875 1607.34 569.156 1604.59 569.156L1591.88 569.156C1563.69 568.469 1539.62 589.781 1536.88 617.969L1521.41 760.625 1562.31 764.75 1570.22 689.469 1570.22 685.344 1572.97 682.594C1573.66 681.906 1574.69 681.219 1576.06 681.219 1577.09 681.219 1578.47 681.563 1579.16 682.25L1590.16 692.906 1601.16 682.25C1602.88 680.531 1605.28 680.531 1607 682.25L1618 692.906 1629 682.25C1630.72 680.531 1633.47 680.531 1635.19 682.25 1635.19 682.25 1635.19 682.25 1635.19 682.25L1644.47 692.219 1653.75 682.25C1654.44 681.563 1655.47 680.875 1656.84 680.875 1657.88 680.875 1659.25 681.219 1659.94 681.906L1670.94 692.563 1681.94 681.906C1683.66 680.188 1686.06 680.188 1687.78 681.906L1698.78 692.563 1709.78 681.906C1709.78 681.906 1710.12 681.906 1710.12 681.906L1710.12 689.469Z" fill="#D5D9D4"/><path d="M1709.78 693.594 1701.88 701.844C1700.16 703.563 1697.75 703.563 1696.03 701.844L1684.69 691.188 1673.69 701.844C1671.97 703.563 1669.56 703.563 1667.84 701.844L1656.84 691.531 1647.22 701.844C1645.5 703.563 1642.75 703.563 1641.03 701.844 1641.03 701.844 1641.03 701.844 1641.03 701.844L1631.41 691.531 1620.41 701.844C1618.69 703.563 1616.28 703.563 1614.56 701.844L1603.56 691.188 1592.56 701.844C1590.84 703.563 1588.44 703.563 1586.72 701.844L1575.72 691.531 1569.53 698.063 1569.53 770.25 1709.44 770.25 1709.78 693.594ZM1601.16 740.344C1602.88 742.063 1602.88 744.813 1601.16 746.531 1599.44 748.25 1596.69 748.25 1594.97 746.531L1589.47 741.031 1583.97 746.531C1582.25 748.25 1579.5 748.25 1577.78 746.531 1576.06 744.813 1576.06 742.063 1577.78 740.344L1583.28 734.844 1577.78 729.344C1576.06 727.625 1576.06 724.875 1577.78 723.156 1579.5 721.438 1582.25 721.438 1583.97 723.156L1589.47 728.656 1594.97 723.156C1596.69 721.438 1599.44 721.438 1601.16 723.156 1602.88 724.875 1602.88 727.625 1601.16 729.344L1595.66 734.844 1601.16 740.344ZM1635.53 740.344C1637.25 742.063 1637.25 744.813 1635.53 746.531 1633.81 748.25 1631.06 748.25 1629.34 746.531L1623.84 741.031 1618.34 746.531C1616.62 748.25 1613.88 748.25 1612.16 746.531 1610.44 744.813 1610.44 742.063 1612.16 740.344L1617.66 734.844 1612.16 729.344C1610.44 727.625 1610.44 724.875 1612.16 723.156 1613.88 721.438 1616.62 721.438 1618.34 723.156L1623.84 728.656 1629.34 723.156C1631.06 721.438 1633.81 721.438 1635.53 723.156 1637.25 724.875 1637.25 727.625 1635.53 729.344L1630.03 734.844 1635.53 740.344ZM1669.91 740.344C1671.62 742.063 1671.62 744.813 1669.91 746.531 1668.19 748.25 1665.44 748.25 1663.72 746.531L1658.22 741.031 1652.72 746.531C1651 748.25 1648.25 748.25 1646.53 746.531 1644.81 744.813 1644.81 742.063 1646.53 740.344L1652.03 734.844 1646.53 729.344C1644.81 727.625 1644.81 724.875 1646.53 723.156 1648.25 721.438 1651 721.438 1652.72 723.156L1658.22 728.656 1663.72 723.156C1665.44 721.438 1668.19 721.438 1669.91 723.156 1671.62 724.875 1671.62 727.625 1669.91 729.344L1664.41 734.844 1669.91 740.344ZM1704.28 740.344C1706 742.063 1706 744.813 1704.28 746.531 1702.56 748.25 1699.81 748.25 1698.09 746.531L1692.59 741.031 1687.09 746.531C1685.38 748.25 1682.62 748.25 1680.91 746.531 1679.19 744.813 1679.19 742.063 1680.91 740.344L1686.41 734.844 1680.91 729.344C1679.19 727.625 1679.19 724.875 1680.91 723.156 1682.62 721.438 1685.38 721.438 1687.09 723.156L1692.59 728.656 1698.09 723.156C1699.81 721.438 1702.56 721.438 1704.28 723.156 1706 724.875 1706 727.625 1704.28 729.344L1698.78 734.844 1704.28 740.344Z" fill="#D5D9D4"/><path d="M1520.38 770.594 1519 782.625C1518.66 784.344 1520.03 786.063 1522.09 786.406 1522.09 786.406 1522.09 786.406 1522.09 786.406L1556.12 789.844C1557.84 790.188 1559.56 788.813 1559.91 786.75 1559.91 786.75 1559.91 786.75 1559.91 786.75L1561.28 774.719 1520.38 770.594Z" fill="#D5D9D4"/><path d="M1570.22 778.844 1570.22 798.438C1570.22 800.5 1571.59 801.875 1573.66 801.875L1706.69 801.875C1708.75 801.875 1710.12 800.5 1710.12 798.438L1710.12 778.5 1570.22 778.5Z" fill="#D5D9D4"/></g></g></g><g clip-path="url(#clip13)"><g clip-path="url(#clip14)"><g clip-path="url(#clip15)"><path d="M2697 735.188 2695.62 735.188C2685.66 733.813 2675.34 731.75 2664 729 2646.81 725.219 2628.59 721.094 2612.09 721.094L2536.81 721.094C2528.56 721.094 2522.38 718.688 2517.91 715.938 2515.84 714.563 2512.75 715.938 2512.75 718.688L2512.75 752.031 2591.81 752.031 2598.69 734.844 2612.44 734.844C2627.56 734.844 2644.75 738.625 2661.25 742.406 2672.25 744.813 2683.59 747.219 2693.91 748.594L2695.28 748.594C2705.59 749.969 2716.94 751.344 2730 751.344 2752.69 751.344 2779.84 746.875 2815.25 729.344L2815.25 719.375C2815.25 716.969 2812.5 715.25 2810.09 716.281 2757.84 742.75 2724.16 738.625 2697 735.188Z" fill="#D5D9D4"/><path d="M2791.19 690.156C2762.31 693.25 2739.28 686.031 2718.31 675.031L2707.66 685.688C2706.97 686.375 2705.94 686.719 2705.25 686.719 2704.56 686.719 2703.53 686.375 2702.84 685.688 2701.47 684.313 2701.47 682.25 2702.84 680.875L2712.12 671.594C2705.59 667.813 2699.06 663.688 2692.88 659.219L2680.16 671.938C2679.47 672.625 2678.44 672.969 2677.75 672.969 2677.06 672.969 2676.03 672.625 2675.34 671.938 2673.97 670.563 2673.97 668.5 2675.34 667.125L2687.38 655.094C2681.19 650.625 2675.34 646.156 2669.16 641.688L2652.66 658.188C2651.97 658.875 2650.94 659.219 2650.25 659.219 2649.56 659.219 2648.53 658.875 2647.84 658.188 2646.47 656.813 2646.47 654.75 2647.84 653.375L2663.66 637.563C2653.69 630.344 2643.38 623.813 2632.72 618.656 2627.91 616.594 2622.75 619.688 2622.75 624.844L2622.75 635.156C2578.06 653.031 2543 643.063 2529.59 637.563 2526.16 636.188 2522.03 637.906 2520.66 641.344 2515.16 655.094 2512.75 675.375 2512.75 683.281 2512.75 700.469 2518.25 707.688 2521.69 710.094 2524.09 711.469 2529.25 714.219 2536.81 714.219L2612.44 714.219C2629.97 714.219 2648.19 718.344 2665.72 722.125 2676.72 724.531 2687.03 726.938 2696.66 727.969L2698.03 727.969C2708 729.344 2717.97 730.375 2729.66 730.375 2753.72 730.375 2778.47 724.188 2804.59 711.469 2807 710.094 2808.72 707.688 2808.38 704.594 2808.03 700.125 2802.19 689.125 2791.19 690.156Z" fill="#D5D9D4"/></g></g></g></g></svg>