<svg width="1931" height="350" xmlns="http://www.w3.org/2000/svg" xmlns:xlink="http://www.w3.org/1999/xlink" xml:space="preserve" overflow="hidden"><defs><clipPath id="clip0"><rect x="897" y="54" width="1931" height="350"/></clipPath><clipPath id="clip1"><rect x="1271" y="147" width="145" height="145"/></clipPath><clipPath id="clip2"><rect x="1271" y="147" width="145" height="145"/></clipPath><clipPath id="clip3"><rect x="1271" y="147" width="145" height="145"/></clipPath><clipPath id="clip4"><rect x="1978" y="73" width="331" height="331"/></clipPath><clipPath id="clip5"><rect x="1978" y="73" width="331" height="331"/></clipPath><clipPath id="clip6"><rect x="1978" y="73" width="331" height="331"/></clipPath><clipPath id="clip7"><rect x="1837" y="166" width="145" height="145"/></clipPath><clipPath id="clip8"><rect x="1837" y="166" width="145" height="145"/></clipPath><clipPath id="clip9"><rect x="1837" y="166" width="145" height="145"/></clipPath><clipPath id="clip10"><rect x="2297" y="166" width="145" height="145"/></clipPath><clipPath id="clip11"><rect x="2297" y="166" width="145" height="145"/></clipPath><clipPath id="clip12"><rect x="2297" y="166" width="145" height="145"/></clipPath><clipPath id="clip13"><rect x="1461" y="72" width="331" height="331"/></clipPath><clipPath id="clip14"><rect x="1461" y="72" width="331" height="331"/></clipPath><clipPath id="clip15"><rect x="1461" y="72" width="331" height="331"/></clipPath><clipPath id="clip16"><rect x="896" y="72" width="331" height="331"/></clipPath><clipPath id="clip17"><rect x="896" y="72" width="331" height="331"/></clipPath><clipPath id="clip18"><rect x="896" y="72" width="331" height="331"/></clipPath><clipPath id="clip19"><rect x="2498" y="53" width="331" height="331"/></clipPath><clipPath id="clip20"><rect x="2498" y="53" width="331" height="331"/></clipPath><clipPath id="clip21"><rect x="2498" y="53" width="331" height="331"/></clipPath></defs><g clip-path="url(#clip0)" transform="translate(-897 -54)"><g clip-path="url(#clip1)"><g clip-path="url(#clip2)"><g clip-path="url(#clip3)"><path d="M1404 210 1353 210 1353 159 1335 159 1335 210 1284 210 1284 228 1335 228 1335 279 1353 279 1353 228 1404 228Z" fill="#D5D9D4"/></g></g></g><g clip-path="url(#clip4)"><g clip-path="url(#clip5)"><g clip-path="url(#clip6)"><path d="M2226.5 101.5 2226.5 94.6249C2226.5 90.8437 2223.41 87.7499 2219.62 87.7499L2144 87.7499 2068.38 87.7499C2064.59 87.7499 2061.5 90.8437 2061.5 94.6249L2061.5 101.5 2092.44 101.5 2092.44 115.25 2061.5 115.25 2061.5 390.25 2113.06 390.25 2144 163.375 2174.94 390.25 2226.5 390.25 2226.5 115.25 2195.56 115.25 2195.56 101.5 2226.5 101.5ZM2106.19 115.25 2106.19 101.5 2137.12 101.5 2137.12 115.25 2106.19 115.25ZM2181.81 115.25 2150.88 115.25 2150.88 101.5 2181.81 101.5 2181.81 115.25Z" fill="#D5D9D4"/></g></g></g><g clip-path="url(#clip7)"><g clip-path="url(#clip8)"><g clip-path="url(#clip9)"><path d="M1969 229 1918 229 1918 178 1900 178 1900 229 1849 229 1849 247 1900 247 1900 298 1918 298 1918 247 1969 247Z" fill="#D5D9D4"/></g></g></g><g clip-path="url(#clip10)"><g clip-path="url(#clip11)"><g clip-path="url(#clip12)"><path d="M2430 229 2379 229 2379 178 2361 178 2361 229 2310 229 2310 247 2361 247 2361 298 2379 298 2379 247 2430 247Z" fill="#D5D9D4"/></g></g></g><g clip-path="url(#clip13)"><g clip-path="url(#clip14)"><g clip-path="url(#clip15)"><path d="M1775.5 175.094 1725.31 125.937C1723.94 124.562 1722.22 123.531 1720.5 122.844L1673.75 105.312C1671.34 104.281 1668.25 104.969 1666.53 107.031 1656.56 117.344 1642.47 123.875 1627 123.875 1611.53 123.875 1597.44 117.344 1587.47 107.031 1585.75 104.969 1582.66 104.625 1580.25 105.312L1533.5 122.844C1531.78 123.531 1530.06 124.562 1528.69 125.937L1478.5 175.094C1475.75 178.187 1476.09 183 1479.19 185.406L1525.25 220.125C1528 222.187 1531.78 222.187 1534.19 219.781L1551.38 203.625 1551.38 371.031 1702.62 371.031 1702.62 203.969 1719.81 220.125C1722.22 222.531 1726.34 222.531 1728.75 220.469L1774.81 185.406C1777.91 183 1778.25 178.187 1775.5 175.094Z" fill="#D5D9D4"/></g></g></g><g clip-path="url(#clip16)"><g clip-path="url(#clip17)"><g clip-path="url(#clip18)"><path d="M1062 310.187C1058.22 310.187 1055.12 307.094 1055.12 303.312 1055.12 299.531 1058.22 296.437 1062 296.437 1065.78 296.437 1068.87 299.531 1068.87 303.312 1068.87 307.094 1065.78 310.187 1062 310.187ZM1062 334.25C1058.22 334.25 1055.12 331.156 1055.12 327.375 1055.12 323.594 1058.22 320.5 1062 320.5 1065.78 320.5 1068.87 323.594 1068.87 327.375 1068.87 331.156 1065.78 334.25 1062 334.25ZM1161.34 170.625C1158.59 145.187 1139.34 125.594 1114.59 121.812L1130.06 152.406C1131.09 154.469 1131.09 157.219 1129.72 159.281L1044.81 295.062 1044.81 354.875 1127.31 354.875 1127.31 242.469 1137.28 339.75C1137.62 341.469 1139 342.844 1141.06 342.844L1175.09 339.406C1176.81 339.062 1178.19 337.687 1178.19 335.625L1161.34 170.625Z" fill="#D5D9D4"/><path d="M1042.41 210.156 1019.03 132.812 1008.03 155.156Z" fill="#D5D9D4"/><path d="M1115.97 155.156 1104.97 132.812 1081.59 210.156Z" fill="#D5D9D4"/><path d="M994.281 159.281C992.906 157.219 992.906 154.812 993.937 152.406L1009.41 121.812C985 125.594 965.406 145.187 962.656 170.625L945.469 335.625C945.125 337.344 946.5 339.062 948.562 339.406L982.594 342.844C984.312 343.187 986.031 341.812 986.375 339.75L996.687 242.469 996.687 354.875 1031.06 354.875 1031.06 293C1031.06 291.625 1031.41 290.594 1032.09 289.219L1053.75 254.5 994.281 159.281Z" fill="#D5D9D4"/><path d="M1093.97 121.125 1030.03 121.125 1062 227.687Z" fill="#D5D9D4"/></g></g></g><g clip-path="url(#clip19)"><g clip-path="url(#clip20)"><g clip-path="url(#clip21)"><path d="M2696 269.187 2694.62 269.187C2684.66 267.812 2674.34 265.75 2663 263 2645.81 259.219 2627.59 255.094 2611.09 255.094L2535.81 255.094C2527.56 255.094 2521.38 252.687 2516.91 249.937 2514.84 248.562 2511.75 249.937 2511.75 252.687L2511.75 286.031 2590.81 286.031 2597.69 268.844 2611.44 268.844C2626.56 268.844 2643.75 272.625 2660.25 276.406 2671.25 278.812 2682.59 281.219 2692.91 282.594L2694.28 282.594C2704.59 283.969 2715.94 285.344 2729 285.344 2751.69 285.344 2778.84 280.875 2814.25 263.344L2814.25 253.375C2814.25 250.969 2811.5 249.25 2809.09 250.281 2756.84 276.75 2723.16 272.625 2696 269.187Z" fill="#D5D9D4"/><path d="M2790.19 224.156C2761.31 227.25 2738.28 220.031 2717.31 209.031L2706.66 219.687C2705.97 220.375 2704.94 220.719 2704.25 220.719 2703.56 220.719 2702.53 220.375 2701.84 219.687 2700.47 218.312 2700.47 216.25 2701.84 214.875L2711.12 205.594C2704.59 201.812 2698.06 197.687 2691.88 193.219L2679.16 205.937C2678.47 206.625 2677.44 206.969 2676.75 206.969 2676.06 206.969 2675.03 206.625 2674.34 205.937 2672.97 204.562 2672.97 202.5 2674.34 201.125L2686.38 189.094C2680.19 184.625 2674.34 180.156 2668.16 175.687L2651.66 192.187C2650.97 192.875 2649.94 193.219 2649.25 193.219 2648.56 193.219 2647.53 192.875 2646.84 192.187 2645.47 190.812 2645.47 188.75 2646.84 187.375L2662.66 171.562C2652.69 164.344 2642.38 157.812 2631.72 152.656 2626.91 150.594 2621.75 153.687 2621.75 158.844L2621.75 169.156C2577.06 187.031 2542 177.062 2528.59 171.562 2525.16 170.187 2521.03 171.906 2519.66 175.344 2514.16 189.094 2511.75 209.375 2511.75 217.281 2511.75 234.469 2517.25 241.687 2520.69 244.094 2523.09 245.469 2528.25 248.219 2535.81 248.219L2611.44 248.219C2628.97 248.219 2647.19 252.344 2664.72 256.125 2675.72 258.531 2686.03 260.937 2695.66 261.969L2697.03 261.969C2707 263.344 2716.97 264.375 2728.66 264.375 2752.72 264.375 2777.47 258.187 2803.59 245.469 2806 244.094 2807.72 241.687 2807.38 238.594 2807.03 234.125 2801.19 223.125 2790.19 224.156Z" fill="#D5D9D4"/></g></g></g></g></svg>